<svg width="70" height="70" viewBox="0 0 70 70" fill="none" xmlns="http://www.w3.org/2000/svg">
<path d="M0 35C0 15.67 15.67 0 35 0C54.33 0 70 15.67 70 35C70 54.33 54.33 70 35 70C15.67 70 0 54.33 0 35Z" fill="#CE8936"/>
<path d="M25.3192 43.7498H21.9461C22.2731 41.5954 23.3698 39.6325 25.0332 38.2248C26.6965 36.817 28.8137 36.0599 30.9925 36.0935H40.0706C41.7506 36.0736 43.4034 36.5184 44.8464 37.3789C46.2894 38.2393 47.4665 39.482 48.2475 40.9695C48.3805 41.2274 48.6105 41.4218 48.8869 41.5101C49.0238 41.5539 49.1679 41.5702 49.3111 41.5582C49.4542 41.5463 49.5936 41.5062 49.7213 41.4403C49.849 41.3745 49.9625 41.2841 50.0553 41.1744C50.148 41.0647 50.2183 40.9378 50.262 40.8009C50.3057 40.6641 50.3221 40.52 50.3101 40.3768C50.2981 40.2336 50.258 40.0942 50.1922 39.9665C49.2276 38.1213 47.7716 36.5788 45.9852 35.5092C44.1988 34.4397 42.1515 33.8849 40.0695 33.906H30.9914C28.0433 33.8618 25.1979 34.9883 23.079 37.0386C20.96 39.0888 19.7404 41.8956 19.6875 44.8435C19.6875 45.1336 19.8027 45.4118 20.0079 45.6169C20.213 45.8221 20.4912 45.9373 20.7812 45.9373H25.3192C25.6093 45.9373 25.8875 45.8221 26.0926 45.6169C26.2977 45.4118 26.413 45.1336 26.413 44.8435C26.413 44.5535 26.2977 44.2753 26.0926 44.0701C25.8875 43.865 25.6093 43.7498 25.3192 43.7498Z" fill="white"/>
<path d="M49.2188 43.7501H45.4289L41.382 37.6743C41.2757 37.5148 41.1294 37.386 40.9577 37.3009C40.7859 37.2157 40.5949 37.1772 40.4035 37.1891C40.2122 37.2011 40.0274 37.2631 39.8676 37.369C39.7079 37.4749 39.5787 37.6209 39.4931 37.7924L34.8162 47.1462L32.5938 44.1876C32.4919 44.0518 32.3598 43.9415 32.2079 43.8656C32.056 43.7896 31.8885 43.7501 31.7188 43.7501H29.5312C29.2412 43.7501 28.963 43.8653 28.7579 44.0704C28.5527 44.2756 28.4375 44.5538 28.4375 44.8438C28.4375 45.1339 28.5527 45.4121 28.7579 45.6172C28.963 45.8224 29.2412 45.9376 29.5312 45.9376H31.1719L34.125 49.8751C34.2269 50.0109 34.359 50.1212 34.5109 50.1971C34.6627 50.2731 34.8302 50.3126 35 50.3126H35.0984C35.2833 50.295 35.4606 50.2306 35.6136 50.1256C35.7667 50.0205 35.8905 49.8782 35.9734 49.7121L40.5989 40.4601L43.9283 45.4552C44.0292 45.605 44.1656 45.7274 44.3254 45.8115C44.4851 45.8957 44.6632 45.939 44.8438 45.9376H49.2188C49.5088 45.9376 49.787 45.8224 49.9921 45.6172C50.1973 45.4121 50.3125 45.1339 50.3125 44.8438C50.3125 44.5538 50.1973 44.2756 49.9921 44.0704C49.787 43.8653 49.5088 43.7501 49.2188 43.7501Z" fill="white"/>
<path d="M35 32.8125C36.2979 32.8125 37.5667 32.4276 38.6459 31.7065C39.7251 30.9854 40.5663 29.9605 41.063 28.7614C41.5597 27.5622 41.6896 26.2427 41.4364 24.9697C41.1832 23.6967 40.5582 22.5274 39.6404 21.6096C38.7226 20.6918 37.5533 20.0668 36.2803 19.8136C35.0073 19.5604 33.6878 19.6903 32.4886 20.187C31.2895 20.6837 30.2646 21.5249 29.5435 22.6041C28.8224 23.6833 28.4375 24.9521 28.4375 26.25C28.4392 27.99 29.1312 29.6581 30.3615 30.8885C31.5919 32.1188 33.26 32.8108 35 32.8125ZM35 21.875C35.8653 21.875 36.7112 22.1316 37.4306 22.6123C38.1501 23.0931 38.7108 23.7763 39.042 24.5758C39.3731 25.3752 39.4597 26.2549 39.2909 27.1035C39.1221 27.9522 38.7054 28.7317 38.0936 29.3436C37.4817 29.9555 36.7022 30.3721 35.8535 30.5409C35.0049 30.7097 34.1252 30.6231 33.3258 30.292C32.5263 29.9608 31.8431 29.4001 31.3623 28.6806C30.8816 27.9612 30.625 27.1153 30.625 26.25C30.625 25.0897 31.0859 23.9769 31.9064 23.1564C32.7269 22.3359 33.8397 21.875 35 21.875Z" fill="white"/>
</svg>
