<svg width="70" height="70" viewBox="0 0 70 70" fill="none" xmlns="http://www.w3.org/2000/svg">
<path d="M0 35C0 15.67 15.67 0 35 0C54.33 0 70 15.67 70 35C70 54.33 54.33 70 35 70C15.67 70 0 54.33 0 35Z" fill="#CE8936"/>
<g clip-path="url(#clip0_47397_2507)">
<path d="M42.2917 43.75C42.2917 42.5897 41.8308 41.4769 41.0103 40.6564C40.1898 39.8359 39.077 39.375 37.9167 39.375C36.7564 39.375 35.6436 39.8359 34.8231 40.6564C34.0026 41.4769 33.5417 42.5897 33.5417 43.75H36.4584C36.4584 43.3632 36.612 42.9923 36.8855 42.7188C37.159 42.4453 37.5299 42.2917 37.9167 42.2917C38.3035 42.2917 38.6744 42.4453 38.9479 42.7188C39.2214 42.9923 39.375 43.3632 39.375 43.75C39.375 44.4792 38.1354 45.4096 37.0417 46.2292C35.4011 47.46 33.5417 48.8542 33.5417 51.0417V52.5H42.2917V49.5833H37.4938C37.889 49.2392 38.3527 48.8921 38.7917 48.5625C40.4323 47.3317 42.2917 45.9375 42.2917 43.75Z" fill="white"/>
<path d="M49.5833 45.2083H46.6667V39.375H43.75V45.2083C43.75 45.9819 44.0573 46.7237 44.6043 47.2707C45.1513 47.8177 45.8931 48.125 46.6667 48.125H49.5833V52.5H52.5V39.375H49.5833V45.2083Z" fill="white"/>
<path d="M36.4584 26.25H33.5417V33.5417H27.7084V36.4583H36.4584V26.25Z" fill="white"/>
<path d="M49.5832 20.4155V25.3359C48.0175 22.9679 45.8989 21.0165 43.4104 19.6503C40.9219 18.284 38.1383 17.5439 35.2999 17.4939C32.4614 17.4439 29.6535 18.0855 27.1184 19.3632C24.5834 20.641 22.3974 22.5165 20.7492 24.828C19.101 27.1394 18.0401 29.8172 17.6581 32.6303C17.2761 35.4433 17.5845 38.3071 18.5567 40.9743C19.5289 43.6415 21.1356 46.0321 23.2381 47.9396C25.3407 49.847 27.8759 51.2141 30.6249 51.9228V48.9099C28.3576 48.2047 26.2968 46.9565 24.6216 45.2738C22.9463 43.5912 21.7073 41.5249 21.0121 39.2545C20.3169 36.9842 20.1865 34.5784 20.6324 32.2462C21.0783 29.9141 22.0868 27.726 23.5705 25.8722C25.0541 24.0184 26.968 22.5549 29.1458 21.6089C31.3236 20.6628 33.6995 20.2628 36.067 20.4437C38.4345 20.6245 40.7221 21.3807 42.7309 22.6465C44.7398 23.9123 46.4092 25.6495 47.5941 27.7072H42.2916V30.6238H49.5832C50.3568 30.6238 51.0986 30.3166 51.6456 29.7696C52.1926 29.2226 52.4999 28.4807 52.4999 27.7072V20.4155H49.5832Z" fill="white"/>
</g>
<defs>
<clipPath id="clip0_47397_2507">
<rect width="35" height="35" fill="white" transform="translate(17.5 17.5)"/>
</clipPath>
</defs>
</svg>
