<svg width="70" height="70" viewBox="0 0 70 70" fill="none" xmlns="http://www.w3.org/2000/svg">
<path d="M0 35C0 15.67 15.67 0 35 0C54.33 0 70 15.67 70 35C70 54.33 54.33 70 35 70C15.67 70 0 54.33 0 35Z" fill="#CE8936"/>
<path d="M39.4078 32.9043C39.4078 32.3607 38.9671 31.9199 38.4235 31.9199H27.5953C27.0517 31.9199 26.611 32.3607 26.611 32.9043C26.611 33.4479 27.0517 33.8887 27.5953 33.8887H38.4235C38.9671 33.8887 39.4078 33.4479 39.4078 32.9043Z" fill="white"/>
<path d="M27.5931 36.8906C27.0495 36.8906 26.6088 37.3314 26.6088 37.875C26.6088 38.4186 27.0495 38.8594 27.5931 38.8594H33.3342C33.8778 38.8594 34.3186 38.4186 34.3186 37.875C34.3186 37.3314 33.8778 36.8906 33.3342 36.8906H27.5931Z" fill="white"/>
<path d="M45.8937 32.9589C45.3502 32.9589 44.9094 33.3996 44.9094 33.9432V41.9046C44.9094 43.3943 43.6975 44.6062 42.2078 44.6062H35.6234C35.4102 44.6062 35.2023 44.6751 35.0317 44.8042L29.3464 49.0796C29.202 49.1879 29.0664 49.1431 28.9986 49.1059C28.9297 49.0709 28.8159 48.9845 28.8203 48.8084L28.9297 45.6256C28.9384 45.3587 28.8389 45.0995 28.6541 44.9081C28.4692 44.7156 28.2133 44.6073 27.9464 44.6073H23.3734C21.8837 44.6073 20.6719 43.3965 20.6719 41.9057V28.8901C20.6719 27.395 21.8837 26.1787 23.3734 26.1787H35.5031C36.0467 26.1787 36.4875 25.7379 36.4875 25.1943C36.4875 24.6507 36.0467 24.21 35.5031 24.21H23.3734C20.7987 24.21 18.7031 26.31 18.7031 28.8912V41.9057C18.7031 44.4804 20.7987 46.5771 23.3734 46.5771H26.927L26.8527 48.745C26.8264 49.6353 27.3 50.4446 28.0908 50.8548C28.4287 51.0309 28.793 51.1173 29.1539 51.1173C29.6384 51.1173 30.1186 50.9609 30.5277 50.6557L35.9516 46.5771H42.2067C44.7814 46.5771 46.877 44.4815 46.877 41.9057V33.9443C46.8781 33.3996 46.4373 32.9589 45.8937 32.9589Z" fill="white"/>
<path d="M51.2148 23.5821C51.0365 23.0352 50.5979 22.6262 50.0412 22.4884L47.5256 21.8616L46.1519 19.6632C45.5426 18.6854 43.9523 18.6876 43.3442 19.6632L41.9704 21.8616L39.4548 22.4884C38.8981 22.6262 38.4584 23.0352 38.2812 23.5821C38.104 24.129 38.2178 24.7185 38.5875 25.1593L40.2544 27.1434L40.0728 29.729C40.0323 30.3021 40.2861 30.8457 40.7509 31.1837C41.0397 31.3937 41.3787 31.502 41.7222 31.502C41.9311 31.502 42.1422 31.4615 42.3445 31.3795L44.7486 30.4082L47.1515 31.3795C47.6842 31.596 48.2792 31.5216 48.7451 31.1848C49.21 30.8468 49.4637 30.3032 49.4244 29.729L49.2428 27.1434L50.9097 25.1582C51.2783 24.7185 51.3931 24.129 51.2148 23.5821ZM47.4786 26.182C47.3145 26.3777 47.2325 26.6293 47.2511 26.8852L47.4261 29.368L45.1183 28.4351C45.0001 28.387 44.8744 28.3629 44.7497 28.3629C44.625 28.3629 44.4992 28.387 44.3811 28.4351L42.0744 29.368L42.2483 26.8852C42.2658 26.6304 42.1837 26.3777 42.0208 26.182L40.4206 24.2766L42.8356 23.674C43.0828 23.6116 43.2972 23.4574 43.4317 23.2409L44.7508 21.131L46.0698 23.2409C46.2054 23.4574 46.4187 23.6127 46.6659 23.674L49.0809 24.2766L47.4786 26.182Z" fill="white"/>
</svg>
