<svg width="70" height="70" viewBox="0 0 70 70" fill="none" xmlns="http://www.w3.org/2000/svg">
<path d="M0 35C0 15.67 15.67 0 35 0C54.33 0 70 15.67 70 35C70 54.33 54.33 70 35 70C15.67 70 0 54.33 0 35Z" fill="#CE8936"/>
<g clip-path="url(#clip0_47397_2541)">
<path fill-rule="evenodd" clip-rule="evenodd" d="M27.6744 41.5117C30.1456 41.5117 32.1512 43.5173 32.1512 45.9885C32.1512 48.4596 30.1456 50.4652 27.6744 50.4652C25.2033 50.4652 23.1977 48.4596 23.1977 45.9885C23.1977 43.5173 25.2033 41.5117 27.6744 41.5117ZM27.6744 43.9536C26.5512 43.9536 25.6396 44.8652 25.6396 45.9885C25.6396 47.1117 26.5512 48.0233 27.6744 48.0233C28.7977 48.0233 29.7093 47.1117 29.7093 45.9885C29.7093 44.8652 28.7977 43.9536 27.6744 43.9536Z" fill="white"/>
<path fill-rule="evenodd" clip-rule="evenodd" d="M42.3256 41.5117C44.7967 41.5117 46.8023 43.5173 46.8023 45.9885C46.8023 48.4596 44.7967 50.4652 42.3256 50.4652C39.8544 50.4652 37.8488 48.4596 37.8488 45.9885C37.8488 43.5173 39.8544 41.5117 42.3256 41.5117ZM42.3256 43.9536C41.2023 43.9536 40.2907 44.8652 40.2907 45.9885C40.2907 47.1117 41.2023 48.0233 42.3256 48.0233C43.4488 48.0233 44.3604 47.1117 44.3604 45.9885C44.3604 44.8652 43.4488 43.9536 42.3256 43.9536Z" fill="white"/>
<path fill-rule="evenodd" clip-rule="evenodd" d="M30.9302 47.2094C30.2563 47.2094 29.7093 46.6625 29.7093 45.9885C29.7093 45.3146 30.2563 44.7676 30.9302 44.7676H39.0698C39.7437 44.7676 40.2907 45.3146 40.2907 45.9885C40.2907 46.6625 39.7437 47.2094 39.0698 47.2094H30.9302Z" fill="white"/>
<path fill-rule="evenodd" clip-rule="evenodd" d="M41.1046 42.7324C41.1046 43.4064 40.5576 43.9533 39.8837 43.9533C39.2097 43.9533 38.6628 43.4064 38.6628 42.7324V28.0812C38.6628 27.5408 38.4479 27.0247 38.0669 26.6422C37.6844 26.2612 37.1683 26.0464 36.6279 26.0464H34.186C33.5121 26.0464 32.9651 25.4994 32.9651 24.8254C32.9651 24.1515 33.5121 23.6045 34.186 23.6045H36.6279C37.8147 23.6045 38.9541 24.0766 39.7942 24.9149C40.6326 25.7549 41.1046 26.8945 41.1046 28.0812V42.7324Z" fill="white"/>
<path fill-rule="evenodd" clip-rule="evenodd" d="M17.5 31.3371C17.5 30.6632 18.047 30.1162 18.7209 30.1162C19.3949 30.1162 19.9419 30.6632 19.9419 31.3371V42.7325C19.9419 43.8557 20.8535 44.7674 21.9767 44.7674H24.4186C25.0926 44.7674 25.6395 45.3143 25.6395 45.9883C25.6395 46.6623 25.0926 47.2092 24.4186 47.2092H21.9767C19.5039 47.2092 17.5 45.2053 17.5 42.7325V31.3371Z" fill="white"/>
<path fill-rule="evenodd" clip-rule="evenodd" d="M45.5814 47.2092C44.9074 47.2092 44.3605 46.6622 44.3605 45.9883C44.3605 45.3143 44.9074 44.7673 45.5814 44.7673H49.6512C49.8758 44.7673 50.0581 44.585 50.0581 44.3604V38.5129C50.0581 37.7901 49.8448 37.0836 49.4428 36.4813L45.863 31.1108C45.7865 30.9985 45.6595 30.9301 45.5244 30.9301H41.1046V43.5464C41.1046 44.2204 40.5577 44.7673 39.8837 44.7673C39.2098 44.7673 38.6628 44.2204 38.6628 43.5464V29.7092C38.6628 29.0353 39.2098 28.4883 39.8837 28.4883H45.5244C46.4767 28.4883 47.3656 28.9636 47.8947 29.7565L51.4745 35.1269C52.1435 36.1297 52.5001 37.3083 52.5001 38.5129V44.3604C52.5001 45.9345 51.2238 47.2092 49.6512 47.2092H45.5814Z" fill="white"/>
<path fill-rule="evenodd" clip-rule="evenodd" d="M50.4651 35.814C51.1391 35.814 51.686 36.3609 51.686 37.0349C51.686 37.7088 51.1391 38.2558 50.4651 38.2558H39.8837C39.2098 38.2558 38.6628 37.7088 38.6628 37.0349C38.6628 36.3609 39.2098 35.814 39.8837 35.814H50.4651Z" fill="white"/>
<path fill-rule="evenodd" clip-rule="evenodd" d="M19.5853 27.4075C19.0595 26.9859 18.9749 26.2174 19.3948 25.6901C19.8164 25.1643 20.5848 25.0796 21.1123 25.4996L24.2379 28.0018L30.8 19.9826C31.2265 19.4617 31.9965 19.3836 32.5174 19.8117C33.0383 20.2382 33.1165 21.0083 32.6883 21.5291L25.3627 30.4826C24.9395 31.0003 24.1776 31.08 23.6551 30.6634L19.5853 27.4075Z" fill="white"/>
</g>
<defs>
<clipPath id="clip0_47397_2541">
<rect width="35" height="35" fill="white" transform="translate(17.5 17.5)"/>
</clipPath>
</defs>
</svg>
