<svg width="40" height="40" viewBox="0 0 40 40" fill="none" xmlns="http://www.w3.org/2000/svg">
<ellipse cx="19.9355" cy="20" rx="19.9355" ry="20" fill="white" fill-opacity="0.1"/>
<g clip-path="url(#clip0_47228_4613)">
<path d="M24.0399 11.7646H15.8313C13.5742 11.7646 11.7271 13.6177 11.7271 15.8822V24.1177C11.7271 26.3815 13.5742 28.2352 15.8313 28.2352H24.0399C26.297 28.2352 28.1441 26.3815 28.1441 24.1177V15.8822C28.1441 13.6177 26.297 11.7646 24.0399 11.7646ZM26.776 24.1177C26.776 25.6309 25.549 26.8627 24.0399 26.8627H15.8313C14.3228 26.8627 13.0952 25.6309 13.0952 24.1177V15.8822C13.0952 14.3686 14.3228 13.1372 15.8313 13.1372H24.0399C25.549 13.1372 26.776 14.3686 26.776 15.8822V24.1177Z" fill="white"/>
<path d="M24.3793 16.5681C24.9461 16.5681 25.4056 16.1072 25.4056 15.5387C25.4056 14.9701 24.9461 14.5093 24.3793 14.5093C23.8125 14.5093 23.353 14.9701 23.353 15.5387C23.353 16.1072 23.8125 16.5681 24.3793 16.5681Z" fill="white"/>
<path d="M19.9356 15.8823C17.6684 15.8823 15.8313 17.7255 15.8313 19.9999C15.8313 22.2734 17.6684 24.1178 19.9356 24.1178C22.2021 24.1178 24.0398 22.2734 24.0398 19.9999C24.0398 17.7255 22.2021 15.8823 19.9356 15.8823ZM19.9356 22.7452C18.4246 22.7452 17.1995 21.5162 17.1995 19.9999C17.1995 18.4836 18.4246 17.2549 19.9356 17.2549C21.4466 17.2549 22.6717 18.4836 22.6717 19.9999C22.6717 21.5162 21.4466 22.7452 19.9356 22.7452Z" fill="white"/>
</g>
<defs>
<clipPath id="clip0_47228_4613">
<rect width="16.4175" height="16.4706" fill="white" transform="translate(11.7268 11.7646)"/>
</clipPath>
</defs>
</svg>
