<svg width="41" height="40" viewBox="0 0 41 40" fill="none" xmlns="http://www.w3.org/2000/svg">
<ellipse cx="20.8064" cy="20" rx="19.9355" ry="20" fill="white" fill-opacity="0.1"/>
<g clip-path="url(#clip0_47228_4620)">
<path d="M30.3838 15.0012C30.1533 14.1444 29.4778 13.469 28.6211 13.2383C27.056 12.8101 20.7957 12.8101 20.7957 12.8101C20.7957 12.8101 14.5355 12.8101 12.9705 13.222C12.1302 13.4525 11.4382 14.1445 11.2078 15.0012C10.7959 16.5662 10.7959 19.8116 10.7959 19.8116C10.7959 19.8116 10.7959 23.0735 11.2078 24.6221C11.4385 25.4788 12.1138 26.1542 12.9706 26.3849C14.552 26.8132 20.7959 26.8132 20.7959 26.8132C20.7959 26.8132 27.056 26.8132 28.6211 26.4012C29.4779 26.1707 30.1533 25.4952 30.384 24.6385C30.7958 23.0735 30.7958 19.8281 30.7958 19.8281C30.7958 19.8281 30.8123 16.5662 30.3838 15.0012ZM18.8025 22.8099V16.8134L24.0083 19.8116L18.8025 22.8099Z" fill="white"/>
</g>
<defs>
<clipPath id="clip0_47228_4620">
<rect width="21.3333" height="21.3333" fill="white" transform="translate(10.1396 9.3335)"/>
</clipPath>
</defs>
</svg>
