<svg width="1600" height="425" viewBox="0 0 1600 425" fill="none" xmlns="http://www.w3.org/2000/svg">
<g clip-path="url(#clip0_47228_4626)">
<rect width="1611" height="425" fill="#380B2F"/>
<g clip-path="url(#clip1_47228_4626)">
<path d="M119.672 256.951C123.024 258.269 126.806 258.189 130.107 256.734C136.968 253.711 140.143 245.645 137.183 238.756C134.269 231.969 126.034 228.715 119.259 231.702C112.398 234.727 109.224 242.792 112.183 249.68C113.624 253.036 116.284 255.618 119.672 256.951ZM123.014 240.221C125.154 239.278 127.68 240.221 128.629 242.43C129.582 244.646 128.56 247.242 126.352 248.215C124.211 248.787 121.743 248.344 120.737 246.005C119.785 243.789 120.806 241.194 123.014 240.221Z" fill="white" fill-opacity="0.05"/>
<path d="M98.5333 245.221C95.1463 243.888 91.4398 243.965 88.0982 245.438C81.2381 248.462 78.0637 256.528 81.0222 263.417C83.9898 270.325 92.1168 273.432 98.9465 270.471C105.807 267.447 108.981 259.382 106.023 252.492C104.581 249.136 101.921 246.554 98.5333 245.221ZM95.1908 261.952C93.0508 262.524 90.5805 262.081 89.5762 259.743C88.6242 257.526 89.646 254.931 91.8532 253.957C93.9935 253.015 96.5188 253.958 97.4678 256.167C98.4198 258.384 97.3986 260.979 95.1908 261.952Z" fill="white" fill-opacity="0.05"/>
<path d="M112.381 336.425C115.338 343.307 123.487 346.484 130.306 343.479C137.167 340.455 140.341 332.389 137.382 325.501C134.467 318.714 126.233 315.458 119.457 318.446C112.597 321.471 109.422 329.535 112.381 336.425ZM123.212 326.965C125.354 326.022 127.878 326.966 128.827 329.175C129.779 331.392 128.758 333.987 126.55 334.96C124.41 335.532 121.94 335.09 120.935 332.751C119.983 330.534 121.005 327.938 123.212 326.965Z" fill="white" fill-opacity="0.05"/>
<path d="M67.372 258.959C63.9841 257.626 60.2779 257.702 56.937 259.176C50.0756 262.199 46.9011 270.265 49.8603 277.154C52.828 284.062 60.953 287.169 67.7853 284.208C74.6462 281.183 77.82 273.118 74.8611 266.23C73.4194 262.874 70.7597 260.292 67.372 258.959ZM64.0302 275.69C61.5405 276.523 59.6688 275.786 58.4151 273.479C57.4629 271.263 58.4848 268.668 60.6931 267.695C62.8333 266.751 65.3582 267.697 66.307 269.905C67.2591 272.121 66.2373 274.716 64.0302 275.69Z" fill="white" fill-opacity="0.05"/>
<path d="M73.0291 320.929C76.3876 322.251 80.1551 322.075 83.4647 320.712C90.3249 317.688 93.4993 309.623 90.5408 302.733C87.6254 295.947 79.3915 292.692 72.6164 295.679C65.7551 298.703 62.5805 306.769 65.5404 313.658C66.9817 317.013 69.6414 319.596 73.0291 320.929ZM76.3721 304.198C78.5116 303.254 81.038 304.2 81.9861 306.407C82.9382 308.624 81.9163 311.219 79.7092 312.193C77.2196 313.026 75.3479 312.289 74.0941 309.983C73.1419 307.766 74.1636 305.172 76.3721 304.198Z" fill="white" fill-opacity="0.05"/>
<path d="M36.2121 272.696C32.8254 271.361 29.1182 271.439 25.7759 272.912C18.9157 275.936 15.7414 284.001 18.6999 290.891C21.6564 297.773 29.8058 300.95 36.6242 297.945C43.4855 294.921 46.6601 286.855 43.7008 279.966C42.2589 276.611 39.5999 274.029 36.2121 272.696ZM32.8687 289.425C30.7287 289.997 28.2588 289.555 27.254 287.216C26.302 284.999 27.3238 282.404 29.531 281.431C31.6721 280.488 34.1965 281.432 35.1461 283.641C36.0981 285.858 35.0764 288.452 32.8687 289.425Z" fill="white" fill-opacity="0.05"/>
<path d="M59.3795 316.471C56.4645 309.683 48.23 306.428 41.4548 309.416C34.5938 312.441 31.42 320.506 34.3789 327.394C37.3344 334.278 45.4846 337.454 52.303 334.449C59.165 331.425 62.3395 323.359 59.3795 316.471ZM48.5481 325.929C46.4081 326.501 43.9377 326.059 42.9335 323.72C41.9813 321.504 43.0031 318.909 45.2103 317.935C47.351 316.992 49.8757 317.936 50.8253 320.145C51.7777 322.361 50.7558 324.956 48.5481 325.929Z" fill="white" fill-opacity="0.05"/>
<path d="M5.04947 286.432C1.66568 285.098 -2.04401 285.176 -5.38514 286.65C-12.2453 289.674 -15.4197 297.739 -12.4612 304.628C-9.50468 311.511 -1.35543 314.688 5.46315 311.682C12.3233 308.658 15.4977 300.593 12.5392 293.703C11.0976 290.347 8.43778 287.765 5.04947 286.432ZM1.70763 303.163C-0.781415 303.996 -2.65311 303.26 -3.907 300.953C-4.85902 298.737 -3.83719 296.141 -1.62945 295.168C0.510047 294.224 3.03646 295.17 3.98457 297.377C4.9372 299.594 3.91536 302.19 1.70763 303.163Z" fill="white" fill-opacity="0.05"/>
<path d="M10.7076 348.403C11.1942 348.594 11.6872 348.756 12.1848 348.89C15.1519 349.685 18.2813 349.447 21.1428 348.185C28.003 345.161 31.1773 337.096 28.2193 330.207C26.7771 326.851 24.1179 324.269 20.7296 322.936C17.3426 321.602 13.6355 321.679 10.2944 323.153C3.4342 326.177 0.259817 334.243 3.21831 341.132C4.66006 344.488 7.3193 347.069 10.7076 348.403ZM14.0499 331.673C14.9506 331.275 15.9327 331.2 16.8614 331.449C17.0161 331.49 17.169 331.541 17.3196 331.6C18.3781 332.016 19.2103 332.826 19.6639 333.882C20.6159 336.099 19.5941 338.694 17.387 339.667C16.3357 340.13 15.1756 340.157 14.1161 339.74C13.0576 339.323 12.2254 338.513 11.7717 337.458C10.8205 335.24 11.8421 332.646 14.0499 331.673Z" fill="white" fill-opacity="0.05"/>
<path d="M26.387 384.907C29.7456 386.229 33.5126 386.053 36.8227 384.69C43.683 381.665 46.8568 373.6 43.8981 366.711C40.9831 359.923 32.7485 356.671 25.9732 359.657C19.1135 362.682 15.9391 370.747 18.8977 377.636C20.3397 380.991 22.9993 383.574 26.387 384.907ZM29.7289 368.176C31.8688 367.233 34.3945 368.176 35.3435 370.385C36.2955 372.602 35.2737 375.197 33.0666 376.17C30.5775 377.004 28.7058 376.267 27.4519 373.961C26.4999 371.744 27.5217 369.149 29.7289 368.176Z" fill="white" fill-opacity="0.05"/>
<path d="M-10.431 336.673C-13.8197 335.339 -17.5249 335.416 -20.8666 336.89C-27.728 339.914 -30.9025 347.979 -27.9433 354.868C-24.9763 361.777 -16.8504 364.883 -10.0183 361.922C-3.15741 358.898 0.0163743 350.832 -2.94244 343.944C-4.38359 340.589 -7.04282 338.007 -10.431 336.673ZM-13.7734 353.404C-16.2631 354.237 -18.1349 353.501 -19.3885 351.194C-20.3407 348.977 -19.3188 346.382 -17.1105 345.409C-14.9702 344.465 -12.4452 345.411 -11.4966 347.619C-10.5444 349.835 -11.5663 352.431 -13.7734 353.404Z" fill="white" fill-opacity="0.05"/>
<path d="M-4.77455 398.644C-0.977191 400.139 3.25048 399.637 5.66169 398.427C13.3451 394.573 15.6956 387.338 12.7371 380.448C9.82134 373.661 1.58814 370.409 -5.1872 373.394C-12.0487 376.419 -15.2225 384.484 -12.2634 391.374C-10.8219 394.728 -8.16226 397.311 -4.77455 398.644ZM-1.43151 381.913C0.708429 380.97 3.23456 381.914 4.18311 384.122C5.13514 386.339 4.1133 388.935 1.9054 389.908C-0.584235 390.742 -2.45532 390.005 -3.70906 387.698C-4.66108 385.481 -3.63984 382.886 -1.43151 381.913Z" fill="white" fill-opacity="0.05"/>
<path d="M239.981 323.411L180.412 285.714C180.349 285.408 151.17 217.391 151.17 217.391C147.102 207.921 135.805 203.473 126.373 207.632L-17.1543 270.905C-22.4261 273.229 -19.086 281.932 -13.3992 279.423L130.129 216.151C134.888 214.054 140.563 216.285 142.616 221.065L166.642 277.001L149.622 266.229C140.903 260.712 129.082 263.497 123.632 272.224L116.841 283.099C113.092 280.547 108.206 279.989 103.778 281.942C96.9176 284.966 93.7432 293.031 96.7013 299.92C97.8751 302.652 99.8791 304.861 102.355 306.299L74.2192 351.356C70.7898 345.603 63.2879 343.207 57.1353 345.919C50.2738 348.943 47.1 357.008 50.0587 363.897C51.98 368.372 56.4475 371.618 61.2912 372.059C58.8883 375.907 50.2229 389.539 50.2229 389.539L-5.20782 413.975C-9.96792 416.073 -15.6435 413.842 -17.6955 409.061L-60.0376 310.486C-62.1289 305.616 -59.8857 299.916 -55.0366 297.778L-35.7488 289.276C-30.4188 286.926 -33.9319 278.298 -39.5039 280.757L-58.7917 289.26C-68.2938 293.448 -72.6909 304.619 -68.5923 314.16L-26.2502 412.735C-22.1801 422.21 -10.9079 426.663 -1.45229 422.494L41.6687 403.485L16.1016 444.43C10.5829 453.267 13.2201 464.968 21.9811 470.512L112.34 527.692C121.051 533.204 132.888 530.413 138.33 521.697L222.651 386.662C225.737 381.721 217.98 376.566 214.754 381.731L130.433 516.766C127.681 521.173 121.734 522.62 117.319 519.825L26.9595 462.644C22.5109 459.829 21.1824 453.871 23.9985 449.361L131.528 277.156C134.28 272.749 140.229 271.301 144.644 274.097L235.003 331.278C239.451 334.093 240.779 340.051 237.964 344.561L227.635 361.101C224.549 366.042 232.307 371.2 235.532 366.033L245.861 349.492C251.379 340.654 248.742 328.954 239.981 323.411ZM60.9567 362.506C59.8994 362.09 59.0666 361.28 58.6131 360.224C57.661 358.007 58.6828 355.412 60.8907 354.438C63.03 353.495 65.5569 354.439 66.5047 356.648C67.4567 358.864 66.4355 361.46 64.2278 362.433C63.1775 362.897 62.0198 362.925 60.9567 362.506ZM105.256 296.246C104.304 294.029 105.326 291.434 107.533 290.461C109.032 289.801 110.693 290.057 111.893 291.023L107.297 298.385C106.398 297.946 105.666 297.201 105.256 296.246Z" fill="white" fill-opacity="0.05"/>
<path d="M150.024 291.755C143.779 287.802 135.157 289.813 131.243 296.081C127.258 302.462 129.165 310.912 135.496 314.917C141.751 318.876 150.361 316.864 154.277 310.591C158.262 304.21 156.355 295.76 150.024 291.755ZM146.38 305.66C144.94 307.337 142.622 308.409 140.474 307.05C138.457 305.773 137.859 303.065 139.14 301.011C140.372 299.038 143.155 298.426 145.046 299.622C147.063 300.899 147.662 303.607 146.38 305.66Z" fill="white" fill-opacity="0.05"/>
<path d="M168.956 336.092C175.211 340.05 183.821 338.039 187.738 331.766C191.723 325.385 189.816 316.935 183.485 312.929C177.241 308.977 168.618 310.987 164.704 317.256C160.72 323.637 162.627 332.086 168.956 336.092ZM172.601 322.187C173.833 320.214 176.616 319.601 178.507 320.797C180.524 322.074 181.122 324.782 179.841 326.835C178.4 328.512 176.082 329.584 173.935 328.225C171.918 326.948 171.32 324.24 172.601 322.187Z" fill="white" fill-opacity="0.05"/>
<path d="M221.199 352.941C225.184 346.56 223.277 338.11 216.946 334.105C210.702 330.152 202.078 332.163 198.165 338.431C194.18 344.811 196.087 353.262 202.417 357.267C208.673 361.225 217.282 359.214 221.199 352.941ZM213.303 348.01C211.862 349.687 209.545 350.758 207.396 349.4C205.379 348.123 204.781 345.415 206.063 343.361C207.294 341.388 210.078 340.776 211.968 341.972C213.986 343.249 214.584 345.957 213.303 348.01Z" fill="white" fill-opacity="0.05"/>
<path d="M146.608 346.236C142.624 352.617 144.531 361.067 150.86 365.072C157.158 369.058 165.713 367.017 169.642 360.746C173.627 354.365 171.719 345.915 165.389 341.91C159.144 337.957 150.522 339.968 146.608 346.236ZM154.505 351.167C155.736 349.194 158.52 348.581 160.411 349.777C162.428 351.054 163.026 353.762 161.745 355.815C160.304 357.492 157.987 358.564 155.839 357.205C153.822 355.928 153.223 353.219 154.505 351.167Z" fill="white" fill-opacity="0.05"/>
<path d="M203.103 381.92C207.088 375.539 205.179 367.09 198.85 363.084C192.605 359.132 183.983 361.143 180.068 367.411C176.084 373.792 177.992 382.242 184.321 386.247C190.577 390.205 199.187 388.194 203.103 381.92ZM195.206 376.99C193.615 379.098 191.646 379.562 189.3 378.379C187.282 377.102 186.684 374.394 187.966 372.341C189.197 370.368 191.981 369.755 193.872 370.951C195.89 372.229 196.488 374.937 195.206 376.99Z" fill="white" fill-opacity="0.05"/>
<path d="M95.0508 354.042C91.0663 360.423 92.9745 368.872 99.3037 372.878C104.027 375.867 113.729 375.338 118.086 368.551C121.804 362.758 120.162 353.721 113.833 349.715C107.588 345.763 98.9646 347.773 95.0508 354.042ZM102.948 358.973C104.18 357 106.964 356.387 108.854 357.583C110.872 358.86 111.47 361.568 110.188 363.621C108.597 365.731 106.628 366.193 104.282 365.011C102.265 363.734 101.666 361.026 102.948 358.973Z" fill="white" fill-opacity="0.05"/>
<path d="M128.512 375.216C124.527 381.597 126.435 390.047 132.764 394.052C137.488 397.042 148.069 396.385 151.546 389.726C155.519 382.115 153.623 374.895 147.293 370.89C141.048 366.938 132.426 368.947 128.512 375.216ZM136.409 380.147C137.64 378.174 140.424 377.561 142.315 378.757C144.332 380.034 144.93 382.742 143.649 384.795C142.058 386.905 140.089 387.368 137.743 386.185C135.725 384.908 135.127 382.2 136.409 380.147Z" fill="white" fill-opacity="0.05"/>
<path d="M185.007 410.901C188.992 404.52 187.084 396.07 180.754 392.065C174.509 388.113 165.887 390.122 161.973 396.391C157.988 402.772 159.896 411.222 166.225 415.227C172.48 419.186 181.09 417.173 185.007 410.901ZM177.11 405.97C175.519 408.079 173.55 408.542 171.204 407.36C169.187 406.083 168.588 403.375 169.87 401.321C171.102 399.348 173.885 398.736 175.776 399.932C177.793 401.209 178.392 403.917 177.11 405.97Z" fill="white" fill-opacity="0.05"/>
<path d="M99.989 397.532C103.974 391.151 102.066 382.701 95.7363 378.695C89.4911 374.743 80.8684 376.753 76.9544 383.022C72.9699 389.403 74.8781 397.852 81.2073 401.858C87.4622 405.817 96.0721 403.804 99.989 397.532ZM92.0925 392.601C90.5012 394.71 88.5328 395.173 86.1863 393.991C84.1689 392.714 83.5708 390.006 84.8521 387.953C86.0837 385.98 88.8678 385.367 90.7584 386.563C92.7759 387.839 93.3738 390.548 92.0925 392.601Z" fill="white" fill-opacity="0.05"/>
<path d="M133.45 418.707C137.434 412.325 135.527 403.875 129.198 399.87C122.953 395.918 114.33 397.927 110.416 404.196C106.431 410.577 108.338 419.027 114.669 423.032C120.924 426.992 129.533 424.979 133.45 418.707ZM125.553 413.775C123.962 415.885 121.993 416.347 119.647 415.165C117.63 413.888 117.032 411.18 118.313 409.126C119.545 407.153 122.329 406.541 124.219 407.737C126.236 409.014 126.835 411.723 125.553 413.775Z" fill="white" fill-opacity="0.05"/>
<path d="M166.911 439.881C170.896 433.5 168.988 425.05 162.658 421.045C156.413 417.093 147.791 419.102 143.877 425.371C139.892 431.752 141.799 440.202 148.129 444.207C154.384 448.166 162.994 446.154 166.911 439.881ZM159.014 434.95C157.573 436.627 155.256 437.699 153.108 436.34C151.091 435.063 150.493 432.355 151.774 430.301C153.006 428.328 155.79 427.716 157.68 428.912C159.697 430.189 160.296 432.897 159.014 434.95Z" fill="white" fill-opacity="0.05"/>
<path d="M81.8922 426.512C85.8773 420.131 83.9699 411.681 77.6395 407.676C71.3951 403.723 62.7722 405.733 58.8584 412.002C54.8733 418.383 56.7807 426.833 63.1111 430.838C69.3662 434.797 77.9759 432.785 81.8922 426.512ZM73.9953 421.581C72.555 423.258 70.2374 424.329 68.0896 422.971C66.0723 421.694 65.4742 418.986 66.7557 416.932C67.9873 414.959 70.7706 414.347 72.6612 415.543C74.6791 416.82 75.2772 419.528 73.9953 421.581Z" fill="white" fill-opacity="0.05"/>
<path d="M115.353 447.687C119.338 441.306 117.431 432.856 111.1 428.85C104.856 424.897 96.2331 426.908 92.3193 433.176C88.3342 439.557 90.2416 448.007 96.5714 452.013C102.826 455.971 111.437 453.96 115.353 447.687ZM107.457 442.755C106.016 444.432 103.698 445.503 101.551 444.145C99.5331 442.868 98.9355 440.161 100.217 438.108C101.449 436.135 104.232 435.522 106.122 436.718C108.14 437.994 108.738 440.702 107.457 442.755Z" fill="white" fill-opacity="0.05"/>
</g>
<path opacity="0.1" d="M1271.72 276.98C1395.43 62.7045 1669.42 -10.7112 1883.7 113.001C2097.97 236.712 2171.39 510.705 2047.68 724.98C1923.97 939.255 2520.16 1485.63 1435.7 888.959C1221.42 765.247 759.72 1163.79 1271.72 276.98Z" stroke="white" stroke-opacity="0.23" stroke-width="32"/>
</g>
<defs>
<clipPath id="clip0_47228_4626">
<rect width="1611" height="425" fill="white"/>
</clipPath>
<clipPath id="clip1_47228_4626">
<rect width="317.772" height="317.772" fill="white" transform="translate(-31.7544 161) rotate(15)"/>
</clipPath>
</defs>
</svg>
