<svg width="340" height="65" viewBox="0 0 340 65" fill="none" xmlns="http://www.w3.org/2000/svg">
<path d="M74.2307 47.3825V17.1708C74.2307 15.7032 75.4959 14.4887 76.9128 14.4887C77.7225 14.4887 78.5322 14.8936 79.0383 15.6526L96.143 39.1337V17.1202C96.143 15.7032 97.3576 14.4887 98.7745 14.4887C100.191 14.4887 101.457 15.7032 101.457 17.1202V47.3825C101.457 48.8501 100.242 50.014 98.7239 50.014C97.813 50.014 97.0539 49.5079 96.5479 48.8501L79.4937 25.2171V47.3825C79.4937 48.8501 78.3298 50.014 76.9128 50.014C75.3946 50.014 74.2307 48.8501 74.2307 47.3825ZM105.403 36.7553C105.403 29.468 111.274 23.5978 118.561 23.5978C125.848 23.5978 131.719 29.468 131.719 36.7553C131.719 44.0931 125.848 50.014 118.561 50.014C111.274 50.014 105.403 44.0931 105.403 36.7553ZM126.86 36.7553C126.86 32.1501 123.116 28.4053 118.561 28.4053C113.905 28.4053 110.16 32.1501 110.16 36.7553C110.16 41.411 113.905 45.1558 118.561 45.1558C123.116 45.1558 126.86 41.411 126.86 36.7553ZM134.852 35.2877C134.852 28.8608 140.064 23.5978 146.542 23.5978C147.857 23.5978 148.92 24.6605 148.92 25.9762C148.92 27.292 147.857 28.4053 146.542 28.4053C142.645 28.4053 139.609 31.4417 139.609 35.2877V47.6355C139.609 49.0019 138.597 50.1152 137.18 50.1152C135.864 50.1152 134.852 48.9513 134.852 47.6355V35.2877ZM162.102 50.014C154.815 50.014 148.944 44.0931 148.944 36.7553C148.944 29.468 154.815 23.5978 162.102 23.5978C169.389 23.5978 175.259 29.468 175.259 36.7553V47.5849C175.259 48.8501 174.146 50.014 172.78 50.014C171.514 50.014 170.351 48.8501 170.351 47.5849V47.0282C168.124 48.9007 165.239 50.014 162.102 50.014ZM153.701 36.7553C153.701 41.411 157.446 45.1558 162.102 45.1558C166.656 45.1558 170.401 41.411 170.401 36.7553C170.401 32.1501 166.656 28.4053 162.102 28.4053C157.446 28.4053 153.701 32.1501 153.701 36.7553Z" fill="white"/>
<path d="M200.552 29.6704H216.999V17.1202C216.999 15.7032 218.214 14.4887 219.58 14.4887C221.048 14.4887 222.161 15.7032 222.161 17.1202V47.3825C222.161 48.8501 221.048 49.9634 219.58 49.9634C218.214 49.9634 216.999 48.8501 216.999 47.3825V34.8828H200.552V47.3825C200.552 48.8501 199.338 49.9634 197.87 49.9634C196.403 49.9634 195.289 48.8501 195.289 47.3825V17.1202C195.289 15.7032 196.403 14.4887 197.87 14.4887C199.338 14.4887 200.552 15.7032 200.552 17.1202V29.6704ZM226.116 36.7553C226.116 29.5186 231.986 23.6484 239.324 23.6484C246.004 23.6484 251.52 28.6583 252.279 35.0853C252.684 37.1095 252.026 38.5265 249.496 38.5265H231.278C231.986 42.2713 235.225 45.1558 239.324 45.1558C241.602 45.1558 243.676 44.2449 245.195 42.7267C245.701 42.2207 246.308 42.0183 246.966 42.0183C247.522 42.0183 248.13 42.2207 248.636 42.7267C249.547 43.587 249.547 45.1558 248.636 46.1173C246.257 48.4958 242.917 50.014 239.324 50.014C231.986 50.014 226.116 44.0931 226.116 36.7553ZM247.371 35.0853C246.611 31.3404 243.322 28.4559 239.324 28.4559C235.276 28.4559 231.986 31.3404 231.278 35.0853H247.371ZM267.666 50.014C260.379 50.014 254.509 44.0931 254.509 36.7553C254.509 29.468 260.379 23.5978 267.666 23.5978C274.954 23.5978 280.824 29.468 280.824 36.7553V47.5849C280.824 48.8501 279.71 50.014 278.344 50.014C277.079 50.014 275.915 48.8501 275.915 47.5849V47.0282C273.688 48.9007 270.804 50.014 267.666 50.014ZM259.266 36.7553C259.266 41.411 263.011 45.1558 267.666 45.1558C272.221 45.1558 275.966 41.411 275.966 36.7553C275.966 32.1501 272.221 28.4053 267.666 28.4053C263.011 28.4053 259.266 32.1501 259.266 36.7553ZM285.106 16.9178C285.106 15.602 286.118 14.4887 287.433 14.4887C288.85 14.4887 289.862 15.6526 289.862 16.9178V47.5849C289.862 48.8501 288.85 49.9634 287.433 49.9634C286.118 49.9634 285.106 48.9007 285.106 47.5849V16.9178ZM299.12 16.9178C299.12 15.602 300.233 14.4887 301.448 14.4887C302.865 14.4887 303.978 15.6526 303.978 16.9178V23.5978H308.179C309.545 23.5978 310.658 24.7111 310.658 26.0268C310.658 27.292 309.545 28.4053 308.179 28.4053H303.978V47.5849C303.978 48.8501 302.865 49.9634 301.448 49.9634C300.233 49.9634 299.12 48.9007 299.12 47.5849V28.4053H294.768C293.503 28.4053 292.44 27.292 292.44 26.0268C292.44 24.7111 293.503 23.5978 294.768 23.5978H299.12V16.9178ZM318.035 26.5835C319.705 24.7617 322.185 23.5978 324.917 23.5978C331.344 23.5978 336.607 28.8608 336.607 35.2877V47.5849C336.607 48.9007 335.544 49.9634 334.229 49.9634C332.913 49.9634 331.8 48.8501 331.8 47.5849V35.2877C331.8 31.4417 328.662 28.4053 324.917 28.4053C321.172 28.4053 318.035 31.4417 318.035 35.2877V47.5849C318.035 48.9007 316.922 49.9634 315.606 49.9634C314.29 49.9634 313.227 48.8501 313.227 47.5849V16.9178C313.227 15.602 314.29 14.4887 315.606 14.4887C316.922 14.4887 318.035 15.602 318.035 16.9178V26.5835Z" fill="#CE8936"/>
<path d="M57.7511 23.4034V35.6367C57.7511 37.1532 56.548 38.3828 55.0628 38.3828H46.7859C45.1923 38.3828 43.6926 38.7951 42.3835 39.5232C42.2533 39.5955 42.1231 39.6703 41.9953 39.7498C41.8675 39.8294 41.7421 39.909 41.6192 39.9958C41.5227 40.0633 41.4287 40.1308 41.3347 40.2031C41.2744 40.2441 41.2165 40.2899 41.1563 40.3357C41.0719 40.4032 40.9875 40.4683 40.9055 40.5382C40.6765 40.7311 40.4571 40.9336 40.2498 41.1482C38.5765 42.86 37.5422 45.2179 37.5422 47.8266V56.2916C37.5422 57.8081 36.3416 59.0377 34.8564 59.0377H22.8931C22.8424 59.0377 22.787 59.0353 22.7364 59.0329C22.6858 59.0305 22.6351 59.0256 22.5869 59.0184C21.2488 58.8665 20.2073 57.7044 20.2073 56.2916V47.8266C20.2073 42.6093 16.0724 38.3804 10.9708 38.3804H2.69389C1.62824 38.3804 0.704824 37.7439 0.273259 36.8253C0.215395 36.7048 0.167181 36.5794 0.128606 36.454C0.0490433 36.1961 0.00805664 35.9188 0.00805664 35.6367V23.4034C0.00805664 23.3504 0.00806135 23.2949 0.0128833 23.2443C0.0128833 23.1912 0.020101 23.1406 0.0273339 23.09V23.0827C0.181637 21.7181 1.31722 20.6573 2.69389 20.6573H10.9708C16.0724 20.6573 20.2073 16.4284 20.2073 11.2111V2.7437C20.2073 1.2296 21.4079 0 22.8907 0H34.854C34.9046 0 34.96 0.00240833 35.0107 0.00481931C35.0637 0.00723029 35.1143 0.0120517 35.1626 0.0192846H35.1698C35.3844 0.0458054 35.5893 0.0964422 35.7846 0.168772C35.9052 0.21458 36.0233 0.270029 36.1342 0.330303C36.2475 0.3954 36.3584 0.465322 36.4597 0.544884C36.5272 0.597926 36.5947 0.653379 36.6574 0.711242C36.7562 0.800449 36.8454 0.896888 36.9298 1.00538C36.9829 1.07289 37.0359 1.14039 37.0817 1.21272C37.1275 1.28505 37.1733 1.35739 37.2119 1.43454C37.2746 1.55267 37.3276 1.67322 37.3734 1.79859C37.3903 1.84199 37.4048 1.88538 37.4144 1.92637C37.494 2.18435 37.535 2.4592 37.535 2.74128V11.2062C37.535 16.4236 41.6722 20.6525 46.7739 20.6525H55.0507C55.7909 20.6525 56.4612 20.9587 56.9482 21.4577C57.0085 21.5204 57.0663 21.5831 57.1242 21.653C57.2616 21.8218 57.3773 22.0074 57.4714 22.21C57.5075 22.2895 57.5437 22.3715 57.5751 22.4559C57.6811 22.75 57.739 23.0683 57.739 23.401L57.7511 23.4034Z" fill="#CE8936"/>
<path d="M41.1488 26.8561C39.4804 26.0412 38.557 24.6404 38.4147 22.7478C38.3665 22.0727 38.5064 21.4218 38.5016 20.807C38.4726 18.7359 37.7903 16.2526 36.6692 14.5191C36.6692 14.5191 36.6354 14.4685 36.5969 14.4082C36.592 14.401 36.5872 14.3937 36.5824 14.3913V14.3865C36.5221 14.2901 36.4426 14.1743 36.404 14.1406L36.4281 14.319C36.4908 18.3912 35.5722 22.6248 33.5132 26.1208C32.6621 27.5649 31.4422 29.1538 30.3018 30.3737C27.4978 33.3826 24.1924 34.8557 22.6373 39.0605C20.207 45.628 26.0681 49.394 26.9047 55.1514C27.1916 57.1428 27.1096 59.0813 26.2417 60.9112C25.3544 62.7773 23.7584 63.9828 21.8296 64.5783C21.0629 64.817 19.9273 65.0629 19.1028 64.9858C20.6892 63.9949 21.7428 62.2107 21.7428 60.1735C21.7428 59.3875 21.5861 58.6401 21.3016 57.9602C20.5542 60.1686 18.5024 61.7526 16.0915 61.7526C15.9661 61.7526 15.8431 61.7478 15.7202 61.7382V61.7334C16.5954 61.3235 17.2053 60.4145 17.2053 59.3634C17.2053 58.9872 17.1282 58.628 16.9859 58.3074C16.9715 58.264 16.957 58.2206 16.9425 58.1772C16.4507 56.7499 15.4526 55.8168 14.4375 54.838C13.6226 54.0496 12.7981 53.2298 12.2219 52.0918C12.07 51.7929 11.9349 51.477 11.8216 51.1299C10.2256 46.2283 14.5605 44.302 15.3031 39.9043C15.9082 36.3361 13.8661 31.7408 13.0536 28.1846C12.4919 25.7085 12.2315 23.9002 12.651 21.3542C13.4635 16.419 16.7497 11.8236 21.2678 9.83458C25.3376 8.0384 31.2927 8.13243 34.8899 11.0184C35.6059 11.5946 35.5794 11.8116 36.4811 12.2697C37.9398 13.0171 38.7933 13.873 39.5696 15.3364C40.5436 17.1664 40.8956 19.2904 40.481 21.3518C40.3146 22.1933 39.707 22.8563 39.8276 23.7604C39.9072 24.3752 40.7896 26.3088 41.1464 26.8585L41.1488 26.8561Z" fill="#491F40"/>
<path d="M40.1677 30.3931C40.0182 30.9235 40.7946 31.4563 40.8235 31.9C40.8597 32.522 40.2256 32.6353 39.9098 33.0114C39.876 33.1657 40.3751 33.4768 40.4474 33.7179C40.7416 34.6895 39.9556 34.728 39.6518 35.3718C39.3576 35.989 39.5529 36.9052 39.3842 37.6381C38.7428 40.4276 34.8973 38.8098 32.9999 38.9858C29.6583 39.2969 27.4161 44.4057 27.228 47.4002C27.0303 50.5344 28.2261 53.647 30.126 56.046C29.0025 55.9471 27.9272 55.5975 26.9001 55.1539C26.0659 49.3965 20.2048 45.6281 22.6351 39.063C24.1902 34.8607 27.4956 33.3875 30.2972 30.3786C31.4352 29.1563 32.6575 27.5698 33.5086 26.1233C35.57 22.6297 36.4862 18.3937 36.4235 14.3239L36.3994 14.1455C36.4355 14.1793 36.5151 14.295 36.5778 14.3914C36.5778 14.3914 36.585 14.4059 36.5898 14.4107C36.6284 14.471 36.6622 14.5216 36.6622 14.5216C37.7857 16.2527 38.468 18.7384 38.4945 20.8095C38.5018 21.4243 38.3595 22.0752 38.4077 22.7503C38.55 24.6453 39.4734 26.0461 41.1418 26.8586C41.6216 27.6012 43.1188 28.1051 42.0097 29.1466C41.6457 29.4866 40.2594 30.0483 40.1605 30.3931H40.1677Z" fill="#FCFCFC"/>
</svg>
