<svg width="40" height="40" viewBox="0 0 40 40" fill="none" xmlns="http://www.w3.org/2000/svg">
<path d="M20 0.5C30.7696 0.5 39.5 9.23045 39.5 20C39.5 30.7696 30.7696 39.5 20 39.5C9.23045 39.5 0.5 30.7696 0.5 20C0.5 9.23045 9.23045 0.5 20 0.5Z" stroke="#CE8936"/>
<path d="M11.1111 26.5C10.7963 26.5 10.5326 26.396 10.32 26.188C10.1074 25.98 10.0007 25.7229 10 25.4167C9.99926 25.1104 10.1059 24.8533 10.32 24.6453C10.5341 24.4373 10.7978 24.3333 11.1111 24.3333H28.8889C29.2037 24.3333 29.4678 24.4373 29.6811 24.6453C29.8944 24.8533 30.0007 25.1104 30 25.4167C29.9993 25.7229 29.8926 25.9803 29.68 26.1891C29.4674 26.3978 29.2037 26.5014 28.8889 26.5H11.1111ZM11.1111 21.0833C10.7963 21.0833 10.5326 20.9793 10.32 20.7713C10.1074 20.5633 10.0007 20.3062 10 20C9.99926 19.6938 10.1059 19.4367 10.32 19.2287C10.5341 19.0207 10.7978 18.9167 11.1111 18.9167H28.8889C29.2037 18.9167 29.4678 19.0207 29.6811 19.2287C29.8944 19.4367 30.0007 19.6938 30 20C29.9993 20.3062 29.8926 20.5637 29.68 20.7724C29.4674 20.9811 29.2037 21.0848 28.8889 21.0833H11.1111ZM11.1111 15.6667C10.7963 15.6667 10.5326 15.5627 10.32 15.3547C10.1074 15.1467 10.0007 14.8896 10 14.5833C9.99926 14.2771 10.1059 14.02 10.32 13.812C10.5341 13.604 10.7978 13.5 11.1111 13.5H28.8889C29.2037 13.5 29.4678 13.604 29.6811 13.812C29.8944 14.02 30.0007 14.2771 30 14.5833C29.9993 14.8896 29.8926 15.147 29.68 15.3557C29.4674 15.5645 29.2037 15.6681 28.8889 15.6667H11.1111Z" fill="#CE8936"/>
</svg>
