<svg width="257" height="50" viewBox="0 0 257 50" fill="none" xmlns="http://www.w3.org/2000/svg">
<path d="M56.0551 35.5336V12.7169C56.0551 11.6086 57.0106 10.6913 58.0807 10.6913C58.6922 10.6913 59.3037 10.9971 59.6859 11.5704L72.6039 29.3039V12.6787C72.6039 11.6086 73.5212 10.6913 74.5913 10.6913C75.6614 10.6913 76.6169 11.6086 76.6169 12.6787V35.5336C76.6169 36.642 75.6997 37.521 74.5531 37.521C73.8651 37.521 73.2919 37.1388 72.9097 36.642L60.0299 18.7937V35.5336C60.0299 36.642 59.1509 37.521 58.0807 37.521C56.9342 37.521 56.0551 36.642 56.0551 35.5336ZM79.5977 27.5077C79.5977 22.0041 84.0311 17.5707 89.5346 17.5707C95.0381 17.5707 99.4715 22.0041 99.4715 27.5077C99.4715 33.0494 95.0381 37.521 89.5346 37.521C84.0311 37.521 79.5977 33.0494 79.5977 27.5077ZM95.8025 27.5077C95.8025 24.0297 92.9743 21.2015 89.5346 21.2015C86.0185 21.2015 83.1903 24.0297 83.1903 27.5077C83.1903 31.0238 86.0185 33.852 89.5346 33.852C92.9743 33.852 95.8025 31.0238 95.8025 27.5077ZM101.838 26.3993C101.838 21.5455 105.774 17.5707 110.666 17.5707C111.66 17.5707 112.463 18.3733 112.463 19.367C112.463 20.3607 111.66 21.2015 110.666 21.2015C107.723 21.2015 105.43 23.4947 105.43 26.3993V35.7247C105.43 36.7566 104.666 37.5974 103.596 37.5974C102.602 37.5974 101.838 36.7184 101.838 35.7247V26.3993ZM122.418 37.521C116.914 37.521 112.481 33.0494 112.481 27.5077C112.481 22.0041 116.914 17.5707 122.418 17.5707C127.921 17.5707 132.355 22.0041 132.355 27.5077V35.6865C132.355 36.642 131.514 37.521 130.482 37.521C129.526 37.521 128.647 36.642 128.647 35.6865V35.2661C126.966 36.6802 124.787 37.521 122.418 37.521ZM116.073 27.5077C116.073 31.0238 118.902 33.852 122.418 33.852C125.857 33.852 128.686 31.0238 128.686 27.5077C128.686 24.0297 125.857 21.2015 122.418 21.2015C118.902 21.2015 116.073 24.0297 116.073 27.5077Z" fill="#491F40"/>
<path d="M151.457 22.157H163.878V12.6787C163.878 11.6086 164.795 10.6913 165.827 10.6913C166.935 10.6913 167.776 11.6086 167.776 12.6787V35.5336C167.776 36.642 166.935 37.4828 165.827 37.4828C164.795 37.4828 163.878 36.642 163.878 35.5336V26.0936H151.457V35.5336C151.457 36.642 150.539 37.4828 149.431 37.4828C148.323 37.4828 147.482 36.642 147.482 35.5336V12.6787C147.482 11.6086 148.323 10.6913 149.431 10.6913C150.539 10.6913 151.457 11.6086 151.457 12.6787V22.157ZM170.763 27.5077C170.763 22.0424 175.197 17.609 180.738 17.609C185.783 17.609 189.949 21.3926 190.522 26.2464C190.828 27.7752 190.331 28.8453 188.42 28.8453H174.661C175.197 31.6735 177.643 33.852 180.738 33.852C182.458 33.852 184.025 33.1641 185.172 32.0175C185.554 31.6353 186.013 31.4824 186.509 31.4824C186.93 31.4824 187.388 31.6353 187.771 32.0175C188.459 32.6672 188.459 33.852 187.771 34.5782C185.974 36.3744 183.452 37.521 180.738 37.521C175.197 37.521 170.763 33.0494 170.763 27.5077ZM186.815 26.2464C186.242 23.4182 183.758 21.2398 180.738 21.2398C177.681 21.2398 175.197 23.4182 174.661 26.2464H186.815ZM202.143 37.521C196.639 37.521 192.206 33.0494 192.206 27.5077C192.206 22.0041 196.639 17.5707 202.143 17.5707C207.646 17.5707 212.08 22.0041 212.08 27.5077V35.6865C212.08 36.642 211.239 37.521 210.207 37.521C209.252 37.521 208.373 36.642 208.373 35.6865V35.2661C206.691 36.6802 204.513 37.521 202.143 37.521ZM195.799 27.5077C195.799 31.0238 198.627 33.852 202.143 33.852C205.583 33.852 208.411 31.0238 208.411 27.5077C208.411 24.0297 205.583 21.2015 202.143 21.2015C198.627 21.2015 195.799 24.0297 195.799 27.5077ZM215.314 12.5259C215.314 11.5322 216.078 10.6913 217.072 10.6913C218.142 10.6913 218.906 11.5704 218.906 12.5259V35.6865C218.906 36.642 218.142 37.4828 217.072 37.4828C216.078 37.4828 215.314 36.6802 215.314 35.6865V12.5259ZM225.898 12.5259C225.898 11.5322 226.739 10.6913 227.656 10.6913C228.726 10.6913 229.567 11.5704 229.567 12.5259V17.5707H232.739C233.771 17.5707 234.612 18.4116 234.612 19.4053C234.612 20.3607 233.771 21.2015 232.739 21.2015H229.567V35.6865C229.567 36.642 228.726 37.4828 227.656 37.4828C226.739 37.4828 225.898 36.6802 225.898 35.6865V21.2015H222.611C221.655 21.2015 220.853 20.3607 220.853 19.4053C220.853 18.4116 221.655 17.5707 222.611 17.5707H225.898V12.5259ZM240.183 19.8257C241.444 18.4498 243.317 17.5707 245.38 17.5707C250.234 17.5707 254.209 21.5455 254.209 26.3993V35.6865C254.209 36.6802 253.406 37.4828 252.413 37.4828C251.419 37.4828 250.578 36.642 250.578 35.6865V26.3993C250.578 23.4947 248.209 21.2015 245.38 21.2015C242.552 21.2015 240.183 23.4947 240.183 26.3993V35.6865C240.183 36.6802 239.342 37.4828 238.348 37.4828C237.355 37.4828 236.552 36.642 236.552 35.6865V12.5259C236.552 11.5322 237.355 10.6913 238.348 10.6913C239.342 10.6913 240.183 11.5322 240.183 12.5259V19.8257Z" fill="#CE8936"/>
<path d="M43.6091 17.6749V26.9138C43.6091 28.0591 42.7005 28.9878 41.5789 28.9878H35.3279C34.1243 28.9878 32.9918 29.2991 32.0031 29.849C31.9047 29.9036 31.8064 29.9601 31.7099 30.0202C31.6134 30.0803 31.5187 30.1404 31.4259 30.2059C31.353 30.2569 31.282 30.3079 31.211 30.3625C31.1655 30.3934 31.1218 30.428 31.0762 30.4626C31.0125 30.5136 30.9488 30.5628 30.8869 30.6156C30.7139 30.7613 30.5482 30.9142 30.3916 31.0763C29.128 32.3691 28.3468 34.1498 28.3468 36.12V42.513C28.3468 43.6583 27.4401 44.5869 26.3184 44.5869H17.2834C17.2452 44.5869 17.2033 44.5851 17.1651 44.5832C17.1268 44.5814 17.0886 44.5778 17.0522 44.5723C16.0416 44.4576 15.255 43.58 15.255 42.513V36.12C15.255 32.1797 12.1322 28.9859 8.27935 28.9859H2.02842C1.22361 28.9859 0.526218 28.5052 0.200288 27.8115C0.156588 27.7205 0.120175 27.6258 0.0910419 27.5311C0.0309543 27.3363 0 27.1269 0 26.9138V17.6749C0 17.6348 3.55641e-06 17.593 0.00364523 17.5547C0.00364523 17.5147 0.00909619 17.4764 0.0145587 17.4382V17.4327C0.131092 16.4021 0.988718 15.601 2.02842 15.601H8.27935C12.1322 15.601 15.255 12.4072 15.255 8.46691V2.07212C15.255 0.928636 16.1618 7.62939e-06 17.2816 7.62939e-06H26.3166C26.3548 7.62939e-06 26.3967 0.00182647 26.4349 0.00364731C26.475 0.00546815 26.5132 0.00910938 26.5496 0.0145719H26.5551C26.7172 0.0346011 26.8719 0.0728434 27.0194 0.127469C27.1105 0.162065 27.1997 0.203941 27.2834 0.249462C27.369 0.298624 27.4528 0.351431 27.5293 0.411519C27.5802 0.451577 27.6312 0.493457 27.6786 0.537157C27.7532 0.604528 27.8206 0.677362 27.8843 0.7593C27.9244 0.810283 27.9644 0.861264 27.999 0.915889C28.0336 0.970515 28.0682 1.02514 28.0974 1.08341C28.1447 1.17263 28.1848 1.26367 28.2194 1.35835C28.2321 1.39113 28.243 1.4239 28.2503 1.45486C28.3104 1.64969 28.3414 1.85726 28.3414 2.0703V8.46327C28.3414 12.4036 31.4659 15.5973 35.3188 15.5973H41.5697C42.1287 15.5973 42.6349 15.8286 43.0027 16.2055C43.0483 16.2528 43.092 16.3002 43.1357 16.353C43.2395 16.4804 43.3269 16.6206 43.3979 16.7736C43.4252 16.8337 43.4525 16.8956 43.4762 16.9593C43.5563 17.1814 43.6 17.4218 43.6 17.6731L43.6091 17.6749Z" fill="#CE8936"/>
<path d="M31.0706 20.2823C29.8106 19.6669 29.1132 18.609 29.0058 17.1796C28.9694 16.6698 29.075 16.1782 29.0714 15.7138C29.0495 14.1497 28.5342 12.2743 27.6875 10.9651C27.6875 10.9651 27.662 10.9269 27.6329 10.8813C27.6292 10.8759 27.6256 10.8704 27.622 10.8686V10.865C27.5764 10.7921 27.5163 10.7047 27.4872 10.6792L27.5054 10.814C27.5528 13.8894 26.859 17.0868 25.304 19.727C24.6613 20.8177 23.7399 22.0176 22.8787 22.9389C20.761 25.2113 18.2647 26.3239 17.0902 29.4994C15.2548 34.4594 19.6813 37.3035 20.3131 41.6517C20.5298 43.1557 20.4679 44.6197 19.8124 46.0017C19.1423 47.411 17.9369 48.3214 16.4802 48.7712C15.9012 48.9514 15.0436 49.1372 14.4209 49.0789C15.619 48.3305 16.4147 46.9831 16.4147 45.4445C16.4147 44.8509 16.2963 44.2865 16.0815 43.773C15.517 45.4409 13.9675 46.6372 12.1466 46.6372C12.052 46.6372 11.9591 46.6335 11.8662 46.6262V46.6226C12.5272 46.313 12.9879 45.6266 12.9879 44.8327C12.9879 44.5486 12.9296 44.2774 12.8222 44.0352C12.8112 44.0024 12.8003 43.9696 12.7894 43.9369C12.418 42.8589 11.6641 42.1543 10.8976 41.415C10.2821 40.8196 9.65939 40.2005 9.22421 39.3411C9.1095 39.1153 9.00752 38.8767 8.92194 38.6145C7.71655 34.9128 10.9904 33.4579 11.5512 30.1367C12.0083 27.4419 10.466 23.9714 9.85239 21.2856C9.42814 19.4156 9.23148 18.05 9.5483 16.1272C10.1619 12.3999 12.6437 8.92941 16.056 7.42721C19.1296 6.07069 23.627 6.1417 26.3437 8.32125C26.8845 8.75643 26.8645 8.9203 27.5455 9.26626C28.6471 9.83072 29.2917 10.4771 29.878 11.5824C30.6136 12.9644 30.8794 14.5685 30.5663 16.1254C30.4406 16.7608 29.9818 17.2616 30.0728 17.9444C30.1329 18.4087 30.7993 19.869 31.0688 20.2842L31.0706 20.2823Z" fill="#491F40"/>
<path d="M30.3297 22.9535C30.2168 23.3541 30.8031 23.7565 30.825 24.0915C30.8523 24.5613 30.3734 24.6469 30.1349 24.931C30.1094 25.0475 30.4863 25.2824 30.5409 25.4645C30.7631 26.1983 30.1695 26.2274 29.94 26.7136C29.7179 27.1797 29.8654 27.8716 29.7379 28.4251C29.2536 30.5319 26.3494 29.3101 24.9164 29.443C22.3927 29.6779 20.6993 33.5362 20.5573 35.7977C20.408 38.1648 21.3111 40.5155 22.7459 42.3273C21.8974 42.2526 21.0853 41.9886 20.3096 41.6535C19.6796 37.3054 15.2532 34.4594 17.0886 29.5013C18.263 26.3275 20.7594 25.215 22.8752 22.9426C23.7346 22.0194 24.6578 20.8213 25.3005 19.7288C26.8574 17.0904 27.5493 13.8912 27.502 10.8176L27.4837 10.6829C27.511 10.7084 27.5711 10.7958 27.6185 10.8686C27.6185 10.8686 27.6239 10.8795 27.6276 10.8832C27.6567 10.9287 27.6822 10.9669 27.6822 10.9669C28.5307 12.2743 29.046 14.1516 29.0661 15.7157C29.0715 16.18 28.9641 16.6716 29.0005 17.1815C29.1079 18.6126 29.8053 19.6705 31.0653 20.2842C31.4277 20.845 32.5584 21.2255 31.7208 22.0122C31.4459 22.2689 30.3989 22.6931 30.3243 22.9535H30.3297Z" fill="#FCFCFC"/>
</svg>
