<svg width="1600" height="240" viewBox="0 0 1600 240" fill="none" xmlns="http://www.w3.org/2000/svg">
<g clip-path="url(#clip0_47397_4571)">
<rect width="1600" height="240" fill="url(#paint0_linear_47397_4571)"/>
<g opacity="0.2" clip-path="url(#clip1_47397_4571)">
<path d="M-71.2024 243.339C-19.5996 144.359 76.8981 115.132 77.9043 114.843L79.5812 120.66C78.575 120.949 -23.0015 151.811 -71.5378 257.761L-77.0479 255.213C-75.1792 251.175 -73.2627 247.185 -71.2503 243.339H-71.2024Z" fill="#D39955"/>
<path d="M61.0386 125.563C61.0386 125.563 278.614 105.133 293.754 65.1372C308.895 25.1896 177.516 13.2678 61.0386 125.563Z" fill="#D39955"/>
<path d="M17.3896 148.301C17.3896 148.301 125.722 64.8007 110.006 12.066C94.2907 -40.6687 18.875 93.163 17.3896 148.253V148.301Z" fill="#D39955"/>
<path d="M-35.2194 192.527C-35.2194 192.527 26.9723 92.8265 -13.4666 61.3395C-53.9056 29.8525 -45.0416 163.396 -35.2194 192.527Z" fill="#D39955"/>
<path d="M17.3896 148.301C17.3896 148.301 154.087 139.023 154.518 190.604C154.949 242.137 17.3896 148.301 17.3896 148.301Z" fill="#D39955"/>
<path d="M-44.9458 206.805C-44.9458 206.805 94.3865 203.488 89.8347 253.578C85.3309 303.669 -44.9458 206.805 -44.9458 206.805Z" fill="#D39955"/>
<path d="M277.655 57.4458L227.586 72.7326L177.66 88.2117L127.83 104.027L78 120.035C85.9536 116.478 94.0989 113.209 102.148 109.844L126.632 100.47C143.019 94.3649 159.597 88.8366 176.223 83.5487C192.896 78.357 209.666 73.4536 226.58 69.1272C243.493 64.7527 260.454 60.6666 277.655 57.3496V57.4458Z" fill="white"/>
<path d="M94.9612 25.6703C88.7325 34.2752 82.4079 42.7358 76.3229 51.3406C70.2858 59.9935 64.2966 68.6465 58.6428 77.4917C52.8453 86.2888 47.3832 95.2782 41.969 104.316C39.2379 108.834 36.6027 113.401 34.0153 118.016L26.1096 131.813C27.8345 126.765 29.9427 121.91 31.9551 116.959C34.1591 112.103 36.411 107.344 38.8067 102.537C43.5501 93.0188 48.9643 83.8371 54.7139 74.8958C60.5594 66.0025 66.7402 57.3496 73.496 49.1293C80.2039 40.9091 87.2951 32.9772 95.0571 25.6703H94.9612Z" fill="white"/>
<path d="M26.4451 147.724C45.3709 149.022 64.0571 152.676 82.3601 157.531C100.615 162.531 118.631 168.684 135.688 177.048C117.337 172.241 99.3214 166.953 81.1143 162.146C62.9551 157.195 44.7001 152.772 26.4451 147.724Z" fill="white"/>
<path d="M-38.0464 209.641C-27.745 210.843 -17.5873 212.91 -7.52552 215.313C2.58421 217.669 12.5023 220.745 22.2766 224.062C32.051 227.475 41.7295 231.225 51.1205 235.6C55.8161 237.811 60.4637 240.022 65.1113 242.378C69.663 244.877 74.2627 247.281 78.6708 250.021L49.731 239.061C40.0525 235.552 30.4219 231.946 20.6955 228.629C11.017 225.216 1.24264 222.091 -8.5317 218.871L-38.0464 209.641Z" fill="white"/>
</g>
<g opacity="0.2" clip-path="url(#clip2_47397_4571)">
<path d="M1513.38 411.011C1546.88 304.533 1499.32 215.632 1498.81 214.717L1493.51 217.644C1494.02 218.559 1544.02 312.207 1503.42 421.446L1509.12 423.54C1510.65 419.364 1512.12 415.187 1513.42 411.045L1513.38 411.011Z" fill="#D39955"/>
<path d="M1503.15 234.222C1503.15 234.222 1363.75 65.9272 1381.33 26.9399C1398.87 -12.0134 1500.2 72.4553 1503.15 234.222Z" fill="#D39955"/>
<path d="M1517.94 281.165C1517.94 281.165 1500.38 145.519 1548.78 119.342C1597.18 93.1659 1555.88 241.126 1517.97 281.131L1517.94 281.165Z" fill="#D39955"/>
<path d="M1523.87 349.638C1523.87 349.638 1550.39 235.163 1601.25 241.493C1652.11 247.823 1551.41 335.984 1523.87 349.638Z" fill="#D39955"/>
<path d="M1517.94 281.165C1517.94 281.165 1427.84 177.945 1391.06 214.114C1354.32 250.248 1517.94 281.165 1517.94 281.165Z" fill="#D39955"/>
<path d="M1398.15 32.8849L1422.74 79.0988L1447.1 125.347L1471.15 171.765L1495.07 218.32C1491.96 210.18 1488.51 202.109 1485.2 194.038L1474.52 170.097C1467.25 154.193 1459.43 138.562 1451.42 123.066C1443.3 107.605 1434.91 92.2797 1426.01 77.2609C1417.14 62.208 1408.03 47.3252 1398.22 32.8169L1398.15 32.8849Z" fill="white"/>
<path d="M1549.8 139.6C1548.12 150.089 1546.61 160.544 1544.83 170.931C1542.98 181.319 1541.1 191.672 1538.84 201.925C1536.72 212.245 1534.22 222.463 1531.66 232.682C1530.4 237.809 1529.03 242.901 1527.6 247.994L1523.43 263.34C1525.78 258.551 1527.73 253.627 1529.8 248.703C1531.68 243.711 1533.45 238.754 1535.16 233.661C1538.53 223.576 1541.2 213.255 1543.45 202.867C1545.61 192.445 1547.36 181.956 1548.39 171.367C1549.46 160.811 1550.06 150.188 1549.73 139.533L1549.8 139.6Z" fill="white"/>
<path d="M1511.94 274.354C1497.64 261.889 1481.85 251.259 1465.47 241.75C1449.03 232.377 1431.94 223.989 1413.96 217.843C1430.34 227.42 1446.82 236.419 1463.09 245.895C1479.43 255.234 1495.47 265.015 1511.94 274.354Z" fill="white"/>
</g>
</g>
<defs>
<linearGradient id="paint0_linear_47397_4571" x1="261.5" y1="120" x2="1600" y2="120" gradientUnits="userSpaceOnUse">
<stop stop-color="#F4EBE9"/>
<stop offset="1" stop-color="#F4EBE9" stop-opacity="0.24"/>
</linearGradient>
<clipPath id="clip0_47397_4571">
<rect width="1600" height="240" fill="white"/>
</clipPath>
<clipPath id="clip1_47397_4571">
<rect width="372" height="268" fill="white" transform="translate(-77)"/>
</clipPath>
<clipPath id="clip2_47397_4571">
<rect width="372" height="268" fill="white" transform="matrix(-0.707107 -0.707107 -0.707107 0.707107 1689.55 243.044)"/>
</clipPath>
</defs>
</svg>
