<svg width="20" height="20" viewBox="0 0 20 20" fill="none" xmlns="http://www.w3.org/2000/svg">
<g clip-path="url(#clip0_47278_4629)">
<path d="M10.0002 0.199958C15.4127 0.199958 19.8001 4.58731 19.8001 9.99951C19.8001 15.4121 15.4127 19.8003 10.0002 19.8003C4.58797 19.8003 0.200195 15.4121 0.200195 9.99951C0.200266 4.58739 4.58805 0.199958 10.0002 0.199958Z" fill="#D6D4D1"/>
<mask id="mask0_47278_4629" style="mask-type:luminance" maskUnits="userSpaceOnUse" x="0" y="0" width="20" height="20">
<path d="M10.0002 0.439638C15.2802 0.439638 19.5605 4.71996 19.5605 9.99958C19.5605 15.2795 15.2803 19.5599 10.0002 19.5599C4.72019 19.5599 0.439941 15.2795 0.439941 9.99958C0.439941 4.71996 4.72026 0.439638 10.0002 0.439638Z" fill="white"/>
</mask>
<g mask="url(#mask0_47278_4629)">
<path d="M-4.34033 0.439637H7.13247V19.5616H-4.34033V0.439637Z" fill="#076629"/>
<path d="M7.13086 0.439636H24.3398V19.5616H7.13086V0.439636Z" fill="#E32121"/>
<path d="M3.13765 8.07472C3.16361 8.1155 3.18993 8.15663 3.21667 8.19614C3.73872 8.36908 4.72934 8.612 6.28772 8.67007C6.61341 8.68284 6.87278 8.68447 7.01975 8.68284H7.11817H7.15112H7.2499C7.39645 8.68447 7.65624 8.68284 7.98151 8.67007C9.53989 8.61285 10.5304 8.36992 11.0534 8.19614C11.0798 8.15663 11.107 8.11543 11.1316 8.07472C11.1918 7.97876 11.2486 7.87998 11.302 7.77866C11.2766 7.73012 11.2503 7.68277 11.2222 7.63458C10.6944 7.8301 9.40774 8.19452 7.15105 8.18006V8.17921C7.14611 8.18006 7.12347 8.18006 7.1181 8.17921V8.18006C4.86177 8.19452 3.57517 7.8301 3.04691 7.63458C3.01932 7.68277 2.99301 7.73012 2.96704 7.77866C3.02031 7.87913 3.07753 7.97876 3.13765 8.07472C3.13842 8.07472 3.13842 8.07472 3.13765 8.07472Z" fill="#F5E600"/>
<path d="M7.34175 8.69392C7.30717 8.69392 7.27585 8.69392 7.2491 8.69392H7.23633H7.18977L7.13911 8.69265H7.13417H7.12429L7.07857 8.69392H7.03207H7.0198C6.99263 8.69392 6.9613 8.69392 6.92673 8.69392C6.78512 8.69392 6.55906 8.69103 6.28692 8.68115C4.75817 8.62393 3.77172 8.39088 3.21256 8.20637L3.20924 8.20475L3.20762 8.20144C3.18285 8.16475 3.15696 8.12523 3.12817 8.07994L3.11046 8.05115C3.05818 7.96676 3.00667 7.87652 2.95608 7.78395L2.95361 7.77774L2.95608 7.7728C2.98325 7.72214 3.00914 7.67438 3.03638 7.62788L3.04132 7.6192L3.05077 7.62294C3.59878 7.82586 4.83931 8.16764 6.98692 8.16764C7.02643 8.16764 7.06601 8.16764 7.10595 8.16679H7.11752H7.13438H7.16317C7.20275 8.16764 7.24226 8.16764 7.28135 8.16764C9.42973 8.16764 10.6698 7.82586 11.2175 7.62294L11.2274 7.6192L11.2323 7.62788C11.2586 7.67318 11.2859 7.72137 11.313 7.7728L11.3163 7.77774L11.313 7.78395C11.2619 7.87737 11.2109 7.96761 11.1582 8.052L11.1401 8.07994C11.1122 8.12523 11.0857 8.16475 11.0611 8.20144L11.0594 8.20475L11.0553 8.20637C10.4978 8.39081 9.50967 8.62308 7.98099 8.68115C7.70942 8.6911 7.48342 8.69392 7.34175 8.69392ZM7.2364 8.67007H7.24918H7.34182C7.48342 8.67007 7.70949 8.66845 7.98085 8.6573C9.50381 8.60086 10.487 8.36993 11.0445 8.18542C11.0642 8.15579 11.0848 8.12446 11.1071 8.08904L11.1203 8.06886C11.1779 7.97869 11.2339 7.88068 11.2883 7.77859C11.2644 7.73414 11.2405 7.69089 11.2166 7.64975C10.6625 7.85394 9.42112 8.19283 7.28135 8.19283C7.2381 8.19283 7.19527 8.19283 7.15124 8.19283H7.13932H7.13438H7.1245H7.11752C7.07384 8.19283 7.02981 8.19283 6.98699 8.19283C4.84679 8.19283 3.60549 7.85479 3.05169 7.64975C3.02784 7.69089 3.0035 7.73499 2.98 7.77859C3.03398 7.88068 3.09035 7.97784 3.14757 8.06886L3.16528 8.09602C3.18546 8.12855 3.20607 8.15818 3.22377 8.18542C3.78082 8.36985 4.76403 8.60001 6.28699 8.6573C6.55835 8.66838 6.78435 8.67007 6.92603 8.67007H7.01909H7.2364Z" fill="#101211"/>
<path d="M7.11737 8.58731H7.15032C9.28636 8.60086 10.5536 8.27566 11.1301 8.07472C11.1053 8.1155 11.0782 8.15663 11.0518 8.19614C10.4417 8.39787 9.19414 8.69562 7.1504 8.682C7.14546 8.682 7.12238 8.682 7.11745 8.682C5.07363 8.69562 3.82569 8.39794 3.21672 8.19614C3.18998 8.15663 3.16366 8.11543 3.1377 8.07472C3.714 8.27566 4.98169 8.60086 7.11737 8.58731Z" fill="#F5E600"/>
<path d="M7.28127 8.69392C7.23802 8.69392 7.19442 8.69392 7.15039 8.69265H7.13847H7.13353H7.1245H7.11751C5.03581 8.70711 3.77341 8.3925 3.21269 8.20722L3.20938 8.2056L3.20775 8.20235C3.18299 8.16566 3.15709 8.12615 3.12831 8.08085L3.1106 8.05207L3.1427 8.06399C3.69156 8.25548 4.92094 8.57574 6.98867 8.57574H7.1077V8.57489H7.1192H7.13607H7.16492V8.57574H7.28395C9.35042 8.57574 10.5802 8.25421 11.1303 8.06399L11.1615 8.05207L11.1443 8.08085C11.1163 8.1253 11.0907 8.16482 11.0644 8.20235L11.0628 8.2056L11.0594 8.20722C10.5059 8.38848 9.28642 8.69392 7.28127 8.69392ZM7.16316 8.67007C9.22963 8.68284 10.4845 8.37162 11.0453 8.18634C11.0643 8.15833 11.0832 8.12947 11.1038 8.09779C10.5258 8.29422 9.26011 8.61285 7.15124 8.60008H7.13931H7.13437H7.1245H7.11751C7.07384 8.60008 7.03066 8.60008 6.98783 8.60008C4.95636 8.60008 3.73227 8.29048 3.16612 8.09779C3.18715 8.13031 3.20691 8.15917 3.22462 8.18634C3.78498 8.37162 5.03828 8.682 7.10679 8.67007H7.11836H7.13522H7.16316Z" fill="#101211"/>
<path d="M7.11718 8.27481H7.15013C9.47144 8.28963 10.7675 7.90467 11.2649 7.71325C11.2501 7.68686 11.2369 7.66012 11.2204 7.63465C10.6926 7.83016 9.40597 8.19459 7.14928 8.18012V8.17928C7.14434 8.18013 7.12127 8.18013 7.11633 8.17928V8.18012C4.86 8.19459 3.57297 7.83016 3.04514 7.63465C3.03032 7.66012 3.01586 7.68693 3.00146 7.71325C3.50051 7.90467 4.79586 8.28963 7.11718 8.27481Z" fill="#F5E600"/>
<path d="M7.28109 8.28716C7.23784 8.28716 7.19423 8.28716 7.1502 8.28632H7.13828H7.13334H7.12431H7.11733C7.07365 8.28716 7.02962 8.28716 6.9868 8.28716C4.70993 8.28716 3.43935 7.89353 2.99837 7.72391L2.9856 7.71897L2.99216 7.70705C3.00655 7.68108 3.02102 7.65476 3.03626 7.6288L3.04119 7.62012L3.05065 7.62386C3.59866 7.82678 4.83919 8.16856 6.9868 8.16856C7.02631 8.16856 7.06589 8.16856 7.10582 8.16771H7.1174H7.13426H7.16305C7.20263 8.16856 7.24214 8.16856 7.28123 8.16856C9.42961 8.16856 10.6697 7.82678 11.2174 7.62386L11.2273 7.62012L11.2322 7.6288C11.247 7.65476 11.2618 7.68108 11.2766 7.70705L11.2833 7.71897L11.27 7.72391C10.8285 7.89353 9.55753 8.28716 7.28109 8.28716ZM7.16298 8.26367C9.48923 8.27728 10.7907 7.8816 11.2486 7.70705C11.2386 7.68849 11.228 7.66916 11.2173 7.65067C10.6631 7.85486 9.42178 8.19374 7.282 8.19374C7.23875 8.19374 7.19593 8.19374 7.1519 8.19374H7.13997H7.13504H7.12431H7.11733C7.07365 8.19374 7.02962 8.19374 6.9868 8.19374C4.8466 8.19374 3.6053 7.85571 3.0515 7.65067C3.04035 7.66916 3.03047 7.68856 3.01939 7.70705C3.47067 7.87829 4.73547 8.26367 6.9868 8.26367H7.10582H7.1174H7.13426H7.16298Z" fill="#101211"/>
<path d="M6.81312 11.0486C9.80472 12.7647 10.6459 12.908 10.8657 12.8939C10.9348 12.8059 11.0016 12.712 11.0642 12.619C11.1597 12.4633 11.2486 12.3028 11.3268 12.1372C11.0436 12.1266 10.1303 11.9034 7.3224 10.291C3.9833 8.37571 3.41384 7.41882 3.32698 7.22655C3.25621 7.31757 3.18904 7.41183 3.12399 7.50814C3.01943 7.67614 2.92516 7.8507 2.84155 8.03273C2.98979 8.30572 3.68971 9.25802 6.81312 11.0486Z" fill="#F5E600"/>
<path d="M10.8369 12.9064C10.5932 12.9064 9.71293 12.7268 6.80614 11.0586C3.65762 9.25351 2.968 8.28963 2.83133 8.03767L2.82886 8.03189L2.83133 8.02695C2.91409 7.84618 3.0092 7.66993 3.11461 7.50074C3.17967 7.40443 3.24803 7.30932 3.31887 7.2183L3.33164 7.20221L3.33905 7.21992C3.41603 7.39243 3.97145 8.35468 7.32826 10.2778C10.1848 11.9166 11.0766 12.1142 11.3278 12.1232H11.3459L11.3385 12.1405C11.2603 12.306 11.1713 12.4683 11.0742 12.6239C11.0124 12.7178 10.9458 12.8125 10.8766 12.9006L10.8732 12.9039H10.8675C10.8567 12.9064 10.8485 12.9064 10.8369 12.9064ZM2.85525 8.03104C2.9977 8.28963 3.69762 9.24772 6.81891 11.0387C9.72041 12.7038 10.5957 12.8833 10.8377 12.8833C10.846 12.8833 10.8534 12.8833 10.86 12.8817C10.9275 12.7944 10.9917 12.7038 11.0534 12.6116C11.1465 12.4617 11.2322 12.3061 11.3079 12.1472C10.9769 12.1282 10.0233 11.8524 7.31662 10.3018C4.0533 8.43046 3.43071 7.46376 3.32536 7.24843C3.25989 7.33528 3.19568 7.42376 3.13514 7.514C3.03058 7.6803 2.93589 7.85401 2.85525 8.03104Z" fill="#101211"/>
<path d="M6.81325 11.0486C9.80485 12.7647 10.646 12.908 10.8658 12.8939C10.8807 12.8767 10.893 12.857 10.9086 12.8405C10.6064 12.8223 9.66487 12.5752 6.87294 10.9737C3.84098 9.2341 3.0669 8.27721 2.8771 7.95773C2.86518 7.982 2.85445 8.00712 2.84253 8.03266C2.98992 8.30572 3.68984 9.25802 6.81325 11.0486Z" fill="#F5E600"/>
<path d="M10.8369 12.9064C10.5932 12.9064 9.71293 12.7268 6.80614 11.0586C3.65762 9.2535 2.968 8.28963 2.83133 8.03767L2.82886 8.03189L2.83133 8.02695C2.84325 8.00141 2.8544 7.97629 2.8659 7.95159L2.87535 7.93226L2.88693 7.95082C3.08286 8.28145 3.86435 9.23333 6.87818 10.963C9.63102 12.5407 10.5849 12.8076 10.9077 12.8273H10.9292L10.916 12.8455C10.902 12.8628 10.888 12.8834 10.8739 12.9007L10.8706 12.904H10.8648C10.8567 12.9064 10.8485 12.9064 10.8369 12.9064ZM2.85525 8.03104C2.9977 8.28963 3.69762 9.24772 6.81891 11.0387C9.72041 12.7038 10.5957 12.8833 10.8377 12.8833C10.846 12.8833 10.8534 12.8833 10.86 12.8817C10.869 12.8718 10.8773 12.8611 10.8847 12.8487C10.5389 12.8191 9.56349 12.5309 6.86625 10.9828C3.90301 9.28314 3.09274 8.33041 2.87782 7.98292C2.87006 7.99809 2.86258 8.01502 2.85525 8.03104Z" fill="#101211"/>
<path d="M3.32709 7.22571C3.30445 7.25534 3.28102 7.2854 3.2583 7.31588C3.40823 7.59422 4.11719 8.55725 7.27432 10.3685C9.97932 11.9198 10.9457 12.1999 11.28 12.2311C11.2956 12.1999 11.3112 12.1686 11.326 12.1356C11.0428 12.1257 10.1295 11.9017 7.32159 10.291C3.98257 8.37486 3.41317 7.41882 3.32709 7.22571Z" fill="#F5E600"/>
<path d="M11.2866 12.2443L11.2784 12.2427C10.9391 12.2115 9.96499 11.9249 7.26859 10.3784C4.08472 8.55111 3.38642 7.57736 3.24721 7.32173L3.2439 7.31517L3.24799 7.30938C3.27064 7.27813 3.29371 7.24849 3.31713 7.21837L3.32991 7.20228L3.33731 7.21999C3.41387 7.3925 3.96971 8.35475 7.32659 10.2779C10.1831 11.9167 11.0749 12.1142 11.3261 12.1233H11.3442L11.3368 12.1405C11.3212 12.1735 11.3063 12.2039 11.2899 12.2353L11.2866 12.2443ZM3.2724 7.3175C3.41852 7.58145 4.12924 8.54935 7.28136 10.3586C9.95264 11.8894 10.9276 12.1834 11.2735 12.2196C11.2859 12.1949 11.2965 12.1693 11.308 12.1472C10.9771 12.1274 10.0235 11.8516 7.31678 10.301C4.05346 8.42968 3.43087 7.46249 3.32553 7.24758C3.30697 7.271 3.28926 7.29407 3.2724 7.3175Z" fill="#101211"/>
<path d="M7.13425 12.7861C5.10236 12.7795 3.87954 12.5342 3.16431 12.2904C3.13594 12.3332 3.10871 12.3777 3.08154 12.4222C3.17545 12.5803 3.2784 12.7293 3.38952 12.875C4.95038 13.3083 7.13418 13.3083 7.13418 13.3083C7.13418 13.3083 9.31918 13.3083 10.8796 12.875C10.9899 12.7293 11.0937 12.5795 11.1875 12.4222C11.1604 12.3768 11.1331 12.3332 11.1036 12.2904C10.389 12.5342 9.16656 12.7796 7.13425 12.7861Z" fill="#F5E600"/>
<path d="M7.13413 13.3198C7.11226 13.3198 4.93015 13.3148 3.38616 12.8866L3.382 12.885L3.3791 12.8817C3.2679 12.7367 3.16419 12.5844 3.0707 12.4288L3.06738 12.4222L3.0707 12.4164C3.10196 12.3629 3.12792 12.3234 3.15346 12.2838L3.1584 12.2747L3.16666 12.2789C3.81761 12.5012 5.03472 12.7672 7.13328 12.7746C9.23227 12.7672 10.4489 12.5012 11.1002 12.2789L11.1084 12.2747L11.1142 12.2838C11.1397 12.3234 11.1661 12.3646 11.1974 12.4164L11.2007 12.4222L11.1974 12.4288C11.1035 12.5853 10.9997 12.7367 10.8894 12.8817L10.8861 12.885L10.8829 12.8866C9.33853 13.3147 7.15593 13.3198 7.13413 13.3198ZM3.39604 12.8652C4.93671 13.2901 7.11226 13.2966 7.13413 13.2966C7.15593 13.2966 9.33155 13.2901 10.8722 12.8652C10.9809 12.7236 11.0822 12.5736 11.1727 12.4222C11.1464 12.3777 11.1216 12.3398 11.0986 12.3035C10.4448 12.5259 9.22606 12.7927 7.13328 12.7976C5.04128 12.7927 3.82297 12.5259 3.1675 12.3035C3.14485 12.3398 3.12143 12.3777 3.09419 12.4222C3.18606 12.5753 3.28738 12.7236 3.39604 12.8652Z" fill="#101211"/>
<path d="M7.13425 12.88C5.05579 12.875 3.82394 12.6181 3.11534 12.3687C3.10384 12.3859 3.09354 12.4049 3.08154 12.4238C3.14991 12.5374 3.2228 12.6486 3.3002 12.7557C4.86437 13.2134 7.13425 13.2134 7.13425 13.2134C7.13425 13.2134 9.40328 13.2134 10.9686 12.7557C11.0461 12.6486 11.1184 12.5374 11.1868 12.4238C11.1762 12.4048 11.1647 12.3859 11.153 12.3687C10.445 12.6181 9.21306 12.875 7.13425 12.88Z" fill="#F5E600"/>
<path d="M7.13419 13.2259C7.11154 13.2259 4.84498 13.2193 3.29689 12.7664L3.29238 12.7648L3.28991 12.7614C3.21335 12.6544 3.14005 12.5424 3.07168 12.4288L3.06836 12.4238L3.08522 12.3959C3.09178 12.3844 3.09842 12.3728 3.1054 12.3613L3.11034 12.3531L3.1198 12.3564C3.77153 12.5862 4.99766 12.862 7.13496 12.8678C9.27262 12.8611 10.4991 12.5862 11.1506 12.3564L11.1587 12.3531L11.1645 12.3613C11.1711 12.3728 11.1777 12.3844 11.1851 12.3959L11.2023 12.4238L11.1983 12.4288C11.1299 12.5424 11.0566 12.6544 10.9792 12.7614L10.9768 12.7648L10.9726 12.7664C9.42382 13.2193 7.15684 13.2259 7.13419 13.2259ZM3.30677 12.7449C4.85161 13.1962 7.11154 13.2012 7.13419 13.2012C7.15684 13.2012 9.41684 13.1962 10.962 12.7449C11.036 12.6411 11.1069 12.5325 11.1727 12.4238L11.1645 12.4065C11.1579 12.3974 11.153 12.3893 11.1481 12.3802C10.4926 12.6099 9.26486 12.8866 7.13419 12.8899C5.00352 12.885 3.77654 12.6099 3.12064 12.3802C3.11528 12.3893 3.11034 12.3974 3.1054 12.4065L3.09595 12.4238C3.161 12.5326 3.23184 12.6412 3.30677 12.7449Z" fill="#101211"/>
<path d="M7.1341 11.187C7.1341 11.187 10.4695 11.187 11.8413 10.3718C11.8487 10.2878 11.8529 10.2021 11.8553 10.1165C11.8537 10.0193 11.8495 9.92379 11.8413 9.82784C11.423 10.1034 10.1985 10.6567 7.1341 10.6649C4.07166 10.6567 2.8463 10.1034 2.42634 9.82784C2.41894 9.92379 2.41569 10.0193 2.41357 10.1165C2.41562 10.2021 2.42056 10.2878 2.42712 10.3718C3.7991 11.187 7.1341 11.187 7.1341 11.187Z" fill="#F5E600"/>
<path d="M7.13413 11.2002C7.10033 11.2002 3.77972 11.1903 2.4215 10.3816L2.41656 10.3775L2.41572 10.3709C2.40866 10.2861 2.40457 10.2013 2.4021 10.1148C2.40372 10.0077 2.40789 9.91385 2.41445 9.82692L2.41572 9.80674L2.43258 9.81789C2.81175 10.067 4.02843 10.6451 7.13328 10.6534C10.2381 10.6451 11.4543 10.067 11.8348 9.81789L11.852 9.80674L11.8537 9.82692C11.8602 9.91462 11.8643 10.0077 11.866 10.1148C11.8644 10.2013 11.8594 10.2861 11.8528 10.3709V10.3775L11.8462 10.3816C10.4876 11.1903 7.16708 11.2002 7.13413 11.2002ZM2.43837 10.3652C3.79503 11.1656 7.1004 11.1755 7.13413 11.1755C7.16785 11.1755 10.4728 11.1655 11.8298 10.3652C11.8364 10.2812 11.8413 10.1989 11.843 10.1166C11.8414 10.0194 11.8381 9.93043 11.8315 9.84894C11.4322 10.1051 10.2011 10.6699 7.13413 10.6781C4.06759 10.6699 2.83652 10.1051 2.43667 9.84894C2.43053 9.93043 2.42722 10.0194 2.42552 10.1166C2.42806 10.1988 2.43265 10.2812 2.43837 10.3652Z" fill="#101211"/>
<path d="M7.13418 10.7604C4.07174 10.7522 2.84638 10.1972 2.42643 9.92379C2.42064 10.0012 2.41739 10.0803 2.41577 10.1593C2.41662 10.1972 2.41824 10.2351 2.42071 10.273C3.7893 11.0931 7.13418 11.0931 7.13418 11.0931C7.13418 11.0931 10.4795 11.0931 11.848 10.273C11.8496 10.2351 11.8513 10.1972 11.8529 10.1593C11.8513 10.0803 11.848 10.0012 11.8414 9.92379C11.4214 10.1972 10.1978 10.7522 7.13418 10.7604Z" fill="#F5E600"/>
<path d="M7.13421 11.1046C7.10042 11.1046 3.76993 11.0948 2.41496 10.2829L2.40959 10.2795L2.40875 10.2738C2.40712 10.2342 2.4055 10.1964 2.40381 10.1585C2.40628 10.0655 2.40959 9.99047 2.41496 9.92132L2.4158 9.90114L2.43267 9.91229C2.81184 10.1602 4.02852 10.7408 7.13337 10.749C10.2381 10.7408 11.4544 10.161 11.8348 9.91229L11.8521 9.90114L11.8537 9.92132C11.8586 9.99047 11.8619 10.0655 11.8644 10.1568C11.8628 10.1964 11.8611 10.2343 11.8595 10.2746V10.2795L11.8537 10.2829C10.4992 11.0948 7.16716 11.1046 7.13421 11.1046ZM2.43274 10.2663C3.78608 11.0717 7.10133 11.0816 7.13428 11.0816C7.16723 11.0816 10.4828 11.0717 11.8366 10.2663C11.8382 10.2301 11.8399 10.1939 11.8415 10.1576C11.8399 10.0753 11.8366 10.0061 11.8316 9.94348C11.4322 10.1988 10.2012 10.7637 7.13421 10.772C4.06768 10.7629 2.8366 10.198 2.43676 9.94348C2.43267 10.0061 2.42893 10.0753 2.4273 10.1592C2.42815 10.1939 2.42984 10.2302 2.43274 10.2663Z" fill="#101211"/>
<path d="M7.13414 5.27785C4.52707 5.27785 2.41284 7.39165 2.41284 9.99957C2.41284 12.6083 4.52707 14.7212 7.13414 14.7212C9.74164 14.7212 11.8562 12.6083 11.8562 9.99957C11.8563 7.39165 9.74164 5.27785 7.13414 5.27785ZM7.13414 14.2486C4.78771 14.2486 2.8843 12.3464 2.8843 9.99957C2.8843 7.65314 4.78686 5.75008 7.13414 5.75008C9.48178 5.75008 11.3836 7.65307 11.3836 9.99957C11.3836 12.3464 9.481 14.2486 7.13414 14.2486Z" fill="#F5E600"/>
<path d="M7.13417 14.7328C4.52463 14.7328 2.40137 12.6099 2.40137 9.99957C2.40137 7.39081 4.52463 5.26677 7.13417 5.26677C9.74406 5.26677 11.8677 7.39081 11.8677 9.99957C11.8678 12.6099 9.74413 14.7328 7.13417 14.7328ZM7.13417 5.29062C4.53698 5.29062 2.42479 7.4028 2.42479 9.99957C2.42479 12.5968 4.53775 14.7097 7.13417 14.7097C9.73051 14.7097 11.8431 12.5968 11.8431 9.99957C11.8431 7.40273 9.73136 5.29062 7.13417 5.29062ZM7.13417 14.2618C4.784 14.2618 2.8736 12.3497 2.8736 9.9995C2.8736 7.64975 4.78484 5.73809 7.13417 5.73809C9.4835 5.73809 11.3951 7.6506 11.3951 9.9995C11.3951 12.3497 9.48434 14.2618 7.13417 14.2618ZM7.13417 5.76286C4.79761 5.76286 2.89703 7.66422 2.89703 9.99957C2.89703 12.3366 4.79761 14.2371 7.13417 14.2371C9.47072 14.2371 11.372 12.3366 11.372 9.99957C11.372 7.66422 9.47072 5.76286 7.13417 5.76286Z" fill="#101211"/>
<path d="M7.13418 5.37296C4.57855 5.37296 2.50757 7.44478 2.50757 9.99957C2.50757 12.5556 4.5794 14.6274 7.13418 14.6274C9.68932 14.6274 11.7607 12.5556 11.7607 9.99957C11.7607 7.44478 9.69017 5.37296 7.13418 5.37296ZM7.13418 14.3441C4.7354 14.3441 2.79085 12.3991 2.79085 9.9995C2.79085 7.60156 4.73547 5.65659 7.13418 5.65659C9.53332 5.65659 11.4774 7.60156 11.4774 9.9995C11.4774 12.3991 9.53332 14.3441 7.13418 14.3441Z" fill="#F5E600"/>
<path d="M7.13414 14.639C4.57604 14.639 2.49561 12.5573 2.49561 9.99957C2.49561 7.44147 4.57689 5.36223 7.13414 5.36223C9.69182 5.36223 11.7722 7.44225 11.7722 9.99957C11.7722 12.5573 9.69182 14.639 7.13414 14.639ZM7.13414 5.38411C4.58923 5.38411 2.5191 7.45424 2.5191 9.99957C2.5191 12.5441 4.58923 14.6159 7.13414 14.6159C9.67898 14.6159 11.7492 12.5441 11.7492 9.99957C11.7492 7.45509 9.67905 5.38411 7.13414 5.38411ZM7.13414 14.3556C4.73254 14.3556 2.77804 12.4032 2.77804 9.9995C2.77804 7.59832 4.73169 5.6446 7.13414 5.6446C9.53653 5.6446 11.4906 7.59747 11.4906 9.9995C11.489 12.4025 9.53575 14.3556 7.13414 14.3556ZM7.13414 5.66732C4.74531 5.66732 2.80274 7.61109 2.80274 9.9995C2.80274 12.3893 4.74608 14.3326 7.13414 14.3326C9.52214 14.3326 11.4659 12.3893 11.4659 9.9995C11.4659 7.61109 9.52221 5.66732 7.13414 5.66732Z" fill="#101211"/>
<path d="M6.89844 5.27785H7.37067V14.7212H6.89844V5.27785Z" fill="#F5E600"/>
<path d="M7.38208 14.7328H6.8855V5.26677H7.38208V14.7328ZM6.90984 14.7097H7.35865V5.2914H6.90984V14.7097Z" fill="#101211"/>
<path d="M6.89844 5.23135H6.9927V14.7691H6.89844V5.23135Z" fill="#F5E600"/>
<path d="M7.00453 14.7806H6.8855V5.22063H7.00453V14.7806ZM6.90984 14.7575H6.98068V5.24243H6.90984V14.7575Z" fill="#101211"/>
<path d="M7.27588 5.23135H7.37057V14.7691H7.27588V5.23135Z" fill="#F5E600"/>
<path d="M7.38197 14.7806H7.26294V5.22063H7.38197V14.7806ZM7.2877 14.7575H7.35854V5.24243H7.2877V14.7575Z" fill="#101211"/>
<path d="M2.41658 9.82784C2.41496 9.88506 2.41284 9.94186 2.41284 9.99958C2.41284 10.1231 2.41736 10.245 2.42724 10.366C2.84634 10.091 4.0717 9.53722 7.13499 9.52854C10.1986 9.53722 11.4231 10.0909 11.843 10.366C11.853 10.245 11.8578 10.1239 11.8578 9.99958C11.8578 9.94271 11.8563 9.88591 11.8538 9.82784C10.4884 9.00564 7.13577 9.00564 7.13577 9.00564C7.13577 9.00564 3.78143 9.00564 2.41658 9.82784Z" fill="#F5E600"/>
<path d="M11.8522 10.3866L11.8349 10.3751C11.4561 10.1264 10.2382 9.54787 7.13344 9.53961C4.02859 9.54787 2.81191 10.1264 2.43274 10.3751L2.41587 10.3866L2.41503 10.3676C2.40557 10.2449 2.40063 10.1221 2.40063 9.9995C2.40063 9.94842 2.40148 9.89451 2.40388 9.82777V9.82121L2.40882 9.81789C3.76139 9.0031 7.09964 8.99407 7.13344 8.99407C7.16723 8.99407 10.5058 9.0031 11.8571 9.81789L11.8629 9.82121L11.8638 9.82777C11.8662 9.89367 11.8679 9.94842 11.8679 9.9995C11.8679 10.1222 11.8621 10.2449 11.8531 10.3676L11.8522 10.3866ZM7.13421 9.51577C10.2011 9.52522 11.4322 10.0902 11.8316 10.3437C11.8398 10.2302 11.8448 10.1149 11.8448 9.99957C11.8448 9.95018 11.8432 9.8979 11.8415 9.83525C10.4902 9.02744 7.16801 9.01757 7.13428 9.01757C7.10056 9.01757 3.77832 9.02744 2.42738 9.83525C2.42575 9.89783 2.42413 9.95011 2.42413 9.99957C2.42413 10.1149 2.42822 10.2302 2.4369 10.3437C2.8366 10.0901 4.06768 9.52522 7.13421 9.51577Z" fill="#101211"/>
<path d="M7.13422 9.10033C7.13422 9.10033 3.78151 9.10033 2.41666 9.9221C2.41582 9.94348 2.41582 9.96493 2.41504 9.988C2.41666 10.0819 2.41998 10.1774 2.42739 10.2714C2.84649 9.99626 4.07185 9.44168 7.13514 9.43343C10.1987 9.44168 11.4232 9.99626 11.8432 10.2714C11.8506 10.1774 11.8547 10.0819 11.8564 9.988C11.8556 9.96493 11.8548 9.94355 11.854 9.9221C10.4869 9.10033 7.13422 9.10033 7.13422 9.10033Z" fill="#F5E600"/>
<path d="M11.8523 10.291L11.835 10.2812C11.4562 10.0325 10.2383 9.45361 7.13352 9.44408C4.02867 9.45354 2.812 10.0325 2.43282 10.2812L2.41596 10.291L2.41511 10.2714C2.40813 10.1857 2.40397 10.0935 2.40234 9.988C2.40234 9.96493 2.40319 9.94355 2.40397 9.9221V9.91554L2.40891 9.91307C3.76148 9.09828 7.09973 9.08841 7.13352 9.08841C7.16732 9.08841 10.5059 9.09828 11.8572 9.91307L11.863 9.91554L11.8639 9.9221C11.8639 9.94348 11.8647 9.96493 11.8663 9.98631C11.8639 10.0934 11.8597 10.1856 11.8531 10.2713L11.8523 10.291ZM2.42739 9.93036C2.42654 9.94849 2.42654 9.96825 2.42577 9.988C2.42739 10.0835 2.43071 10.1709 2.43692 10.2499C2.83676 9.99457 4.06776 9.42969 7.13437 9.42143C10.2013 9.42969 11.4324 9.99457 11.8318 10.2499C11.8383 10.1709 11.8416 10.0844 11.8433 9.98638C11.8416 9.96825 11.8416 9.94849 11.8416 9.93043C10.4904 9.1222 7.16817 9.11275 7.13444 9.11275C7.10071 9.11275 3.77834 9.12128 2.42739 9.93036Z" fill="#101211"/>
<path d="M2.85596 8.00141C3.19978 7.84992 4.51277 7.36238 7.11737 7.37931V7.38016H7.15032V7.37931C9.75492 7.36245 11.0691 7.85077 11.4133 8.00141C11.3285 7.82269 11.2337 7.6506 11.13 7.4855C11.1052 7.44472 11.0781 7.40358 11.0518 7.36407C10.5297 7.19114 9.53831 6.94821 7.97993 6.89014C7.65466 6.87737 7.39487 6.87575 7.24825 6.87737C7.2153 6.87737 7.1832 6.87737 7.14947 6.87737C7.14453 6.87737 7.12146 6.87737 7.11652 6.87737C7.08273 6.87737 7.05062 6.87737 7.0181 6.87737C6.87113 6.87575 6.61127 6.87737 6.286 6.89014C4.72761 6.94736 3.737 7.19029 3.21495 7.36407C3.18821 7.40358 3.16189 7.44479 3.13593 7.4855C3.03383 7.65067 2.93914 7.82276 2.85596 8.00141Z" fill="#F5E600"/>
<path d="M2.8313 8.02406L2.84485 7.99647C2.92309 7.82932 3.01164 7.66422 3.10957 7.50652L3.12728 7.47936C3.15614 7.43328 3.18204 7.3937 3.20673 7.35708L3.20835 7.35384L3.21167 7.35221C3.77076 7.16778 4.75728 6.93558 6.28604 6.87751C6.55817 6.86763 6.78424 6.86474 6.92584 6.86474C6.96042 6.86474 6.99174 6.86474 7.01891 6.86559H7.0321H7.0786H7.12926H7.1342H7.1445H7.1898H7.23636H7.24914C7.27588 6.86474 7.3072 6.86474 7.34178 6.86474C7.48338 6.86474 7.70945 6.86763 7.98159 6.87751C9.51034 6.93473 10.4976 7.16778 11.056 7.35221L11.0593 7.35384L11.0626 7.35708C11.0864 7.39377 11.1128 7.43244 11.1416 7.47936L11.1589 7.50652C11.2569 7.66506 11.3475 7.82932 11.4232 7.99647L11.4372 8.02406L11.4092 8.01171C11.0725 7.86389 9.76109 7.37479 7.16397 7.39081H7.15205H7.13519H7.10633C7.06682 7.38996 7.02724 7.38996 6.98772 7.38996C4.46963 7.38996 3.19241 7.86551 2.861 8.01171L2.8313 8.02406ZM3.16108 7.4711L3.14831 7.49044C3.04988 7.64813 2.95851 7.81161 2.88027 7.97791C3.25288 7.81944 4.53298 7.36647 6.98765 7.36647H7.11818H7.13011H7.13505H7.14535H7.15198C9.69195 7.3496 11.0107 7.81612 11.3902 7.97791C11.3112 7.81161 11.2206 7.64728 11.1218 7.49044L11.1036 7.46327H11.1053C11.0839 7.43074 11.0641 7.40189 11.046 7.37388C10.4885 7.18944 9.50533 6.95928 7.98271 6.90206C7.711 6.89091 7.48494 6.88929 7.34333 6.88929C7.30876 6.88929 7.27743 6.88929 7.25069 6.88929H7.02138C6.99421 6.88929 6.96289 6.88929 6.92874 6.88929C6.78671 6.88929 6.56107 6.89091 6.28928 6.90206C4.76632 6.95844 3.78311 7.18944 3.22599 7.37388C3.20391 7.40358 3.18373 7.43491 3.16108 7.4711Z" fill="#101211"/>
<path d="M7.15032 7.28462C7.14538 7.28462 7.12231 7.28462 7.11737 7.28462C4.64083 7.26776 3.33229 7.70867 2.91318 7.88245C2.89385 7.92238 2.87451 7.9619 2.85596 8.00148C3.19978 7.84999 4.51277 7.36245 7.11737 7.37938V7.38023H7.15032V7.37938C9.75492 7.36252 11.0691 7.85084 11.4133 8.00148C11.3935 7.9619 11.3737 7.92161 11.3539 7.88245C10.9357 7.70789 9.62679 7.26853 7.15032 7.28462Z" fill="#F5E600"/>
<path d="M2.8313 8.02406L2.84485 7.99647C2.8634 7.95611 2.88273 7.91617 2.90291 7.87666L2.90454 7.87257L2.90905 7.87095C3.35081 7.68771 4.65681 7.25626 7.11734 7.27312H7.12926H7.1342H7.1445H7.15113C9.61074 7.25626 10.9168 7.68771 11.3598 7.87095L11.3639 7.87257L11.3664 7.87666C11.3854 7.91624 11.4059 7.95611 11.4232 7.99647L11.4372 8.02406L11.41 8.01171C11.0724 7.86389 9.76102 7.37479 7.1639 7.39081H7.15198H7.13512H7.10668C4.51034 7.37557 3.19812 7.86474 2.86093 8.01171L2.8313 8.02406ZM2.92232 7.89106C2.9075 7.92069 2.89388 7.94828 2.87949 7.97876C3.25993 7.81697 4.57871 7.3513 7.11741 7.36731H7.12933H7.13427H7.14457H7.1512H7.28209C9.7364 7.36731 11.0164 7.81944 11.3886 7.97876C11.3754 7.94912 11.3615 7.92154 11.3459 7.89106C10.9094 7.71156 9.6463 7.29655 7.28216 7.29655C7.24222 7.29655 7.20271 7.29655 7.16313 7.29655H7.1512H7.13434H7.10591C4.66471 7.28215 3.36697 7.70789 2.92232 7.89106Z" fill="#101211"/>
<path d="M7.11737 6.97206C7.12231 6.97206 7.14532 6.97206 7.15032 6.9729V6.97206C9.28636 6.95851 10.5536 7.2837 11.1301 7.48465C11.1053 7.44387 11.0782 7.40273 11.0518 7.36322C10.4417 7.1615 9.19414 6.86375 7.1504 6.87737C7.14546 6.87737 7.12238 6.87737 7.11745 6.87737C5.07363 6.86375 3.82569 7.16143 3.21672 7.36322C3.18998 7.40273 3.16366 7.44394 3.1377 7.48465C3.714 7.28377 4.98169 6.95936 7.11737 6.97206Z" fill="#F5E600"/>
<path d="M3.10962 7.5073L3.12733 7.47936C3.15619 7.43329 3.18208 7.39328 3.20678 7.35708L3.2084 7.35384L3.21171 7.35222C3.7725 7.16651 5.03568 6.85317 7.11653 6.86636H7.12846H7.1334H7.1437H7.15033C9.23323 6.85317 10.4944 7.16651 11.0551 7.35222L11.0584 7.35384L11.0609 7.35708C11.0863 7.39455 11.1127 7.43406 11.1399 7.47936L11.158 7.5073L11.1259 7.49538C10.5783 7.30396 9.34768 6.98363 7.28001 6.98363C7.2405 6.98363 7.20099 6.98363 7.16141 6.98447H7.14948H7.13262H7.10376C7.06425 6.98363 7.02467 6.98363 6.98516 6.98363C4.91834 6.98363 3.68804 7.3048 3.13925 7.49538L3.10962 7.5073ZM3.22449 7.37395C3.20678 7.40111 3.18702 7.42997 3.16599 7.4625C3.74371 7.26607 5.00766 6.94743 7.11823 6.9602H7.13015H7.13509H7.14539H7.15202C9.26252 6.94659 10.5265 7.26529 11.1037 7.4625C11.084 7.43082 11.0642 7.40196 11.0461 7.37395C10.4861 7.18867 9.23246 6.87829 7.16395 6.89021H7.15202H7.13516H7.10673C5.03737 6.87822 3.784 7.18867 3.22449 7.37395Z" fill="#101211"/>
<path d="M2.91626 12.124C2.99119 12.2723 3.07395 12.4172 3.16328 12.5556C3.87922 12.3101 5.10211 12.0648 7.13315 12.0598C9.16547 12.0648 10.3878 12.3102 11.1034 12.5556C11.1923 12.4172 11.2747 12.2722 11.3505 12.124C9.80605 11.5377 7.13315 11.5377 7.13315 11.5377C7.13315 11.5377 4.4611 11.5378 2.91626 12.124Z" fill="#F5E600"/>
<path d="M11.1085 12.5704L11.1002 12.5671C10.4497 12.344 9.2323 12.078 7.13331 12.0714C5.03474 12.078 3.81764 12.344 3.16668 12.5671L3.15843 12.5704L3.15349 12.5622C3.06409 12.4238 2.98055 12.2773 2.9052 12.1283L2.89941 12.1159L2.91218 12.111C4.44094 11.5313 7.10735 11.5255 7.13409 11.5255C7.16125 11.5255 9.82716 11.5321 11.3563 12.111L11.3686 12.1159L11.3621 12.1283C11.2879 12.2765 11.2039 12.4238 11.1142 12.5622L11.1085 12.5704ZM2.93243 12.1307C3.00412 12.2706 3.08357 12.4089 3.16838 12.5424C3.82385 12.3184 5.0413 12.0533 7.13416 12.0483C9.22694 12.0533 10.4448 12.3184 11.1002 12.5424C11.1851 12.4089 11.2633 12.2706 11.3357 12.1307C9.80868 11.5559 7.16125 11.5494 7.13416 11.5494C7.10735 11.5494 4.45949 11.5559 2.93243 12.1307Z" fill="#101211"/>
<path d="M2.95679 12.2031C3.0066 12.297 3.05888 12.3876 3.11533 12.4782C3.82393 12.2278 5.05578 11.9709 7.13424 11.966C9.21305 11.9709 10.4449 12.2287 11.153 12.4782C11.209 12.3876 11.2617 12.297 11.3111 12.2031C9.76184 11.6317 7.13417 11.6317 7.13417 11.6317C7.13417 11.6317 4.50776 11.6317 2.95679 12.2031Z" fill="#F5E600"/>
<path d="M11.158 12.493L11.1498 12.4897C10.4976 12.2591 9.27106 11.9825 7.13418 11.9775C4.99688 11.9833 3.77159 12.2591 3.11901 12.4897L3.10956 12.493L3.10462 12.4848C3.04902 12.3942 2.99589 12.302 2.94608 12.2081L2.93994 12.1966L2.95271 12.1916C4.4876 11.6268 7.10744 11.6201 7.13341 11.6201C7.15973 11.6201 9.78041 11.6268 11.3145 12.1916L11.3268 12.1966L11.3195 12.2081C11.27 12.302 11.2181 12.3942 11.1613 12.4848L11.158 12.493ZM7.13418 11.9529C9.26486 11.9594 10.4926 12.2328 11.1481 12.4633C11.1992 12.3802 11.2486 12.2953 11.2946 12.2097C9.76263 11.6498 7.1605 11.6423 7.13418 11.6423C7.10822 11.6423 4.50609 11.6498 2.97367 12.2097C3.01939 12.2953 3.0692 12.3802 3.11986 12.4633C3.77576 12.2328 5.00351 11.9594 7.13418 11.9529Z" fill="#101211"/>
<path d="M10.8599 12.8998C11.0501 12.6561 11.2165 12.3942 11.3564 12.1142C11.2337 11.8705 10.58 10.9153 7.37463 9.07648C4.31466 7.32089 3.50439 7.21216 3.3076 7.23319C3.13672 7.46955 2.98643 7.72236 2.86084 7.98871C3.14412 7.99901 4.05734 8.22423 6.86528 9.83369C10.2044 11.7503 10.7734 12.707 10.8599 12.8998Z" fill="#F5E600"/>
<path d="M10.8567 12.9229L10.8485 12.9047C10.7711 12.7318 10.2161 11.7716 6.8589 9.84639C4.00439 8.20891 3.11135 8.01171 2.86024 8.00225L2.84253 8.00141L2.84994 7.98454C2.97468 7.71982 3.12581 7.46454 3.29868 7.22655L3.30115 7.22239L3.30609 7.22154C3.31963 7.22077 3.33403 7.21907 3.34927 7.21907C3.59304 7.21907 4.47331 7.39942 7.37968 9.06653C10.5784 10.9012 11.2388 11.8589 11.3664 12.1092L11.3688 12.1142L11.3664 12.1208C11.2264 12.3974 11.0592 12.6626 10.869 12.9079L10.8567 12.9229ZM2.8795 7.9796C3.21098 7.99894 4.16533 8.27397 6.87125 9.82537C10.1346 11.6976 10.7563 12.6626 10.8617 12.8784C11.0462 12.6395 11.2075 12.3827 11.3426 12.1142C11.2108 11.859 10.5405 10.9071 7.36782 9.08756C4.46639 7.42376 3.59107 7.24342 3.34934 7.24342C3.33657 7.24342 3.32464 7.24426 3.31399 7.24504C3.14748 7.47604 3.00178 7.72306 2.8795 7.9796Z" fill="#101211"/>
<path d="M6.91287 9.75785C4.2078 8.20645 3.24153 7.92648 2.90758 7.89437C2.89149 7.9257 2.87632 7.95865 2.86108 7.98948C3.14437 7.99978 4.05758 8.225 6.86553 9.8344C10.2046 11.7494 10.7736 12.707 10.8601 12.899C10.8832 12.8693 10.9062 12.8405 10.9292 12.8092C10.7794 12.5326 10.0695 11.569 6.91287 9.75785Z" fill="#F5E600"/>
<path d="M10.8567 12.9229L10.8485 12.9047C10.7711 12.7318 10.2161 11.7716 6.8589 9.84639C4.00439 8.20892 3.11135 8.01171 2.86024 8.00226L2.84253 8.00141L2.84994 7.98455C2.86518 7.95244 2.88119 7.92069 2.89643 7.88944L2.89975 7.8816L2.90843 7.88245C3.24809 7.91455 4.22107 8.20031 6.91781 9.74677C10.1017 11.574 10.7999 12.549 10.9383 12.8035L10.9424 12.8108L10.9383 12.8158C10.9153 12.847 10.8914 12.8767 10.8691 12.9072L10.8567 12.9229ZM2.8795 7.97961C3.21098 7.99894 4.16533 8.27397 6.87125 9.82537C10.1346 11.6976 10.7563 12.6626 10.8617 12.8784C10.8799 12.8554 10.898 12.8323 10.9153 12.8092C10.7695 12.5458 10.0588 11.5757 6.90674 9.76899C4.23461 8.23573 3.26001 7.94334 2.91499 7.90799C2.90215 7.93057 2.89058 7.95491 2.8795 7.97961Z" fill="#101211"/>
<path d="M7.31598 9.15261C10.4006 10.9219 11.1475 11.882 11.3212 12.1851C11.3336 12.162 11.346 12.1389 11.3575 12.1142C11.2339 11.8705 10.5801 10.9153 7.37567 9.07648C4.3157 7.32089 3.50542 7.21216 3.30864 7.23318C3.29629 7.25089 3.28352 7.2686 3.27075 7.28631C3.56342 7.29979 4.49357 7.53453 7.31598 9.15261Z" fill="#F5E600"/>
<path d="M11.3212 12.2097L11.3097 12.1907C11.1211 11.8622 10.3561 10.9119 7.30898 9.16411C4.53638 7.57397 3.58775 7.31426 3.26912 7.29979L3.24731 7.29901L3.26996 7.26684C3.27942 7.25365 3.28852 7.24088 3.29797 7.22733L3.30044 7.22317L3.30538 7.22232C3.31893 7.22147 3.33332 7.21985 3.34863 7.21985C3.59241 7.21985 4.47267 7.40019 7.37904 9.06731C10.5786 10.902 11.239 11.8588 11.3658 12.1091L11.3682 12.1141L11.3658 12.1214C11.3542 12.1404 11.3443 12.1626 11.3328 12.1832L11.3212 12.2097ZM3.29169 7.27721C3.63262 7.30071 4.60299 7.58399 7.32083 9.14316C10.3182 10.8633 11.1137 11.8145 11.3196 12.1611C11.3277 12.1455 11.3359 12.1315 11.3426 12.1142C11.2108 11.859 10.5405 10.9071 7.36783 9.08756C4.46639 7.42376 3.59107 7.24342 3.34934 7.24342C3.33657 7.24342 3.32464 7.24426 3.31399 7.24504C3.30693 7.25534 3.29953 7.26606 3.29169 7.27721Z" fill="#101211"/>
<path d="M4.71399 11.9002C5.18707 12.8075 6.00024 13.2671 7.13415 13.2671C8.26758 13.2671 9.08124 12.8075 9.55425 11.9002C9.90753 11.2208 9.92686 10.5299 9.92686 10.5233V6.81479H4.34131V10.5249C4.34131 10.5299 4.35986 11.2215 4.71399 11.9002Z" fill="white"/>
<path d="M9.92703 6.81605V10.5233C9.92703 10.5299 9.9077 11.2215 9.55442 11.9002C9.34776 12.2979 9.06779 12.6141 8.72482 12.8405C8.29379 13.1238 7.75932 13.2671 7.13518 13.2671C6.51138 13.2671 5.97572 13.1238 5.54589 12.8405C5.20171 12.6132 4.92252 12.297 4.71628 11.9002C4.3618 11.2216 4.34325 10.5299 4.34325 10.5249V6.81605H9.92703ZM9.97438 6.76871H4.29541V10.5249C4.29541 10.5249 4.35348 13.3157 7.13511 13.3157C9.91716 13.3157 9.97515 10.5249 9.97515 10.5249V6.76871H9.97438Z" fill="black"/>
<path d="M4.69319 11.91C5.02058 12.5407 5.7102 13.2901 7.13439 13.2901C8.55935 13.2901 9.24946 12.539 9.57628 11.9083C9.93203 11.2224 9.95101 10.5315 9.95101 10.5233V6.79136H4.31812V10.5249C4.31812 10.5315 4.3366 11.2249 4.69319 11.91ZM5.52202 7.99647H8.74668V10.4969C8.74174 10.5694 8.70463 11.0067 8.48025 11.4044C8.30238 11.7222 7.98784 12.0862 7.13432 12.0862C6.28121 12.0862 5.96667 11.7222 5.78795 11.4044C5.56436 11.0066 5.52647 10.5694 5.52195 10.4969L5.52202 7.99647Z" fill="black"/>
<path d="M4.69319 11.91C5.02058 12.5407 5.7102 13.2901 7.13439 13.2901C8.55935 13.2901 9.24946 12.539 9.57628 11.9083C9.93203 11.2224 9.95101 10.5315 9.95101 10.5233V6.79136H4.31812V10.5249C4.31812 10.5315 4.3366 11.2249 4.69319 11.91ZM5.49359 7.96768H8.77546V10.4986C8.7701 10.5695 8.73306 11.0116 8.50622 11.4176C8.38931 11.6268 8.24558 11.7816 8.06771 11.8935C7.83099 12.0401 7.51807 12.1159 7.13432 12.1159C6.75056 12.1159 6.43806 12.0401 6.20177 11.8935C6.02389 11.7807 5.88059 11.6268 5.76326 11.4176C5.53642 11.0125 5.4993 10.5694 5.49437 10.4986V7.96768H5.49359Z" fill="#E32121"/>
<path d="M4.69319 11.91C5.02058 12.5407 5.7102 13.2901 7.13439 13.2901C8.55935 13.2901 9.24946 12.539 9.57628 11.9083C9.93203 11.2224 9.95101 10.5315 9.95101 10.5233V6.79136H4.31812V10.5249C4.31812 10.5315 4.3366 11.2249 4.69319 11.91ZM4.46389 6.93833H9.80404V10.5217C9.80404 10.5563 9.7797 11.2002 9.44667 11.8408C8.99708 12.7055 8.21969 13.1451 7.13446 13.1451C6.05367 13.1451 5.27754 12.7087 4.82753 11.8507C4.49112 11.21 4.46565 10.5546 4.46403 10.5216V6.93833H4.46389Z" fill="black"/>
<path d="M4.69319 11.91C5.02058 12.5407 5.7102 13.2901 7.13439 13.2901C8.55935 13.2901 9.24946 12.539 9.57628 11.9083C9.93203 11.2224 9.95101 10.5315 9.95101 10.5233V6.79136H4.31812V10.5249C4.31812 10.5315 4.3366 11.2249 4.69319 11.91ZM4.4363 6.91032H9.83198V10.5233C9.83113 10.5546 9.80728 11.2076 9.47087 11.8539C9.27204 12.2376 9.00315 12.5424 8.67337 12.7598C8.25835 13.0348 7.73997 13.1731 7.13354 13.1731C6.52993 13.1731 6.01282 13.0348 5.599 12.763C5.26837 12.5472 5.0004 12.2442 4.8003 11.8621C4.46142 11.2148 4.4363 10.5528 4.43552 10.5232V6.91032H4.4363Z" fill="white"/>
<path d="M7.47527 7.55387L7.13434 7.55182L6.79383 7.55387L6.75757 7.85155H7.13434H7.51147L7.47527 7.55387Z" fill="#F5E600"/>
<path d="M7.51799 7.85733H6.7497C6.73735 7.85733 6.72705 7.86805 6.72705 7.87998C6.72705 7.8919 6.73735 7.90263 6.7497 7.90263H7.51799C7.53076 7.90263 7.54064 7.8919 7.54064 7.87998C7.54064 7.86805 7.53154 7.85733 7.51799 7.85733Z" fill="#F5E600"/>
<path d="M7.49459 7.50652H6.77449C6.76666 7.51062 6.76172 7.51845 6.76172 7.5267C6.76172 7.53947 6.77202 7.54935 6.78437 7.54935H7.48351C7.49628 7.54935 7.50616 7.53863 7.50616 7.5267C7.50694 7.51845 7.502 7.51062 7.49459 7.50652Z" fill="#F5E600"/>
<path d="M7.5255 7.23396C7.5255 7.20306 7.5255 7.15 7.5255 7.15H7.46743V7.19283H7.42785V7.15085H7.39821H7.36858V7.19283H7.329V7.15H7.27093V7.23396C7.27093 7.26529 7.30719 7.26691 7.30719 7.26691L7.30063 7.43738H7.23149L7.2245 7.11169C7.2245 7.11169 7.2607 7.11084 7.2607 7.08001C7.2607 7.04783 7.2607 6.99315 7.2607 6.99315H7.20348V7.03683H7.16396V6.99485H7.13433H7.10505V7.03683H7.06511V6.99315H7.00705V7.08001C7.00705 7.11091 7.04324 7.11169 7.04324 7.11169L7.03668 7.43738H6.96753L6.96048 7.26854C6.96048 7.26854 6.99674 7.26691 6.99674 7.23559C6.99674 7.20391 6.99674 7.14993 6.99674 7.14993H6.93875V7.19276H6.89924V7.15078H6.8696H6.83997V7.19276H6.80039V7.14993H6.74316V7.23559C6.74316 7.26684 6.77943 7.26854 6.77943 7.26854L6.77287 7.43738H6.76504C6.75227 7.43738 6.74316 7.44853 6.74316 7.46003C6.74316 7.47195 6.75347 7.48268 6.76504 7.48268H7.50122C7.51477 7.48268 7.52472 7.47195 7.52472 7.46003C7.52472 7.44853 7.514 7.43738 7.50122 7.43738H7.49544L7.48768 7.26691C7.48838 7.26691 7.5255 7.26529 7.5255 7.23396Z" fill="#F5E600"/>
<path d="M6.85347 7.32082C6.85671 7.30925 6.86215 7.30396 6.87033 7.30396C6.87816 7.30396 6.88395 7.30932 6.8872 7.32082C6.88966 7.3295 6.88966 7.33768 6.88966 7.33768V7.38178H6.85178V7.33768C6.851 7.33775 6.851 7.3295 6.85347 7.32082Z" fill="black"/>
<path d="M7.3813 7.32082C7.38462 7.30925 7.39076 7.30396 7.39816 7.30396C7.406 7.30396 7.41171 7.30932 7.41503 7.32082C7.4175 7.3295 7.4175 7.33768 7.4175 7.33768V7.38178H7.37961V7.33768C7.37883 7.33775 7.37883 7.3295 7.3813 7.32082Z" fill="black"/>
<path d="M7.11722 7.22077C7.12046 7.20715 7.12582 7.20221 7.13408 7.20221C7.14269 7.20221 7.14763 7.208 7.15094 7.22077C7.15341 7.23065 7.15341 7.2401 7.15341 7.2401V7.29323H7.11475V7.2401C7.11475 7.24095 7.11475 7.23065 7.11722 7.22077Z" fill="black"/>
<path d="M7.51956 7.83553L7.48823 7.57242C7.5113 7.56995 7.52979 7.5502 7.52979 7.5267C7.52979 7.5164 7.52732 7.50899 7.52196 7.50158C7.5372 7.49375 7.5475 7.47851 7.5475 7.46003C7.5475 7.43653 7.52979 7.41642 7.50594 7.41473L7.501 7.27305C7.51787 7.26938 7.53727 7.25781 7.53727 7.23149V7.138H7.45528V7.17921H7.43842V7.13885H7.35608V7.17921H7.33922V7.138H7.25815V7.23149C7.25815 7.25781 7.27748 7.26938 7.29434 7.27305L7.2894 7.41388H7.24206L7.2355 7.11698C7.25236 7.11289 7.27169 7.10089 7.27169 7.07457V6.98109H7.19062V7.02307H7.17376V6.98271H7.09142V7.02307H7.07456V6.98109H6.99342V7.07457C6.99342 7.10096 7.0136 7.11289 7.02968 7.11698L7.02312 7.41388H6.97655L6.97077 7.27305C6.98763 7.26938 7.00704 7.25781 7.00704 7.23149V7.138H6.9259V7.17921H6.90896V7.13885H6.82662V7.17921H6.80976V7.138H6.72869V7.23149C6.72869 7.25781 6.74802 7.26938 6.76411 7.27305L6.75917 7.41473C6.73532 7.41635 6.71803 7.43568 6.71803 7.46003C6.71803 7.47774 6.72791 7.49382 6.74315 7.50158C6.73821 7.50899 6.73532 7.51725 6.73532 7.5267C6.73532 7.54935 6.75345 7.56995 6.77688 7.57242L6.74562 7.83553C6.72135 7.83553 6.70117 7.85571 6.70117 7.88083C6.70117 7.90637 6.72135 7.92732 6.74732 7.92732H7.51561C7.54073 7.92732 7.5621 7.90714 7.5621 7.88083C7.56443 7.85564 7.5451 7.83553 7.51956 7.83553ZM7.13827 7.6288L7.13418 7.62633L7.13002 7.6288C7.02623 7.66993 7.01353 7.79475 7.01268 7.83468H6.9587C6.96033 7.78981 6.97726 7.62964 7.1267 7.5732H7.14279C7.2935 7.6288 7.30874 7.78974 7.31036 7.83468H7.25645C7.25483 7.79475 7.24206 7.66916 7.13827 7.6288ZM7.23303 7.83468H7.03582C7.03745 7.79884 7.04902 7.68849 7.13425 7.65145C7.21941 7.68849 7.23133 7.79926 7.23303 7.83468ZM7.07364 7.5732C6.95137 7.64651 6.93775 7.79143 6.93528 7.83468H6.77187L6.80277 7.5732H7.07364ZM7.33223 7.83468C7.33061 7.79143 7.31579 7.64651 7.19429 7.5732H7.46565L7.49691 7.83468H7.33223ZM7.28284 7.23227V7.1615H7.31826V7.20306H7.38042V7.16228H7.41669V7.20306H7.47927V7.1615H7.51469V7.23227C7.51469 7.24998 7.49204 7.2516 7.4883 7.2516H7.48583H7.30796C7.30549 7.25167 7.28284 7.24998 7.28284 7.23227ZM7.48336 7.41473H7.3129L7.31826 7.27552H7.47758L7.48336 7.41473ZM7.01889 7.07542V7.00458H7.05431V7.04706H7.11647V7.00628H7.15266V7.04706H7.21525V7.00458H7.24982V7.07542C7.24982 7.09398 7.22675 7.09475 7.22428 7.0956H7.21355H7.05254H7.04471C7.04154 7.0956 7.01889 7.09482 7.01889 7.07542ZM7.21941 7.41388H7.0481L7.05508 7.11952H7.21363L7.21941 7.41388ZM6.75501 7.23227V7.1615H6.78958V7.20306H6.85174V7.16228H6.88801V7.20306H6.95059V7.1615H6.98594V7.23227C6.98594 7.24998 6.96287 7.2516 6.95955 7.2516H6.95793H6.7809H6.78005C6.77766 7.25167 6.75501 7.24998 6.75501 7.23227ZM6.95553 7.41473H6.78422L6.78958 7.27552H6.94897L6.95553 7.41473ZM6.74386 7.45996C6.74386 7.4493 6.75127 7.44062 6.76157 7.43815C6.76319 7.43815 6.76488 7.43731 6.76651 7.43731H7.5027C7.51624 7.43731 7.52534 7.44845 7.52534 7.45996C7.52534 7.47188 7.51547 7.4826 7.5027 7.4826H6.76651C6.75289 7.48387 6.74386 7.4728 6.74386 7.45996ZM6.76157 7.5267C6.76157 7.51725 6.76651 7.50984 6.77434 7.50652H7.49451C7.50192 7.51061 7.50686 7.51845 7.50686 7.5267C7.50686 7.53947 7.49698 7.54935 7.48421 7.54935H6.78506C6.77187 7.5502 6.76157 7.53947 6.76157 7.5267ZM7.51794 7.9034H6.74964C6.7373 7.9034 6.727 7.89275 6.727 7.88076C6.727 7.86925 6.7373 7.85811 6.74964 7.85811H7.51794C7.53071 7.85811 7.54059 7.86925 7.54059 7.88076C7.54059 7.89275 7.53148 7.9034 7.51794 7.9034Z" fill="black"/>
<path d="M5.32647 7.55387L4.98597 7.55182L4.64504 7.55387L4.60962 7.85155H4.98597H5.36267L5.32647 7.55387Z" fill="#F5E600"/>
<path d="M5.3704 7.85733H4.60126C4.58849 7.85733 4.57861 7.86805 4.57861 7.87998C4.57861 7.8919 4.58849 7.90263 4.60126 7.90263H5.3704C5.38275 7.90263 5.39305 7.8919 5.39305 7.87998C5.39305 7.86805 5.38275 7.85733 5.3704 7.85733Z" fill="#F5E600"/>
<path d="M5.34573 7.50652H4.62563C4.61822 7.51062 4.61328 7.51845 4.61328 7.5267C4.61328 7.53947 4.62316 7.54935 4.63593 7.54935H5.33585C5.34862 7.54935 5.3585 7.53863 5.3585 7.5267C5.3585 7.51845 5.35356 7.51062 5.34573 7.50652Z" fill="#F5E600"/>
<path d="M5.37693 7.23396C5.37693 7.20306 5.37693 7.15 5.37693 7.15H5.31886V7.19283H5.27928V7.15085H5.24964H5.22001V7.19283H5.18043V7.15H5.12243V7.23396C5.12243 7.26529 5.1587 7.26691 5.1587 7.26691L5.15171 7.43738H5.08257L5.076 7.11169C5.076 7.11169 5.1122 7.11084 5.1122 7.08001C5.1122 7.04783 5.1122 6.99315 5.1122 6.99315H5.0542V7.03683H5.01462V6.99485H4.98499H4.95535V7.03683H4.91584V6.99315H4.85777V7.08001C4.85777 7.11091 4.89482 7.11169 4.89482 7.11169L4.88698 7.43738H4.81784L4.81121 7.26854C4.81121 7.26854 4.84747 7.26691 4.84747 7.23559C4.84747 7.20391 4.84747 7.14993 4.84747 7.14993H4.7894V7.19276H4.74947V7.15078H4.72019H4.69055V7.19276H4.65104V7.14993H4.59375V7.23559C4.59375 7.26684 4.63002 7.26854 4.63002 7.26854L4.62303 7.43738H4.61647C4.6037 7.43738 4.59382 7.44853 4.59382 7.46003C4.59382 7.47195 4.6037 7.48268 4.61647 7.48268H5.35343C5.3662 7.48268 5.37608 7.47195 5.37608 7.46003C5.37608 7.44853 5.36493 7.43738 5.35343 7.43738H5.34638L5.33904 7.26691C5.33982 7.26691 5.37693 7.26529 5.37693 7.23396Z" fill="#F5E600"/>
<path d="M4.70601 7.32082C4.70925 7.30925 4.71426 7.30396 4.72287 7.30396C4.73113 7.30396 4.73642 7.30932 4.73973 7.32082C4.7422 7.3295 4.7422 7.33768 4.7422 7.33768V7.38178H4.70431V7.33768C4.70354 7.33775 4.70354 7.3295 4.70601 7.32082Z" fill="black"/>
<path d="M5.23384 7.32082C5.23716 7.30925 5.24329 7.30396 5.2507 7.30396C5.25811 7.30396 5.26425 7.30932 5.26757 7.32082C5.27004 7.3295 5.27004 7.33768 5.27004 7.33768V7.38178H5.23215V7.33768C5.23137 7.33775 5.23137 7.3295 5.23384 7.32082Z" fill="black"/>
<path d="M4.96997 7.22077C4.97322 7.20715 4.97816 7.20221 4.98684 7.20221C4.99502 7.20221 5.00038 7.208 5.0037 7.22077C5.00617 7.23065 5.00617 7.2401 5.00617 7.2401V7.29323H4.96828V7.2401C4.96743 7.24095 4.96743 7.23065 4.96997 7.22077Z" fill="black"/>
<path d="M5.37213 7.83553L5.33996 7.57242C5.36345 7.56995 5.38109 7.5502 5.38109 7.5267C5.38109 7.5164 5.37862 7.50899 5.37368 7.50158C5.38977 7.49375 5.39965 7.47851 5.39965 7.46003C5.39965 7.43653 5.38194 7.41642 5.35851 7.41473L5.35273 7.27305C5.36959 7.26938 5.38899 7.25781 5.38899 7.23149V7.138H5.30701V7.17921H5.29014V7.13885H5.20865V7.17921H5.19179V7.138H5.11072V7.23149C5.11072 7.25781 5.13005 7.26938 5.14691 7.27305L5.14113 7.41388H5.09378L5.08722 7.11698C5.10409 7.11289 5.12342 7.10089 5.12342 7.07457V6.98109H5.04235V7.02307H5.02549V6.98271H4.9435V7.02307H4.92706V6.98109H4.84761V7.07457C4.84761 7.10096 4.86779 7.11289 4.88388 7.11698L4.87725 7.41388H4.83075L4.82496 7.27305C4.84183 7.26938 4.86116 7.25781 4.86116 7.23149V7.138H4.78009V7.17921H4.76323V7.13885H4.68089V7.17921H4.66395V7.138H4.58281V7.23149C4.58281 7.25781 4.60215 7.26938 4.61816 7.27305L4.61238 7.41473C4.58853 7.41635 4.57082 7.43568 4.57082 7.46003C4.57082 7.47774 4.58112 7.49382 4.59636 7.50158C4.591 7.50899 4.58853 7.51725 4.58853 7.5267C4.58853 7.54935 4.60624 7.56995 4.63009 7.57242L4.59883 7.83553C4.57406 7.83553 4.55396 7.85571 4.55396 7.88083C4.55396 7.90637 4.57413 7.92732 4.60052 7.92732H5.36959C5.39471 7.92732 5.41566 7.90714 5.41566 7.88083C5.41658 7.85564 5.39633 7.83553 5.37213 7.83553ZM4.99 7.6288L4.9859 7.62633L4.98174 7.6288C4.87718 7.66993 4.86525 7.79475 4.86356 7.83468H4.81043C4.81205 7.78981 4.82899 7.62964 4.978 7.5732H4.99324C5.14437 7.6288 5.15954 7.78974 5.16124 7.83468H5.10811C5.10655 7.79475 5.09378 7.66916 4.99 7.6288ZM5.08553 7.83468H4.88705C4.88868 7.79884 4.90067 7.68849 4.9859 7.65145C5.07114 7.68849 5.08348 7.79926 5.08553 7.83468ZM4.92579 7.5732C4.80351 7.64651 4.78947 7.79143 4.78785 7.83468H4.62317L4.65443 7.5732H4.92579ZM5.18396 7.83468C5.18233 7.79143 5.16709 7.64651 5.04559 7.5732H5.31738L5.34864 7.83468H5.18396ZM5.13414 7.23227V7.1615H5.16956V7.20306H5.23215V7.16228H5.26757V7.20306H5.32973V7.1615H5.36557V7.23227C5.36557 7.24998 5.3425 7.2516 5.34003 7.2516H5.33678H5.15975C5.15714 7.25167 5.13414 7.24998 5.13414 7.23227ZM5.33586 7.41473H5.1654L5.17119 7.27552H5.32966L5.33586 7.41473ZM4.87019 7.07542V7.00458H4.90561V7.04706H4.96819V7.00628H5.00361V7.04706H5.06577V7.00458H5.10162V7.07542C5.10162 7.09398 5.07854 7.09475 5.07607 7.0956H5.06493H4.90392H4.89566C4.89326 7.0956 4.87019 7.09482 4.87019 7.07542ZM5.07191 7.41388H4.89982L4.90639 7.11952H5.06493L5.07191 7.41388ZM4.60631 7.23227V7.1615H4.64088V7.20306H4.70346V7.16228H4.73973V7.20306H4.80189V7.1615H4.83724V7.23227C4.83724 7.24998 4.81459 7.2516 4.81212 7.2516H4.8105H4.63347H4.63263C4.62931 7.25167 4.60631 7.24998 4.60631 7.23227ZM4.80803 7.41473H4.63672L4.6425 7.27552H4.80104L4.80803 7.41473ZM4.59558 7.45996C4.59558 7.4493 4.60299 7.44062 4.61329 7.43815C4.61492 7.43815 4.61661 7.43731 4.61823 7.43731H5.35442C5.36719 7.43731 5.37707 7.44845 5.37707 7.45996C5.37707 7.47188 5.36719 7.4826 5.35442 7.4826H4.61823C4.60462 7.48387 4.59558 7.4728 4.59558 7.45996ZM4.61329 7.5267C4.61329 7.51725 4.61823 7.50984 4.62564 7.50652H5.34581C5.35364 7.51061 5.35858 7.51845 5.35858 7.5267C5.35858 7.53947 5.34871 7.54935 5.33593 7.54935H4.63601C4.62317 7.5502 4.61329 7.53947 4.61329 7.5267ZM5.37044 7.9034H4.6013C4.58853 7.9034 4.57865 7.89275 4.57865 7.88076C4.57865 7.86925 4.58853 7.85811 4.6013 7.85811H5.37044C5.38278 7.85811 5.39309 7.86925 5.39309 7.88076C5.39309 7.89275 5.38278 7.9034 5.37044 7.9034Z" fill="black"/>
<path d="M5.32647 9.7208L4.98597 9.71918L4.64504 9.7208L4.60962 10.0193H4.98597H5.36267L5.32647 9.7208Z" fill="#F5E600"/>
<path d="M5.3704 10.0259H4.60126C4.58849 10.0259 4.57861 10.0358 4.57861 10.049C4.57861 10.0605 4.58849 10.0721 4.60126 10.0721H5.3704C5.38275 10.0721 5.39305 10.0597 5.39305 10.049C5.39305 10.0358 5.38275 10.0259 5.3704 10.0259Z" fill="#F5E600"/>
<path d="M5.34573 9.67346H4.62563C4.61822 9.67798 4.61328 9.68538 4.61328 9.69364C4.61328 9.70641 4.62316 9.71671 4.63593 9.71671H5.33585C5.34862 9.71671 5.3585 9.70563 5.3585 9.69364C5.3585 9.68538 5.35356 9.67798 5.34573 9.67346Z" fill="#F5E600"/>
<path d="M5.37693 9.4021C5.37693 9.37077 5.37693 9.31687 5.37693 9.31687H5.31886V9.35969H5.27928V9.31856H5.24964H5.22001V9.35969H5.18043V9.31687H5.12243V9.4021L5.1587 9.4342L5.15171 9.60424H5.08257L5.076 9.27982C5.076 9.27982 5.1122 9.27898 5.1122 9.24687C5.1122 9.21477 5.1122 9.16087 5.1122 9.16087H5.0542V9.20489H5.01462V9.16171H4.98499H4.95535V9.20489H4.91584V9.16087H4.85777V9.24687C4.85777 9.27982 4.89482 9.27982 4.89482 9.27982L4.88698 9.60424H4.81784L4.81121 9.43582C4.81121 9.43582 4.84747 9.4342 4.84747 9.40287C4.84747 9.37155 4.84747 9.3168 4.84747 9.3168H4.7894V9.36047H4.74947V9.31849H4.72019H4.69055V9.36047H4.65104V9.3168H4.59375V9.40287C4.59375 9.43498 4.63002 9.43582 4.63002 9.43582L4.62303 9.60424H4.61647C4.6037 9.60424 4.59382 9.61539 4.59382 9.62732C4.59382 9.63882 4.6037 9.64996 4.61647 9.64996H5.35343C5.3662 9.64996 5.37608 9.63882 5.37608 9.62732C5.37608 9.61539 5.36493 9.60424 5.35343 9.60424H5.34638L5.33904 9.4342C5.33982 9.4342 5.37693 9.43343 5.37693 9.4021Z" fill="#F5E600"/>
<path d="M4.70601 9.48895C4.70925 9.47788 4.71426 9.47209 4.72287 9.47209C4.73113 9.47209 4.73642 9.47788 4.73973 9.48895C4.7422 9.49721 4.7422 9.50582 4.7422 9.50582V9.54949H4.70431V9.50582C4.70354 9.50504 4.70354 9.49643 4.70601 9.48895Z" fill="black"/>
<path d="M5.23384 9.48895C5.23716 9.47788 5.24329 9.47209 5.2507 9.47209C5.25811 9.47209 5.26425 9.47788 5.26757 9.48895C5.27004 9.49721 5.27004 9.50582 5.27004 9.50582V9.54949H5.23215V9.50582C5.23137 9.50504 5.23137 9.49643 5.23384 9.48895Z" fill="black"/>
<path d="M4.96997 9.38771C4.97322 9.37493 4.97816 9.36922 4.98684 9.36922C4.99502 9.36922 5.00038 9.37578 5.0037 9.38771C5.00617 9.39801 5.00617 9.40704 5.00617 9.40704V9.46017H4.96828V9.40704C4.96743 9.40788 4.96743 9.39801 4.96997 9.38771Z" fill="black"/>
<path d="M5.37213 10.0029L5.33996 9.73936C5.36345 9.73689 5.38109 9.71833 5.38109 9.69364C5.38109 9.68376 5.37862 9.67593 5.37368 9.66852C5.38977 9.66069 5.39965 9.64587 5.39965 9.62739C5.39965 9.60354 5.38194 9.58329 5.35851 9.58174L5.35273 9.44006C5.36959 9.43681 5.38899 9.42482 5.38899 9.39892V9.30501H5.30701V9.34742H5.29014V9.30586H5.20865V9.34742H5.19179V9.30501H5.11072V9.39892C5.11072 9.42489 5.13005 9.43681 5.14691 9.44006L5.14113 9.58089H5.09378L5.08722 9.28399C5.10409 9.28067 5.12342 9.26875 5.12342 9.24285V9.14894H5.04235V9.19135H5.02549V9.15021H4.9435V9.19135H4.92706V9.14894H4.84761V9.24285C4.84761 9.26882 4.86779 9.28074 4.88388 9.28399L4.87725 9.58089H4.83075L4.82496 9.44006C4.84183 9.43681 4.86116 9.42482 4.86116 9.39892V9.30501H4.78009V9.34742H4.76323V9.30586H4.68089V9.34742H4.66395V9.30501H4.58281V9.39892C4.58281 9.42489 4.60215 9.43681 4.61816 9.44006L4.61238 9.58174C4.58853 9.58336 4.57082 9.60269 4.57082 9.62739C4.57082 9.6451 4.58112 9.66076 4.59636 9.66852C4.591 9.67593 4.58853 9.68461 4.58853 9.69364C4.58853 9.71749 4.60624 9.73689 4.63009 9.73936L4.59883 10.0029C4.57406 10.0029 4.55396 10.0218 4.55396 10.049C4.55396 10.0737 4.57413 10.0951 4.60052 10.0951H5.36959C5.39471 10.0951 5.41566 10.0737 5.41566 10.049C5.41658 10.0226 5.39633 10.0029 5.37213 10.0029ZM4.99 9.79573L4.9859 9.79411L4.98174 9.79573C4.87718 9.83729 4.86525 9.96168 4.86356 10.0029H4.81043C4.81205 9.95837 4.82899 9.79658 4.978 9.74098H4.99324C5.14437 9.79743 5.15954 9.95674 5.16124 10.0029H5.10811C5.10655 9.96168 5.09378 9.83729 4.99 9.79573ZM5.08553 10.0029H4.88705C4.88868 9.96662 4.90067 9.85592 4.9859 9.81881C5.07114 9.85585 5.08348 9.96662 5.08553 10.0029ZM4.92579 9.74014C4.80351 9.81344 4.78947 9.95999 4.78785 10.0029H4.62317L4.65443 9.74014H4.92579ZM5.18396 10.0029C5.18233 9.96006 5.16709 9.81344 5.04559 9.74014H5.31738L5.34864 10.0029H5.18396ZM5.13414 9.39963V9.32886H5.16956V9.37084H5.23215V9.33048H5.26757V9.37084H5.32973V9.32886H5.36557V9.39963C5.36557 9.41734 5.3425 9.41896 5.34003 9.41896H5.33678H5.15975C5.15714 9.41981 5.13414 9.41818 5.13414 9.39963ZM5.33586 9.58166H5.1654L5.17119 9.44246H5.32966L5.33586 9.58166ZM4.87019 9.2444V9.17357H4.90561V9.21555H4.96819V9.17441H5.00361V9.21555H5.06577V9.17357H5.10162V9.2444C5.10162 9.26211 5.07854 9.26374 5.07607 9.26374L5.06493 9.26458H4.90392L4.89566 9.26374C4.89326 9.26374 4.87019 9.26211 4.87019 9.2444ZM5.07191 9.58082H4.89982L4.90639 9.28723H5.06493L5.07191 9.58082ZM4.60631 9.39963V9.32886H4.64088V9.37084H4.70346V9.33048H4.73973V9.37084H4.80189V9.32886H4.83724V9.39963C4.83724 9.41734 4.81459 9.41896 4.81212 9.41896H4.8105H4.63347H4.63263C4.62931 9.41981 4.60631 9.41818 4.60631 9.39963ZM4.80803 9.58166H4.63672L4.6425 9.44246H4.80104L4.80803 9.58166ZM4.59558 9.62816C4.59558 9.61701 4.60299 9.60961 4.61329 9.60594C4.61492 9.60594 4.61661 9.60509 4.61823 9.60509H5.35442C5.36719 9.60509 5.37707 9.61624 5.37707 9.62816C5.37707 9.63966 5.36719 9.65081 5.35442 9.65081H4.61823C4.60462 9.65081 4.59558 9.63966 4.59558 9.62816ZM4.61329 9.69442C4.61329 9.68538 4.61823 9.67798 4.62564 9.67424H5.34581C5.35364 9.67875 5.35858 9.68616 5.35858 9.69442C5.35858 9.70719 5.34871 9.71749 5.33593 9.71749H4.63601C4.62317 9.71749 4.61329 9.70634 4.61329 9.69442ZM5.37044 10.072H4.6013C4.58853 10.072 4.57865 10.0605 4.57865 10.0498C4.57865 10.0358 4.58853 10.0267 4.6013 10.0267H5.37044C5.38278 10.0267 5.39309 10.0375 5.39309 10.0498C5.39309 10.0605 5.38278 10.072 5.37044 10.072Z" fill="black"/>
<path d="M5.79628 11.7568L5.5542 11.9956L5.31494 12.2377L5.50022 12.4748L5.7658 12.2081L6.03222 11.9429L5.79628 11.7568Z" fill="#F5E600"/>
<path d="M6.04239 11.9413L5.49847 12.4848C5.48944 12.493 5.48944 12.5078 5.49847 12.5177C5.50793 12.5259 5.52197 12.5259 5.53142 12.5177L6.07534 11.9742C6.08438 11.9644 6.08438 11.9496 6.07534 11.9413C6.06582 11.9314 6.05185 11.9314 6.04239 11.9413Z" fill="#F5E600"/>
<path d="M5.77675 11.7091L5.26747 12.2196C5.265 12.2262 5.26663 12.2361 5.27241 12.2418C5.28102 12.2509 5.29626 12.2509 5.30536 12.2418L5.7994 11.7461C5.80893 11.7379 5.80893 11.7239 5.7994 11.7149C5.79446 11.7091 5.78494 11.7074 5.77675 11.7091Z" fill="#F5E600"/>
<path d="M5.6064 11.495C5.58453 11.4735 5.54748 11.4356 5.54748 11.4356L5.50593 11.4768L5.53641 11.5065L5.50797 11.5344L5.47834 11.5048L5.45731 11.5262L5.43593 11.5477L5.46557 11.5773L5.43798 11.6045L5.4075 11.5732L5.36714 11.6153C5.36714 11.6153 5.40418 11.6531 5.42683 11.6737C5.44863 11.6959 5.4758 11.672 5.4758 11.672L5.59193 11.7964L5.54339 11.845L5.30872 11.6201C5.30872 11.6201 5.33426 11.5946 5.31119 11.5707C5.28854 11.5494 5.25065 11.5098 5.25065 11.5098L5.20952 11.551L5.24042 11.5823L5.21283 11.6102L5.18235 11.5806L5.16217 11.6003L5.14122 11.6217L5.17127 11.6514L5.14369 11.6786L5.11236 11.6498L5.072 11.6893C5.072 11.6893 5.10989 11.7289 5.13254 11.7495C5.15519 11.7725 5.18151 11.7479 5.18151 11.7479L5.40672 11.9817L5.35769 12.0311L5.23379 11.9158C5.23379 11.9158 5.25891 11.8894 5.23626 11.8656C5.21361 11.845 5.17572 11.8071 5.17572 11.8071L5.13494 11.8467L5.16619 11.8779L5.13783 11.9051L5.1082 11.8763L5.08724 11.8969L5.06664 11.9167L5.09627 11.9463L5.06869 11.9742L5.0382 11.9446L4.99707 11.9858C4.99707 11.9858 5.03496 12.0236 5.05761 12.0451C5.08026 12.0673 5.10657 12.0435 5.10657 12.0435L5.22109 12.1662L5.21615 12.171C5.20789 12.1818 5.20789 12.1958 5.21615 12.204C5.2244 12.2147 5.23964 12.2147 5.24825 12.204L5.7691 11.6845C5.77778 11.6754 5.77778 11.6614 5.7691 11.6514C5.76007 11.6424 5.74561 11.6424 5.73658 11.6514L5.73121 11.6564L5.60647 11.5402C5.60393 11.5444 5.6282 11.518 5.6064 11.495Z" fill="#F5E600"/>
<path d="M5.19347 12.0319C5.18811 12.0219 5.18811 12.0138 5.19347 12.0088C5.19926 12.0022 5.20667 12.0022 5.21697 12.0088C5.22438 12.0121 5.23052 12.0179 5.23052 12.0195L5.26184 12.0483L5.23468 12.0763L5.20342 12.045C5.20251 12.045 5.19757 12.0385 5.19347 12.0319Z" fill="black"/>
<path d="M5.56669 11.658C5.56175 11.6481 5.56175 11.6399 5.56669 11.6349C5.57163 11.6301 5.58031 11.6301 5.58934 11.6349C5.59717 11.6383 5.60289 11.6449 5.60289 11.6449L5.63414 11.6761L5.60698 11.7025L5.57565 11.6712C5.57579 11.6712 5.57001 11.6662 5.56669 11.658Z" fill="black"/>
<path d="M5.30862 11.7749C5.30205 11.7634 5.30121 11.7535 5.30615 11.7486C5.31193 11.7437 5.32061 11.7437 5.33169 11.7502C5.33994 11.7551 5.34735 11.7634 5.34735 11.7634L5.38482 11.7997L5.35765 11.8276L5.32061 11.7897C5.32054 11.7897 5.31391 11.7832 5.30862 11.7749Z" fill="black"/>
<path d="M6.02713 11.9232L5.81963 11.7601C5.83487 11.7428 5.83402 11.7157 5.81716 11.6999C5.8106 11.6926 5.80276 11.6876 5.79451 11.6859C5.79945 11.6695 5.79613 11.6514 5.78336 11.6382C5.7665 11.6217 5.73976 11.6217 5.72205 11.6366L5.61826 11.541C5.62729 11.5262 5.6335 11.5048 5.61494 11.485L5.54827 11.4199L5.49104 11.4768L5.52033 11.5065L5.50875 11.518L5.47997 11.4892L5.4219 11.5477L5.45026 11.5756L5.43876 11.5871L5.40913 11.5575L5.35191 11.6151L5.41858 11.681C5.43714 11.7007 5.45894 11.6942 5.47334 11.6859L5.56845 11.7897L5.5355 11.8226L5.32143 11.6168C5.33088 11.6035 5.33667 11.5805 5.31811 11.5632L5.25143 11.4957L5.19421 11.5525L5.22342 11.5822L5.21185 11.5946L5.18306 11.5666L5.125 11.6234L5.15343 11.6514L5.14186 11.6654L5.11223 11.6357L5.055 11.6909L5.12168 11.7584C5.14024 11.7765 5.16204 11.7708 5.17643 11.7617L5.38105 11.9758L5.34767 12.0087L5.24396 11.9141C5.25221 11.9001 5.25877 11.8778 5.24022 11.8605L5.17396 11.7946L5.11717 11.8498L5.1468 11.8794L5.13487 11.8934L5.10644 11.8638L5.04795 11.9205L5.07681 11.9503L5.06488 11.9626L5.03567 11.933L4.97803 11.9898L5.0447 12.0557C5.06326 12.073 5.08549 12.0696 5.09946 12.059L5.19499 12.1628C5.17975 12.1801 5.1806 12.2097 5.19746 12.2245C5.21023 12.2385 5.22872 12.2418 5.2448 12.2369C5.24642 12.246 5.25059 12.2542 5.25715 12.2591C5.27401 12.2764 5.3004 12.2764 5.31889 12.2632L5.4823 12.47C5.46543 12.4881 5.46543 12.5169 5.48314 12.5326C5.50085 12.5507 5.53049 12.5507 5.5482 12.5326L6.09212 11.9891C6.10983 11.9709 6.10983 11.943 6.09212 11.9249C6.07363 11.9066 6.04477 11.9066 6.02713 11.9232ZM5.61127 12.0467L5.60718 12.05L5.60556 12.0533C5.56111 12.1554 5.64098 12.2543 5.66814 12.2822L5.63025 12.3201C5.59977 12.2872 5.49845 12.1611 5.56358 12.0171L5.5743 12.0055C5.72127 11.9396 5.84602 12.0418 5.87812 12.0714L5.84023 12.1093C5.81137 12.0829 5.71422 12.0022 5.61127 12.0467ZM5.82499 12.1257L5.68501 12.2657C5.66031 12.2393 5.59116 12.1537 5.62489 12.0665C5.71175 12.0335 5.79775 12.1027 5.82499 12.1257ZM5.52724 12.0533C5.49267 12.1916 5.58531 12.3052 5.61494 12.3366L5.49845 12.4535L5.33582 12.246L5.52724 12.0533ZM5.89491 12.0565C5.86365 12.0269 5.75041 11.9346 5.61247 11.9692L5.80432 11.7758L6.01105 11.938L5.89491 12.0565ZM5.4334 11.6646L5.38316 11.6152L5.40744 11.5905L5.43707 11.6201L5.48152 11.5757L5.45316 11.5477L5.47827 11.5213L5.50713 11.551L5.55074 11.5065L5.5211 11.4769L5.5458 11.4521L5.59561 11.5015C5.6088 11.5148 5.59399 11.5328 5.59187 11.5345L5.5894 11.5361L5.46459 11.6613C5.46303 11.6646 5.44617 11.6778 5.4334 11.6646ZM5.70434 11.6514L5.58369 11.7741L5.48942 11.6703L5.6014 11.5583L5.70434 11.6514ZM5.13657 11.742L5.08633 11.6909L5.1106 11.6678L5.14024 11.6958L5.18391 11.6513L5.15548 11.6234L5.1806 11.5986L5.20945 11.6266L5.2539 11.5822L5.22427 11.5525L5.24896 11.5278L5.29962 11.5788C5.31317 11.592 5.298 11.6085 5.29511 11.6101L5.2877 11.6183L5.17403 11.732L5.1679 11.7393C5.1662 11.7403 5.14927 11.7552 5.13657 11.742ZM5.51694 11.8375L5.39551 11.9594L5.19252 11.747L5.30449 11.6349L5.51694 11.8375ZM5.05994 12.0384L5.00928 11.9891L5.03398 11.9644L5.06319 11.994L5.10806 11.9495L5.07921 11.9198L5.10475 11.8951L5.13318 11.9231L5.17806 11.8786L5.14842 11.849L5.17312 11.8259L5.22335 11.8762C5.23697 11.8894 5.22173 11.905 5.22011 11.9066L5.21926 11.9083L5.09367 12.0334L5.09282 12.035C5.09042 12.0368 5.07356 12.0516 5.05994 12.0384ZM5.33046 12.0253L5.21023 12.1455L5.11554 12.0434L5.22794 11.9314L5.33046 12.0253ZM5.21355 12.2081C5.20571 12.1999 5.20494 12.1883 5.21108 12.1801C5.21185 12.1785 5.2127 12.1768 5.21355 12.1752L5.73482 11.6548C5.74307 11.6466 5.75831 11.6466 5.76734 11.6548C5.77602 11.6655 5.77602 11.6795 5.76734 11.6877L5.2465 12.2081C5.23619 12.218 5.2218 12.218 5.21355 12.2081ZM5.27324 12.2426C5.26745 12.2361 5.26583 12.2262 5.2683 12.2196L5.77758 11.7099C5.78583 11.7082 5.79529 11.7099 5.80107 11.7173C5.81053 11.7255 5.81053 11.7394 5.80107 11.7478L5.30703 12.2443C5.29708 12.2509 5.28184 12.2509 5.27324 12.2426ZM6.07532 11.9742L5.5314 12.5177C5.52195 12.5259 5.50791 12.5259 5.49845 12.5177C5.48942 12.5077 5.48942 12.4929 5.49845 12.4847L6.04237 11.9412C6.05183 11.9313 6.06587 11.9313 6.07532 11.9412C6.08351 11.9495 6.08351 11.9644 6.07532 11.9742Z" fill="black"/>
<path d="M9.62339 7.55387L9.28169 7.55182L8.94118 7.55387L8.90576 7.85155H9.28169H9.65881L9.62339 7.55387Z" fill="#F5E600"/>
<path d="M9.6663 7.85733H8.89758C8.88481 7.85733 8.87451 7.86805 8.87451 7.87998C8.87451 7.8919 8.88481 7.90263 8.89758 7.90263H9.6663C9.67907 7.90263 9.68937 7.8919 9.68937 7.87998C9.68937 7.86805 9.67907 7.85733 9.6663 7.85733Z" fill="#F5E600"/>
<path d="M9.64286 7.50652H8.92268C8.91527 7.51062 8.90991 7.51845 8.90991 7.5267C8.90991 7.53947 8.92021 7.54935 8.93298 7.54935H9.63255C9.6461 7.54935 9.65563 7.53863 9.65563 7.5267C9.65563 7.51845 9.65026 7.51062 9.64286 7.50652Z" fill="#F5E600"/>
<path d="M9.67424 7.23396C9.67424 7.20306 9.67424 7.15 9.67424 7.15H9.61575V7.19283H9.57617V7.15085H9.54654H9.51732V7.19283H9.47774V7.15H9.4201V7.23396C9.4201 7.26529 9.45636 7.26691 9.45636 7.26691L9.4498 7.43738H9.38066L9.37325 7.11169C9.37325 7.11169 9.41029 7.11084 9.41029 7.08001C9.41029 7.04783 9.41029 6.99315 9.41029 6.99315H9.3518V7.03683H9.31229V6.99485H9.28308H9.25422V7.03683H9.21386V6.99315H9.15622V7.08001C9.15622 7.11091 9.19241 7.11169 9.19241 7.11169L9.18585 7.43738H9.1167L9.11014 7.26854C9.11014 7.26854 9.14641 7.26691 9.14641 7.23559C9.14641 7.20391 9.14641 7.14993 9.14641 7.14993H9.08792V7.19276H9.04841V7.15078H9.01877H8.98949V7.19276H8.94998V7.14993H8.89233V7.23559C8.89233 7.26684 8.9286 7.26854 8.9286 7.26854L8.92197 7.43738H8.91541C8.90264 7.43738 8.89233 7.44853 8.89233 7.46003C8.89233 7.47195 8.90264 7.48268 8.91541 7.48268H9.65159C9.66394 7.48268 9.67424 7.47195 9.67424 7.46003C9.67424 7.44853 9.66394 7.43738 9.65159 7.43738H9.64454L9.63798 7.26691C9.63713 7.26691 9.67424 7.26529 9.67424 7.23396Z" fill="#F5E600"/>
<path d="M9.00207 7.32082C9.00531 7.30925 9.01032 7.30396 9.01851 7.30396C9.02719 7.30396 9.03213 7.30932 9.03537 7.32082C9.03826 7.3295 9.03826 7.33768 9.03826 7.33768V7.38178H8.99995V7.33768C8.99917 7.33775 8.99917 7.3295 9.00207 7.32082Z" fill="black"/>
<path d="M9.5299 7.32082C9.53322 7.30925 9.53815 7.30396 9.54634 7.30396C9.55417 7.30396 9.55989 7.30932 9.5632 7.32082C9.5661 7.3295 9.5661 7.33768 9.5661 7.33768V7.38178H9.52778V7.33768C9.52701 7.33775 9.52701 7.3295 9.5299 7.32082Z" fill="black"/>
<path d="M9.26621 7.22077C9.26945 7.20715 9.27524 7.20221 9.28307 7.20221C9.29048 7.20221 9.29627 7.208 9.29951 7.22077C9.3024 7.23065 9.3024 7.2401 9.3024 7.2401V7.29323H9.26416V7.2401C9.26332 7.24095 9.26332 7.23065 9.26621 7.22077Z" fill="black"/>
<path d="M9.66793 7.83553L9.63703 7.57242C9.65968 7.56995 9.67816 7.5502 9.67816 7.5267C9.67816 7.5164 9.67569 7.50899 9.67075 7.50158C9.68557 7.49375 9.69672 7.47851 9.69672 7.46003C9.69672 7.43653 9.67816 7.41642 9.65558 7.41473L9.64944 7.27305C9.66631 7.26938 9.68571 7.25781 9.68571 7.23149V7.138H9.60499V7.17921H9.58813V7.13885H9.50621V7.17921H9.48935V7.138H9.40864V7.23149C9.40864 7.25781 9.42797 7.26938 9.4449 7.27305L9.43876 7.41388H9.39262L9.38486 7.11698C9.40172 7.11289 9.4219 7.10089 9.4219 7.07457V6.98109H9.34041V7.02307H9.32354V6.98271H9.24078V7.02307H9.22392V6.98109H9.1432V7.07457C9.1432 7.10096 9.16253 7.11289 9.17947 7.11698L9.17248 7.41388H9.12634L9.1202 7.27305C9.13706 7.26938 9.15647 7.25781 9.15647 7.23149V7.138H9.07575V7.17921H9.05889V7.13885H8.97697V7.17921H8.96011V7.138H8.87904V7.23149C8.87904 7.25781 8.89879 7.26938 8.91566 7.27305L8.90952 7.41473C8.88602 7.41635 8.86838 7.43568 8.86838 7.46003C8.86838 7.47774 8.87826 7.49382 8.89435 7.50158C8.88941 7.50899 8.88694 7.51725 8.88694 7.5267C8.88694 7.54935 8.90465 7.56995 8.92807 7.57242L8.89717 7.83553C8.8724 7.83553 8.85229 7.85571 8.85229 7.88083C8.85229 7.90637 8.87325 7.92732 8.89879 7.92732H9.66751C9.69305 7.92732 9.714 7.90714 9.714 7.88083C9.7128 7.85564 9.69347 7.83553 9.66793 7.83553ZM9.28707 7.6288L9.28255 7.62633L9.27839 7.6288C9.1746 7.66993 9.16225 7.79475 9.1602 7.83468H9.10708C9.10912 7.78981 9.12479 7.62964 9.27507 7.5732H9.29031C9.44222 7.6288 9.45704 7.78974 9.45788 7.83468H9.40475C9.4032 7.79475 9.39085 7.66916 9.28707 7.6288ZM9.38055 7.83468H9.18335C9.18497 7.79884 9.19689 7.68849 9.28177 7.65145C9.36785 7.68849 9.37971 7.79926 9.38055 7.83468ZM9.22208 7.5732C9.09981 7.64651 9.08534 7.79143 9.08372 7.83468H8.91947L8.95072 7.5732H9.22208ZM9.48103 7.83468C9.4794 7.79143 9.46416 7.64651 9.34266 7.5732H9.61403L9.64528 7.83468H9.48103ZM9.43121 7.23227V7.1615H9.46579V7.20306H9.52915V7.16228H9.56456V7.20306H9.62673V7.1615H9.66214V7.23227C9.66214 7.24998 9.6395 7.2516 9.63625 7.2516H9.63336H9.45633C9.45301 7.25167 9.43121 7.24998 9.43121 7.23227ZM9.63173 7.41473H9.46085L9.46579 7.27552H9.6251L9.63173 7.41473ZM9.16726 7.07542V7.00458H9.20183V7.04706H9.26399V7.00628H9.30026V7.04706H9.36284V7.00458H9.39826V7.07542C9.39826 7.09398 9.37561 7.09475 9.3723 7.0956H9.362H9.20099H9.19231C9.18913 7.0956 9.16726 7.09482 9.16726 7.07542ZM9.36863 7.41388H9.19697L9.20353 7.11952H9.36207L9.36863 7.41388ZM8.90338 7.23227V7.1615H8.93795V7.20306H9.00096V7.16228H9.03638V7.20306H9.09896V7.1615H9.13431V7.23227C9.13431 7.24998 9.11166 7.2516 9.10919 7.2516H9.10757H8.93012H8.92927C8.92518 7.25167 8.90338 7.24998 8.90338 7.23227ZM9.1039 7.41473H8.93301L8.9388 7.27552H9.09734L9.1039 7.41473ZM8.89145 7.45996C8.89145 7.4493 8.89929 7.44062 8.90916 7.43815C8.91079 7.43815 8.91248 7.43731 8.9141 7.43731H9.65029C9.66306 7.43731 9.67336 7.44845 9.67336 7.45996C9.67336 7.47188 9.66306 7.4826 9.65029 7.4826H8.9141C8.90176 7.48387 8.89145 7.4728 8.89145 7.45996ZM8.90916 7.5267C8.90916 7.51725 8.9141 7.50984 8.92193 7.50652H9.64211C9.64952 7.51061 9.65488 7.51845 9.65488 7.5267C9.65488 7.53947 9.64458 7.54935 9.63181 7.54935H8.93224C8.92024 7.5502 8.90916 7.53947 8.90916 7.5267ZM9.66631 7.9034H8.89759C8.88482 7.9034 8.87452 7.89275 8.87452 7.88076C8.87452 7.86925 8.88482 7.85811 8.89759 7.85811H9.66631C9.67908 7.85811 9.68938 7.86925 9.68938 7.88076C9.68938 7.89275 9.67908 7.9034 9.66631 7.9034Z" fill="black"/>
<path d="M9.62339 9.7208L9.28169 9.71918L8.94118 9.7208L8.90576 10.0193H9.28169H9.65881L9.62339 9.7208Z" fill="#F5E600"/>
<path d="M9.6663 10.0259H8.89758C8.88481 10.0259 8.87451 10.0358 8.87451 10.049C8.87451 10.0605 8.88481 10.0721 8.89758 10.0721H9.6663C9.67907 10.0721 9.68937 10.0597 9.68937 10.049C9.69015 10.0358 9.67907 10.0259 9.6663 10.0259Z" fill="#F5E600"/>
<path d="M9.64286 9.67346H8.92268C8.91527 9.67798 8.90991 9.68538 8.90991 9.69364C8.90991 9.70641 8.92021 9.71671 8.93298 9.71671H9.63255C9.6461 9.71671 9.65563 9.70563 9.65563 9.69364C9.65563 9.68538 9.65026 9.67798 9.64286 9.67346Z" fill="#F5E600"/>
<path d="M9.67424 9.4021C9.67424 9.37077 9.67424 9.31687 9.67424 9.31687H9.61575V9.35969H9.57617V9.31856H9.54654H9.51732V9.35969H9.47774V9.31687H9.4201V9.4021L9.45636 9.4342L9.4498 9.60424H9.38066L9.37325 9.27982C9.37325 9.27982 9.41029 9.27898 9.41029 9.24687C9.41029 9.21477 9.41029 9.16087 9.41029 9.16087H9.3518V9.20489H9.31229V9.16171H9.28308H9.25422V9.20489H9.21386V9.16087H9.15622V9.24687C9.15622 9.27982 9.19241 9.27982 9.19241 9.27982L9.18585 9.60424H9.1167L9.11014 9.43582C9.11014 9.43582 9.14641 9.4342 9.14641 9.40287C9.14641 9.37155 9.14641 9.3168 9.14641 9.3168H9.08792V9.36047H9.04841V9.31849H9.01877H8.98949V9.36047H8.94998V9.3168H8.89233V9.40287C8.89233 9.43498 8.9286 9.43582 8.9286 9.43582L8.92197 9.60424H8.91541C8.90264 9.60424 8.89233 9.61539 8.89233 9.62732C8.89233 9.63882 8.90264 9.64996 8.91541 9.64996H9.65159C9.66394 9.64996 9.67424 9.63882 9.67424 9.62732C9.67424 9.61539 9.66394 9.60424 9.65159 9.60424H9.64454L9.63798 9.4342C9.63713 9.4342 9.67424 9.43343 9.67424 9.4021Z" fill="#F5E600"/>
<path d="M9.00207 9.48895C9.00531 9.47788 9.01032 9.47209 9.01851 9.47209C9.02719 9.47209 9.03213 9.47788 9.03537 9.48895C9.03826 9.49721 9.03826 9.50582 9.03826 9.50582V9.54949H8.99995V9.50582C8.99917 9.50504 8.99917 9.49643 9.00207 9.48895Z" fill="black"/>
<path d="M9.5299 9.48895C9.53322 9.47788 9.53815 9.47209 9.54634 9.47209C9.55417 9.47209 9.55989 9.47788 9.5632 9.48895C9.5661 9.49721 9.5661 9.50582 9.5661 9.50582V9.54949H9.52778V9.50582C9.52701 9.50504 9.52701 9.49643 9.5299 9.48895Z" fill="black"/>
<path d="M9.26621 9.38771C9.26945 9.37493 9.27524 9.36922 9.28307 9.36922C9.29048 9.36922 9.29627 9.37578 9.29951 9.38771C9.3024 9.39801 9.3024 9.40704 9.3024 9.40704V9.46017H9.26416V9.40704C9.26332 9.40788 9.26332 9.39801 9.26621 9.38771Z" fill="black"/>
<path d="M9.66793 10.0029L9.63703 9.73936C9.65968 9.73689 9.67816 9.71833 9.67816 9.69364C9.67816 9.68376 9.67569 9.67593 9.67075 9.66852C9.68557 9.66069 9.69672 9.64587 9.69672 9.62739C9.69672 9.60354 9.67816 9.58329 9.65558 9.58174L9.64944 9.44006C9.66631 9.43681 9.68571 9.42482 9.68571 9.39892V9.30501H9.60499V9.34742H9.58813V9.30586H9.50621V9.34742H9.48935V9.30501H9.40864V9.39892C9.40864 9.42489 9.42797 9.43681 9.4449 9.44006L9.43876 9.58089H9.39262L9.38486 9.28399C9.40172 9.28067 9.4219 9.26875 9.4219 9.24285V9.14894H9.34041V9.19135H9.32354V9.15021H9.24078V9.19135H9.22392V9.14894H9.1432V9.24285C9.1432 9.26882 9.16253 9.28074 9.17947 9.28399L9.17248 9.58089H9.12634L9.1202 9.44006C9.13706 9.43681 9.15647 9.42482 9.15647 9.39892V9.30501H9.07575V9.34742H9.05889V9.30586H8.97697V9.34742H8.96011V9.30501H8.87904V9.39892C8.87904 9.42489 8.89879 9.43681 8.91566 9.44006L8.90952 9.58174C8.88602 9.58336 8.86838 9.60269 8.86838 9.62739C8.86838 9.6451 8.87826 9.66076 8.89435 9.66852C8.88941 9.67593 8.88694 9.68461 8.88694 9.69364C8.88694 9.71749 8.90465 9.73689 8.92807 9.73936L8.89717 10.0029C8.8724 10.0029 8.85229 10.0218 8.85229 10.049C8.85229 10.0737 8.87325 10.0951 8.89879 10.0951H9.66751C9.69305 10.0951 9.714 10.0737 9.714 10.049C9.7128 10.0226 9.69347 10.0029 9.66793 10.0029ZM9.28707 9.79573L9.28255 9.79411L9.27839 9.79573C9.1746 9.83729 9.16225 9.96168 9.1602 10.0029H9.10708C9.10912 9.95837 9.12479 9.79658 9.27507 9.74098H9.29031C9.44222 9.79743 9.45704 9.95674 9.45788 10.0029H9.40475C9.4032 9.96168 9.39085 9.83729 9.28707 9.79573ZM9.38055 10.0029H9.18335C9.18497 9.96662 9.19689 9.85592 9.28177 9.81881C9.36785 9.85585 9.37971 9.96662 9.38055 10.0029ZM9.22208 9.74014C9.09981 9.81344 9.08534 9.95999 9.08372 10.0029H8.91947L8.95072 9.74014H9.22208ZM9.48103 10.0029C9.4794 9.96006 9.46416 9.81344 9.34266 9.74014H9.61403L9.64528 10.0029H9.48103ZM9.43121 9.39963V9.32886H9.46579V9.37084H9.52915V9.33048H9.56456V9.37084H9.62673V9.32886H9.66214V9.39963C9.66214 9.41734 9.6395 9.41896 9.63625 9.41896H9.63336H9.45633C9.45301 9.41981 9.43121 9.41818 9.43121 9.39963ZM9.63173 9.58166H9.46085L9.46579 9.44246H9.6251L9.63173 9.58166ZM9.16726 9.2444V9.17357H9.20183V9.21555H9.26399V9.17441H9.30026V9.21555H9.36284V9.17357H9.39826V9.2444C9.39826 9.26211 9.37561 9.26374 9.3723 9.26374L9.362 9.26458H9.20099L9.19231 9.26374C9.18913 9.26374 9.16726 9.26211 9.16726 9.2444ZM9.36863 9.58082H9.19697L9.20353 9.28723H9.36207L9.36863 9.58082ZM8.90338 9.39963V9.32886H8.93795V9.37084H9.00096V9.33048H9.03638V9.37084H9.09896V9.32886H9.13431V9.39963C9.13431 9.41734 9.11166 9.41896 9.10919 9.41896H9.10757H8.93012H8.92927C8.92518 9.41981 8.90338 9.41818 8.90338 9.39963ZM9.1039 9.58166H8.93301L8.9388 9.44246H9.09734L9.1039 9.58166ZM8.89145 9.62816C8.89145 9.61701 8.89929 9.60961 8.90916 9.60594C8.91079 9.60594 8.91248 9.60509 8.9141 9.60509H9.65029C9.66306 9.60509 9.67336 9.61624 9.67336 9.62816C9.67336 9.63966 9.66306 9.65081 9.65029 9.65081H8.9141C8.90176 9.65081 8.89145 9.63966 8.89145 9.62816ZM8.90916 9.69442C8.90916 9.68538 8.9141 9.67798 8.92193 9.67424H9.64211C9.64952 9.67875 9.65488 9.68616 9.65488 9.69442C9.65488 9.70719 9.64458 9.71749 9.63181 9.71749H8.93224C8.92024 9.71749 8.90916 9.70634 8.90916 9.69442ZM9.66631 10.072H8.89759C8.88482 10.072 8.87452 10.0605 8.87452 10.0498C8.87452 10.0358 8.88482 10.0267 8.89759 10.0267H9.66631C9.67908 10.0267 9.68938 10.0375 9.68938 10.0498C9.69016 10.0605 9.67908 10.072 9.66631 10.072Z" fill="black"/>
<path d="M8.95403 12.2377L8.71357 11.9956L8.47142 11.7568L8.23633 11.9429L8.5019 12.2081L8.76833 12.4748L8.95403 12.2377Z" fill="#F5E600"/>
<path d="M8.76917 12.4848L8.22532 11.9413C8.21707 11.9314 8.20183 11.9314 8.19237 11.9413C8.18327 11.9496 8.18327 11.9644 8.19237 11.9726L8.73622 12.5169C8.74568 12.5259 8.76007 12.5259 8.76917 12.5169C8.77863 12.5078 8.77863 12.493 8.76917 12.4848Z" fill="#F5E600"/>
<path d="M9.00013 12.2196L8.49085 11.7091C8.48344 11.7075 8.47398 11.7091 8.4682 11.7157C8.45917 11.7239 8.45917 11.7387 8.4682 11.747L8.96231 12.2426C8.97176 12.2509 8.98616 12.2509 8.99526 12.2426C9.00217 12.2361 9.00387 12.2262 9.00013 12.2196Z" fill="#F5E600"/>
<path d="M9.2148 12.0483C9.23745 12.0269 9.27449 11.989 9.27449 11.989L9.23413 11.9479L9.20365 11.9775L9.17479 11.9496L9.20443 11.9198L9.18425 11.9002L9.16329 11.8796L9.13366 11.9083L9.10487 11.8812L9.13613 11.8515L9.09499 11.8103C9.09499 11.8103 9.05711 11.8482 9.03488 11.8688C9.01308 11.8902 9.03777 11.9191 9.03777 11.9191L8.91261 12.0351L8.86406 11.985L9.08886 11.7519C9.08886 11.7519 9.11524 11.7758 9.13782 11.7535C9.16089 11.7321 9.19878 11.6926 9.19878 11.6926L9.15716 11.653L9.1271 11.6827L9.09916 11.6547L9.12964 11.6251L9.10861 11.6036L9.08801 11.5839L9.05795 11.6136L9.03001 11.5855L9.06127 11.5543L9.02091 11.5132C9.02091 11.5132 8.9826 11.5527 8.95995 11.574C8.93815 11.5971 8.96242 11.6234 8.96242 11.6234L8.72817 11.8483L8.6792 11.7998L8.79407 11.6754C8.79407 11.6754 8.82004 11.7001 8.84261 11.6795C8.86569 11.6565 8.90357 11.6186 8.90357 11.6186L8.86322 11.5774L8.83274 11.6079L8.80472 11.5808L8.83436 11.551L8.8134 11.5297L8.79238 11.5082L8.76274 11.5379L8.73473 11.5099L8.76521 11.4803L8.72485 11.4391C8.72485 11.4391 8.68697 11.477 8.66389 11.5C8.64209 11.5214 8.66636 11.5478 8.66636 11.5478L8.54162 11.6639L8.53668 11.6582C8.5285 11.65 8.51318 11.65 8.50458 11.6582C8.49554 11.6688 8.49554 11.6829 8.50458 11.6911L9.025 12.2115C9.03326 12.2215 9.0485 12.2215 9.05711 12.2115C9.06621 12.2033 9.06621 12.1893 9.05711 12.1786L9.05259 12.1753L9.1683 12.0493C9.16661 12.045 9.1925 12.0713 9.2148 12.0483Z" fill="#F5E600"/>
<path d="M8.6789 11.6349C8.6892 11.6301 8.69661 11.6301 8.70155 11.6349C8.70691 11.6399 8.70691 11.6482 8.70155 11.658C8.69823 11.6662 8.69252 11.6712 8.69252 11.6712L8.66126 11.7025L8.63452 11.6761L8.66543 11.6449C8.66528 11.6448 8.67142 11.6383 8.6789 11.6349Z" fill="black"/>
<path d="M9.05226 12.0088C9.06256 12.0022 9.06997 12.0022 9.07534 12.0088C9.08027 12.0138 9.08027 12.022 9.07534 12.0319C9.07082 12.0384 9.06588 12.0451 9.06588 12.0451L9.03455 12.0763L9.00781 12.0484L9.03907 12.0188C9.03907 12.0187 9.04485 12.0121 9.05226 12.0088Z" fill="black"/>
<path d="M8.93632 11.7503C8.94789 11.7437 8.9565 11.7437 8.96228 11.7487C8.96764 11.7535 8.9668 11.7635 8.95981 11.775C8.95487 11.7832 8.94789 11.7898 8.94789 11.7898L8.91162 11.8277L8.88403 11.7998L8.92108 11.7635C8.92108 11.7635 8.92764 11.7552 8.93632 11.7503Z" fill="black"/>
<path d="M8.78684 12.47L8.94947 12.2625C8.9676 12.2757 8.99434 12.2757 9.01121 12.2592C9.01777 12.2526 9.02151 12.2443 9.02398 12.2362C9.04006 12.241 9.05855 12.2377 9.07097 12.2246C9.08868 12.2081 9.08868 12.1801 9.07386 12.1637L9.16897 12.0583C9.18344 12.0682 9.20524 12.0731 9.22372 12.055L9.29047 11.9891L9.23325 11.9315L9.20361 11.9611L9.19169 11.9496L9.22055 11.9199L9.16248 11.8623L9.13362 11.892L9.1217 11.8788L9.15049 11.8508L9.09411 11.7932L9.02744 11.8591C9.00888 11.8772 9.01466 11.9003 9.02412 11.9135L8.9204 12.009L8.88745 11.9761L9.09249 11.762C9.10646 11.7702 9.12953 11.7768 9.14809 11.7587L9.21476 11.6912L9.15712 11.6351L9.12875 11.6649L9.11598 11.6516L9.14562 11.6236L9.08713 11.566L9.05869 11.594L9.04677 11.5825L9.0764 11.5528L9.01876 11.4952L8.9525 11.5628C8.93395 11.5809 8.93973 11.6039 8.94876 11.6172L8.7347 11.823L8.7009 11.79L8.79643 11.6862C8.81083 11.6945 8.83263 11.701 8.85118 11.6814L8.91786 11.6155L8.86022 11.5578L8.83101 11.5875L8.81908 11.576L8.84794 11.548L8.78945 11.4887L8.76108 11.5183L8.74916 11.5068L8.77879 11.4772L8.7215 11.4195L8.65483 11.4854C8.63627 11.5052 8.64205 11.5266 8.65073 11.5414L8.54694 11.6361C8.52923 11.6205 8.50207 11.6205 8.48521 11.6378C8.47244 11.6517 8.46834 11.669 8.47413 11.6863C8.46587 11.6879 8.45727 11.6929 8.45148 11.6996C8.43462 11.716 8.43377 11.7423 8.44816 11.7605L8.24066 11.9227C8.22295 11.9054 8.19451 11.9054 8.1768 11.9243C8.15916 11.9416 8.15916 11.9712 8.1768 11.9885L8.72065 12.5328C8.73794 12.5501 8.76765 12.5501 8.78613 12.5328C8.8037 12.516 8.8037 12.4881 8.78684 12.47ZM8.66287 12.0533L8.66125 12.05L8.65793 12.0467C8.55499 12.0022 8.45698 12.083 8.42862 12.1093L8.39158 12.0714C8.42368 12.0418 8.55012 11.9397 8.69504 12.0055L8.70534 12.0171C8.77244 12.1636 8.66992 12.2872 8.63944 12.3201L8.60156 12.2822C8.62745 12.2542 8.70774 12.1554 8.66287 12.0533ZM8.58384 12.2657L8.44386 12.1257C8.4706 12.1027 8.55668 12.0319 8.64269 12.0665C8.67726 12.1537 8.60812 12.2393 8.58384 12.2657ZM8.65631 11.9692C8.51879 11.9347 8.40513 12.0269 8.37387 12.0574L8.25738 11.9396L8.46489 11.7774L8.65631 11.9692ZM8.65461 12.3366C8.68389 12.3052 8.77611 12.1916 8.74232 12.0533L8.93374 12.2459L8.77153 12.4534L8.65461 12.3366ZM9.04493 11.8754L9.09559 11.826L9.11986 11.8499L9.09058 11.8779L9.13503 11.9223L9.16389 11.8951L9.18979 11.9191L9.16015 11.9487L9.20503 11.9932L9.23466 11.9644L9.25893 11.9882L9.20827 12.0385C9.19592 12.0517 9.17821 12.0368 9.17617 12.0351L9.17455 12.0336L9.04903 11.9067C9.04663 11.905 9.03139 11.8886 9.04493 11.8754ZM9.05855 12.1455L8.93797 12.0253L9.04084 11.9314L9.15281 12.0434L9.05855 12.1455ZM8.96838 11.579L9.01862 11.5279L9.04331 11.5526L9.01368 11.5823L9.05855 11.6268L9.08698 11.5987L9.11253 11.6235L9.08367 11.6514L9.12854 11.696L9.15691 11.6663L9.18167 11.691L9.13186 11.7421C9.11824 11.7553 9.10138 11.7405 9.09969 11.7388L9.09143 11.7306L8.97656 11.617L8.97162 11.6104C8.97085 11.6086 8.95561 11.5921 8.96838 11.579ZM8.872 11.9594L8.75057 11.8374L8.96302 11.6349L9.07541 11.7469L8.872 11.9594ZM8.67232 11.5015L8.72214 11.4521L8.74648 11.4769L8.71684 11.5065L8.76172 11.551L8.79008 11.5213L8.81562 11.5477L8.78684 11.5757L8.83171 11.6201L8.86099 11.5905L8.88569 11.6153L8.83503 11.6663C8.82141 11.6778 8.80455 11.663 8.80292 11.6614L8.8013 11.6598L8.67656 11.5346C8.67402 11.5328 8.65878 11.5148 8.67232 11.5015ZM8.68467 11.7733L8.5636 11.6514L8.66611 11.5575L8.77851 11.6695L8.68467 11.7733ZM8.50186 11.6547C8.50927 11.6481 8.52041 11.6465 8.52987 11.6514C8.53149 11.653 8.53319 11.653 8.53403 11.6547L9.05403 12.1751C9.06349 12.1851 9.06349 12.199 9.05403 12.2081C9.04578 12.218 9.03054 12.218 9.02228 12.2081L8.50186 11.6876C8.4924 11.6795 8.4924 11.6646 8.50186 11.6547ZM8.46813 11.7157C8.47392 11.709 8.48337 11.7074 8.49078 11.709L9.00006 12.2196C9.00295 12.2261 9.00091 12.236 8.99512 12.2426C8.98686 12.2508 8.97163 12.2508 8.96217 12.2426L8.46806 11.7461C8.4591 11.7387 8.4591 11.7239 8.46813 11.7157ZM8.73695 12.5177L8.1931 11.9726C8.18485 11.9644 8.18485 11.9504 8.1931 11.9413C8.20256 11.9314 8.21695 11.9314 8.22605 11.9413L8.7699 12.4856C8.77858 12.4947 8.77858 12.5086 8.7699 12.5186C8.76087 12.5259 8.74648 12.5259 8.73695 12.5177Z" fill="black"/>
<path d="M6.77759 8.36414V8.8792C6.77759 8.88005 6.78006 8.97636 6.82493 9.07062C6.88547 9.19621 6.98926 9.26127 7.13418 9.26127C7.2791 9.26127 7.38282 9.19699 7.44378 9.07062C7.48823 8.97721 7.49113 8.87998 7.49113 8.8792V8.36414H6.77759ZM6.941 8.49058C6.97973 8.49058 7.01184 8.52183 7.01184 8.56135C7.01184 8.60001 6.97973 8.63211 6.941 8.63211C6.90233 8.63211 6.87023 8.60001 6.87023 8.56135C6.87023 8.52183 6.90233 8.49058 6.941 8.49058ZM6.941 9.01672C6.90233 9.01672 6.87023 8.98539 6.87023 8.94588C6.87023 8.90721 6.90233 8.87511 6.941 8.87511C6.97973 8.87511 7.01184 8.90721 7.01184 8.94588C7.01184 8.98546 6.98058 9.01672 6.941 9.01672ZM7.13411 8.8253C7.09538 8.8253 7.06327 8.79312 7.06327 8.75446C7.06327 8.71495 7.09538 8.68362 7.13411 8.68362C7.17278 8.68362 7.20488 8.71495 7.20488 8.75446C7.20495 8.79235 7.17285 8.8253 7.13411 8.8253ZM7.32638 8.49058C7.36504 8.49058 7.39715 8.52183 7.39715 8.56135C7.39715 8.60001 7.36504 8.63211 7.32638 8.63211C7.28764 8.63211 7.25554 8.60001 7.25554 8.56135C7.25554 8.52183 7.28771 8.49058 7.32638 8.49058ZM7.32638 9.01757C7.28764 9.01757 7.25554 8.98539 7.25554 8.94673C7.25554 8.90721 7.28764 8.87596 7.32638 8.87596C7.36504 8.87596 7.39715 8.90721 7.39715 8.94673C7.39722 8.98546 7.36589 9.01757 7.32638 9.01757Z" fill="#153A8D"/>
<path d="M6.77759 10.8098V11.327C6.77759 11.327 6.78006 11.4225 6.82493 11.518C6.88547 11.6431 6.98926 11.7082 7.13418 11.7082C7.2791 11.7082 7.38282 11.6448 7.44378 11.518C7.48823 11.4233 7.49113 11.327 7.49113 11.3253V10.8098H6.77759ZM6.941 10.9366C6.97973 10.9366 7.01184 10.9696 7.01184 11.0075C7.01184 11.047 6.97973 11.0783 6.941 11.0783C6.90233 11.0783 6.87023 11.047 6.87023 11.0075C6.87023 10.9696 6.90233 10.9366 6.941 10.9366ZM6.941 11.4637C6.90233 11.4637 6.87023 11.4324 6.87023 11.3929C6.87023 11.355 6.90233 11.322 6.941 11.322C6.97973 11.322 7.01184 11.355 7.01184 11.3929C7.01184 11.4324 6.98058 11.4637 6.941 11.4637ZM7.13411 11.271C7.09538 11.271 7.06327 11.2397 7.06327 11.2002C7.06327 11.1623 7.09538 11.1293 7.13411 11.1293C7.17278 11.1293 7.20488 11.1623 7.20488 11.2002C7.20495 11.2397 7.17285 11.271 7.13411 11.271ZM7.32638 10.9366C7.36504 10.9366 7.39715 10.9696 7.39715 11.0075C7.39715 11.047 7.36504 11.0783 7.32638 11.0783C7.28764 11.0783 7.25554 11.047 7.25554 11.0075C7.25554 10.9696 7.28771 10.9366 7.32638 10.9366ZM7.32638 11.4637C7.28764 11.4637 7.25554 11.4324 7.25554 11.3929C7.25554 11.355 7.28764 11.322 7.32638 11.322C7.36504 11.322 7.39715 11.355 7.39715 11.3929C7.39722 11.4324 7.36589 11.4637 7.32638 11.4637Z" fill="#153A8D"/>
<path d="M6.77759 9.58738V10.1034C6.77759 10.1034 6.78006 10.1989 6.82493 10.2952C6.88547 10.4196 6.98926 10.4854 7.13418 10.4854C7.2791 10.4854 7.38282 10.4212 7.44378 10.2952C7.48823 10.1997 7.49113 10.1034 7.49113 10.1034V9.58738H6.77759ZM6.941 9.71424C6.97973 9.71424 7.01184 9.74515 7.01184 9.78501C7.01184 9.82368 6.97973 9.85585 6.941 9.85585C6.90233 9.85585 6.87023 9.82368 6.87023 9.78501C6.87023 9.74508 6.90233 9.71424 6.941 9.71424ZM6.941 10.24C6.90233 10.24 6.87023 10.2087 6.87023 10.1692C6.87023 10.1313 6.90233 10.0984 6.941 10.0984C6.97973 10.0984 7.01184 10.1313 7.01184 10.1692C7.01184 10.2087 6.98058 10.24 6.941 10.24ZM7.13411 10.049C7.09538 10.049 7.06327 10.016 7.06327 9.97643C7.06327 9.93854 7.09538 9.90601 7.13411 9.90601C7.17278 9.90601 7.20488 9.93854 7.20488 9.97643C7.20495 10.016 7.17285 10.049 7.13411 10.049ZM7.32638 9.71424C7.36504 9.71424 7.39715 9.74515 7.39715 9.78501C7.39715 9.82368 7.36504 9.85585 7.32638 9.85585C7.28764 9.85585 7.25554 9.82368 7.25554 9.78501C7.25554 9.74508 7.28771 9.71424 7.32638 9.71424ZM7.32638 10.24C7.28764 10.24 7.25554 10.2087 7.25554 10.1692C7.25554 10.1313 7.28764 10.0984 7.32638 10.0984C7.36504 10.0984 7.39715 10.1313 7.39715 10.1692C7.39722 10.2087 7.36589 10.24 7.32638 10.24Z" fill="#153A8D"/>
<path d="M5.77759 9.58738V10.1034C5.77759 10.1034 5.78006 10.1989 5.82578 10.2952C5.88625 10.4196 5.99003 10.4854 6.13496 10.4854C6.2803 10.4854 6.38367 10.4212 6.44463 10.2952C6.49028 10.1997 6.49282 10.1034 6.49282 10.1034V9.58738H5.77759ZM5.94191 9.71424C5.981 9.71424 6.01268 9.74515 6.01268 9.78501C6.01268 9.82368 5.981 9.85585 5.94191 9.85585C5.90318 9.85585 5.87108 9.82368 5.87108 9.78501C5.87108 9.74508 5.90318 9.71424 5.94191 9.71424ZM5.94191 10.24C5.90318 10.24 5.87108 10.2087 5.87108 10.1692C5.87108 10.1313 5.90318 10.0984 5.94191 10.0984C5.981 10.0984 6.01268 10.1313 6.01268 10.1692C6.01268 10.2087 5.98185 10.24 5.94191 10.24ZM6.13496 10.049C6.09545 10.049 6.06419 10.016 6.06419 9.97643C6.06419 9.93854 6.09545 9.90601 6.13496 9.90601C6.17369 9.90601 6.2058 9.93854 6.2058 9.97643C6.2058 10.016 6.17369 10.049 6.13496 10.049ZM6.3273 9.71424C6.36596 9.71424 6.39729 9.74515 6.39729 9.78501C6.39729 9.82368 6.36603 9.85585 6.3273 9.85585C6.28771 9.85585 6.25646 9.82368 6.25646 9.78501C6.25646 9.74508 6.28771 9.71424 6.3273 9.71424ZM6.3273 10.24C6.28771 10.24 6.25646 10.2087 6.25646 10.1692C6.25646 10.1313 6.28771 10.0984 6.3273 10.0984C6.36596 10.0984 6.39729 10.1313 6.39729 10.1692C6.39806 10.2087 6.36723 10.24 6.3273 10.24Z" fill="#153A8D"/>
<path d="M7.77686 9.58738V10.1034C7.77686 10.1034 7.77848 10.1989 7.82462 10.2952C7.88558 10.4196 7.9893 10.4854 8.13423 10.4854C8.27915 10.4854 8.38294 10.4212 8.4439 10.2952C8.48835 10.1997 8.49167 10.1034 8.49167 10.1034V9.58738H7.77686ZM7.94118 9.71424C7.97985 9.71424 8.01117 9.74515 8.01117 9.78501C8.01117 9.82368 7.97992 9.85585 7.94118 9.85585C7.9016 9.85585 7.87034 9.82368 7.87034 9.78501C7.8695 9.74508 7.9016 9.71424 7.94118 9.71424ZM7.94118 10.24C7.9016 10.24 7.87034 10.2087 7.87034 10.1692C7.87034 10.1313 7.9016 10.0984 7.94118 10.0984C7.97985 10.0984 8.01195 10.1313 8.01195 10.1692C8.01195 10.2087 7.97985 10.24 7.94118 10.24ZM8.13338 10.049C8.09471 10.049 8.06261 10.016 8.06261 9.97643C8.06261 9.93854 8.09471 9.90601 8.13338 9.90601C8.17296 9.90601 8.20422 9.93854 8.20422 9.97643C8.20422 10.016 8.17296 10.049 8.13338 10.049ZM8.32572 9.71424C8.36438 9.71424 8.39648 9.74515 8.39648 9.78501C8.39648 9.82368 8.36438 9.85585 8.32572 9.85585C8.28698 9.85585 8.25488 9.82368 8.25488 9.78501C8.25572 9.74508 8.28698 9.71424 8.32572 9.71424ZM8.32572 10.24C8.28698 10.24 8.25488 10.2087 8.25488 10.1692C8.25488 10.1313 8.28698 10.0984 8.32572 10.0984C8.36438 10.0984 8.39648 10.1313 8.39648 10.1692C8.39648 10.2087 8.36438 10.24 8.32572 10.24Z" fill="#153A8D"/>
</g>
</g>
<defs>
<clipPath id="clip0_47278_4629">
<rect width="20" height="20" fill="white"/>
</clipPath>
</defs>
</svg>
