<svg width="80" height="80" viewBox="0 0 80 80" fill="none" xmlns="http://www.w3.org/2000/svg">
<rect width="80" height="80" rx="40" fill="#D9A12A"/>
<path d="M50.9875 47.8625L49.375 49.4875L49.0125 49.1125C48.7771 48.8771 48.4579 48.7449 48.125 48.7449C47.7921 48.7449 47.4729 48.8771 47.2375 49.1125C47.0021 49.3479 46.8699 49.6671 46.8699 50C46.8699 50.3329 47.0021 50.6521 47.2375 50.8875L48.4875 52.1375C48.6037 52.2546 48.7419 52.3476 48.8943 52.4111C49.0466 52.4746 49.21 52.5072 49.375 52.5072C49.54 52.5072 49.7034 52.4746 49.8557 52.4111C50.008 52.3476 50.1463 52.2546 50.2625 52.1375L52.7625 49.6375C52.9979 49.4021 53.1301 49.0829 53.1301 48.75C53.1301 48.4171 52.9979 48.0979 52.7625 47.8625C52.5271 47.6271 52.2079 47.4949 51.875 47.4949C51.5421 47.4949 51.2229 47.6271 50.9875 47.8625Z" fill="white"/>
<path d="M50 42.5C48.5166 42.5 47.0666 42.9399 45.8332 43.764C44.5999 44.5881 43.6386 45.7594 43.0709 47.1299C42.5032 48.5003 42.3547 50.0083 42.6441 51.4632C42.9335 52.918 43.6478 54.2544 44.6967 55.3033C45.7456 56.3522 47.082 57.0665 48.5368 57.3559C49.9917 57.6453 51.4997 57.4968 52.8701 56.9291C54.2406 56.3614 55.4119 55.4001 56.236 54.1668C57.0601 52.9334 57.5 51.4834 57.5 50C57.5 48.0109 56.7098 46.1032 55.3033 44.6967C53.8968 43.2902 51.9891 42.5 50 42.5ZM50 55C49.0111 55 48.0444 54.7068 47.2222 54.1573C46.3999 53.6079 45.759 52.827 45.3806 51.9134C45.0022 50.9998 44.9032 49.9945 45.0961 49.0245C45.289 48.0546 45.7652 47.1637 46.4645 46.4645C47.1637 45.7652 48.0546 45.289 49.0246 45.0961C49.9945 44.9031 50.9998 45.0022 51.9134 45.3806C52.8271 45.759 53.6079 46.3999 54.1574 47.2221C54.7068 48.0444 55 49.0111 55 50C55 51.3261 54.4732 52.5979 53.5355 53.5355C52.5979 54.4732 51.3261 55 50 55Z" fill="white"/>
<path d="M43.65 42.2875C43.7766 42.1826 43.8812 42.0537 43.9579 41.9083C44.0346 41.7628 44.0818 41.6037 44.0969 41.44C44.112 41.2762 44.0947 41.1111 44.0459 40.9541C43.9971 40.7971 43.9178 40.6513 43.8125 40.525C43.2858 39.9069 42.6165 39.4264 41.8625 39.125C42.669 38.1367 43.1105 36.9006 43.1125 35.625C43.1182 34.7236 42.9071 33.8341 42.4972 33.0313C42.0873 32.2286 41.4904 31.5361 40.7569 31.0122C40.0234 30.4883 39.1747 30.1484 38.2824 30.021C37.39 29.8937 36.4802 29.9826 35.6294 30.2804C34.7786 30.5782 34.0119 31.076 33.3937 31.7321C32.7756 32.3881 32.3241 33.1831 32.0774 34.05C31.8307 34.917 31.7959 35.8305 31.9761 36.7137C32.1562 37.5969 32.546 38.4239 33.1125 39.125C32.1931 39.4998 31.4062 40.1398 30.8519 40.9635C30.2976 41.7871 30.001 42.7572 30 43.75V45C30 45.3315 30.1317 45.6495 30.3661 45.8839C30.6005 46.1183 30.9185 46.25 31.25 46.25C31.5815 46.25 31.8995 46.1183 32.1339 45.8839C32.3683 45.6495 32.5 45.3315 32.5 45V43.75C32.5 43.087 32.7634 42.4511 33.2322 41.9822C33.7011 41.5134 34.337 41.25 35 41.25H40C40.3598 41.2467 40.7159 41.3235 41.0424 41.4748C41.3688 41.6261 41.6575 41.8482 41.8875 42.125C41.9924 42.2516 42.1213 42.3562 42.2667 42.4329C42.4122 42.5096 42.5713 42.5568 42.735 42.5719C42.8988 42.587 43.0638 42.5697 43.2209 42.5209C43.3779 42.4721 43.5237 42.3927 43.65 42.2875ZM37.5 32.5C38.1181 32.5 38.7223 32.6833 39.2362 33.0267C39.7501 33.37 40.1506 33.8581 40.3871 34.4291C40.6236 35.0001 40.6855 35.6285 40.565 36.2347C40.4444 36.8408 40.1467 37.3977 39.7097 37.8347C39.2727 38.2717 38.7159 38.5694 38.1097 38.69C37.5035 38.8105 36.8751 38.7486 36.3041 38.5121C35.7331 38.2756 35.245 37.8751 34.9017 37.3612C34.5583 36.8472 34.375 36.2431 34.375 35.625C34.375 34.7962 34.7042 34.0013 35.2903 33.4153C35.8763 32.8292 36.6712 32.5 37.5 32.5Z" fill="white"/>
<path d="M39.5875 54.175C38.9111 54.4968 38.2137 54.7725 37.5 55C33.8918 53.9242 30.7268 51.7134 28.4749 48.6959C26.223 45.6784 25.0044 42.0151 25 38.25V29.625L37.5 25.075L50 29.625V38.25C50.0062 38.3373 50.0062 38.4251 50 38.5125V38.75C50 39.0815 50.1317 39.3994 50.3661 39.6338C50.6005 39.8683 50.9185 40 51.25 40C51.5815 40 51.8995 39.8683 52.1339 39.6338C52.3683 39.3994 52.5 39.0815 52.5 38.75V38.55C52.5 38.4125 52.5 38.275 52.5 38.1375V28.75C52.4999 28.4931 52.4206 28.2424 52.273 28.0322C52.1254 27.822 51.9166 27.6623 51.675 27.575L37.925 22.575C37.6504 22.4757 37.3496 22.4757 37.075 22.575L23.325 27.575C23.0834 27.6623 22.8746 27.822 22.727 28.0322C22.5794 28.2424 22.5001 28.4931 22.5 28.75V38.25C22.5061 42.6215 23.9444 46.8706 26.5947 50.3471C29.2449 53.8236 32.9613 56.336 37.175 57.5C37.3865 57.567 37.6135 57.567 37.825 57.5C38.7718 57.2487 39.6959 56.9184 40.5875 56.5125C40.7464 56.4528 40.8914 56.3614 41.0138 56.2438C41.1362 56.1262 41.2333 55.985 41.2993 55.8287C41.3654 55.6724 41.3989 55.5042 41.3978 55.3345C41.3967 55.1648 41.3611 54.9971 41.2932 54.8416C41.2252 54.6861 41.1263 54.5461 41.0024 54.4301C40.8786 54.3141 40.7324 54.2245 40.5728 54.1668C40.4133 54.1091 40.2436 54.0845 40.0742 54.0945C39.9048 54.1045 39.7392 54.1489 39.5875 54.225V54.175Z" fill="white"/>
</svg>
