<svg width="80" height="80" viewBox="0 0 80 80" fill="none" xmlns="http://www.w3.org/2000/svg">
<rect width="80" height="80" rx="40" fill="#E947D9"/>
<g clip-path="url(#clip0_47208_4199)">
<path d="M48.1673 54.8076C45.6741 56.1601 42.8498 56.875 40 56.875C30.5373 56.875 23.125 49.4627 23.125 40C23.125 30.5373 30.5373 23.125 40 23.125C44.5832 23.125 48.8973 24.9149 52.1474 28.1651C52.5941 28.6117 53.2655 28.7455 53.8492 28.5042C54.4329 28.2629 54.8139 27.6939 54.8148 27.0623L54.8208 22.6369C54.822 21.774 54.1234 21.0734 53.2604 21.0723C53.2597 21.0723 53.259 21.0723 53.2583 21.0723C52.3963 21.0723 51.697 21.7705 51.6958 22.6327L51.6943 23.7068C48.2931 21.2979 44.2447 20 40 20C28.7851 20 20 28.7851 20 40C20 51.2149 28.7851 60 40 60C43.3687 60 46.7081 59.1543 49.6574 57.5545C50.4159 57.143 50.6973 56.1945 50.2858 55.4359C49.8743 54.6774 48.9258 54.396 48.1673 54.8076Z" fill="white"/>
<path d="M58.1138 34.9368C58.8585 34.5001 59.1082 33.5424 58.6716 32.7977C58.2349 32.053 57.2772 31.8032 56.5325 32.2399C55.7878 32.6765 55.5381 33.6342 55.9747 34.379C56.4114 35.1237 57.369 35.3734 58.1138 34.9368Z" fill="white"/>
<path d="M57.8412 44.9445C57.0303 44.6494 56.1337 45.0675 55.8386 45.8783C55.5434 46.6893 55.9615 47.5858 56.7724 47.881C57.5833 48.1762 58.4799 47.758 58.775 46.9472C59.0702 46.1362 58.6521 45.2397 57.8412 44.9445Z" fill="white"/>
<path d="M55.0552 50.8553C54.3941 50.3006 53.4086 50.3869 52.8539 51.0479C52.2992 51.7089 52.3854 52.6945 53.0464 53.2492C53.7075 53.8039 54.6931 53.7177 55.2478 53.0567C55.8025 52.3956 55.7163 51.41 55.0552 50.8553Z" fill="white"/>
<path d="M58.4375 41.5625C59.3004 41.5625 60 40.8629 60 40C60 39.1371 59.3004 38.4375 58.4375 38.4375C57.5746 38.4375 56.875 39.1371 56.875 40C56.875 40.8629 57.5746 41.5625 58.4375 41.5625Z" fill="white"/>
<path d="M40 32.1875C40.863 32.1875 41.5625 31.488 41.5625 30.625V27.5C41.5625 26.637 40.863 25.9375 40 25.9375C32.2459 25.9375 25.9375 32.2459 25.9375 40C25.9375 47.7541 32.2459 54.0625 40 54.0625C47.7541 54.0625 54.0625 47.7541 54.0625 40C54.0625 37.4878 53.3916 35.0216 52.1222 32.8681C50.8909 30.7794 49.1309 29.0336 47.0324 27.8197C46.2854 27.3877 45.3297 27.6428 44.8975 28.3898C44.4654 29.1367 44.7206 30.0926 45.4676 30.5247C48.3848 32.2123 50.3454 35.1553 50.823 38.4374H49.375C48.512 38.4374 47.8125 39.137 47.8125 39.9999C47.8125 40.8629 48.512 41.5624 49.375 41.5624H50.8254C50.1382 46.3454 46.3454 50.1382 41.5625 50.8254V49.375C41.5625 48.512 40.863 47.8125 40 47.8125C39.137 47.8125 38.4375 48.512 38.4375 49.375V50.8254C33.6546 50.1382 29.8618 46.3454 29.1746 41.5625H30.625C31.488 41.5625 32.1875 40.863 32.1875 40C32.1875 39.137 31.488 38.4375 30.625 38.4375H29.1746C29.8618 33.6546 33.6546 29.8618 38.4375 29.1746V30.625C38.4375 31.488 39.137 32.1875 40 32.1875Z" fill="white"/>
<path d="M43.125 41.5625H40C39.137 41.5625 38.4375 40.863 38.4375 40V36.875C38.4375 36.012 39.137 35.3125 40 35.3125C40.863 35.3125 41.5625 36.012 41.5625 36.875V38.4375H43.125C43.988 38.4375 44.6875 39.137 44.6875 40C44.6875 40.863 43.988 41.5625 43.125 41.5625Z" fill="white"/>
</g>
<defs>
<clipPath id="clip0_47208_4199">
<rect width="40" height="40" fill="white" transform="translate(20 20)"/>
</clipPath>
</defs>
</svg>
