<svg width="80" height="80" viewBox="0 0 80 80" fill="none" xmlns="http://www.w3.org/2000/svg">
<rect width="80" height="80" rx="40" fill="#3392FF"/>
<path d="M33.2915 35.2947L31.0814 37.5047L38.4374 44.8606L48.9188 34.3792L46.7087 32.1692L38.4373 40.4406L33.2915 35.2947ZM40 20L22.8101 23.395V35.1959C22.8101 40.4993 24.3807 45.6279 27.352 50.0273C30.3266 54.4316 34.4996 57.7998 39.4196 59.7679L40 60L40.5804 59.7679C45.5005 57.7998 49.6734 54.4316 52.648 50.0273C55.6193 45.6279 57.19 40.4993 57.19 35.1959V23.395L40 20ZM54.0645 35.1959C54.0645 44.5908 48.5654 52.934 40 56.6248C31.4346 52.934 25.9355 44.5908 25.9355 35.1959V25.9636L40 23.1858L54.0645 25.9636V35.1959Z" fill="white"/>
</svg>
