<svg width="46" height="46" viewBox="0 0 46 46" fill="none" xmlns="http://www.w3.org/2000/svg">
<rect width="46" height="46" rx="23" fill="white"/>
<path d="M13 18L21.1649 23.7154C21.8261 24.1783 22.1567 24.4097 22.5163 24.4993C22.8339 24.5785 23.1661 24.5785 23.4837 24.4993C23.8433 24.4097 24.1739 24.1783 24.8351 23.7154L33 18M17.8 31H28.2C29.8802 31 30.7202 31 31.362 30.673C31.9265 30.3854 32.3854 29.9265 32.673 29.362C33 28.7202 33 27.8802 33 26.2V19.8C33 18.1198 33 17.2798 32.673 16.638C32.3854 16.0735 31.9265 15.6146 31.362 15.327C30.7202 15 29.8802 15 28.2 15H17.8C16.1198 15 15.2798 15 14.638 15.327C14.0735 15.6146 13.6146 16.0735 13.327 16.638C13 17.2798 13 18.1198 13 19.8V26.2C13 27.8802 13 28.7202 13.327 29.362C13.6146 29.9265 14.0735 30.3854 14.638 30.673C15.2798 31 16.1198 31 17.8 31Z" stroke="#CE8936" stroke-width="2" stroke-linecap="round" stroke-linejoin="round"/>
</svg>
