<svg width="45" height="45" viewBox="0 0 45 45" fill="none" xmlns="http://www.w3.org/2000/svg">
<g clip-path="url(#clip0_47397_4533)">
<path d="M44.6055 7.75089C44.4963 7.38052 44.1934 7.09935 43.816 7.01806L39.0343 5.98745L38.0037 1.20576C37.9223 0.828271 37.6412 0.5254 37.2707 0.416328C36.9002 0.307168 36.4998 0.409209 36.2269 0.682197L30.043 6.86609C27.1102 5.27088 23.8114 4.43073 20.4497 4.43073C15.0813 4.43073 10.0342 6.5213 6.2383 10.3173C2.44213 14.1133 0.351562 19.1603 0.351562 24.5287C0.351562 29.897 2.44213 34.9442 6.23821 38.7401C10.0341 42.5361 15.0812 44.6267 20.4496 44.6267C25.818 44.6267 30.865 42.5361 34.661 38.7401C38.457 34.9442 40.5476 29.897 40.5476 24.5287C40.5476 21.1903 39.718 17.911 38.1425 14.9918L44.3395 8.79476C44.6126 8.52169 44.7146 8.12126 44.6055 7.75089ZM24.8264 24.5287C24.8264 26.942 22.863 28.9054 20.4496 28.9054C18.0363 28.9054 16.0729 26.942 16.0729 24.5287C16.0729 22.1154 18.0363 20.152 20.4496 20.152C21.2764 20.152 22.0502 20.3825 22.7105 20.7825L19.7046 23.7821C19.2923 24.1936 19.2916 24.8613 19.703 25.2737C19.909 25.4802 20.1793 25.5834 20.4495 25.5834C20.719 25.5834 20.9886 25.4806 21.1946 25.2752L24.2003 22.2758C24.5974 22.9343 24.8264 23.7052 24.8264 24.5287ZM24.2318 19.2645C23.1662 18.4967 21.8603 18.0426 20.4496 18.0426C16.8732 18.0426 13.9635 20.9522 13.9635 24.5287C13.9635 28.105 16.8732 31.0147 20.4496 31.0147C24.026 31.0147 26.9358 28.1051 26.9358 24.5287C26.9358 23.1229 26.4847 21.8211 25.7218 20.7576L29.0716 17.4148C30.6706 19.3493 31.6324 21.8288 31.6324 24.5287C31.6324 30.6948 26.6158 35.7114 20.4497 35.7114C14.2836 35.7114 9.2671 30.6948 9.2671 24.5287C9.2671 18.3625 14.2836 13.346 20.4497 13.346C23.158 13.346 25.6444 14.314 27.5814 15.9219L24.2318 19.2645ZM20.4496 42.5173C10.5306 42.5173 2.46094 34.4477 2.46094 24.5287C2.46094 14.6097 10.5306 6.54011 20.4496 6.54011C23.4107 6.54011 26.3168 7.26758 28.909 8.65062C28.9107 8.65994 28.9112 8.66934 28.9132 8.67857L29.9623 13.546L29.0791 14.4273C26.7552 12.4392 23.7404 11.2366 20.4496 11.2366C13.1203 11.2366 7.15764 17.1994 7.15764 24.5287C7.15764 31.858 13.1204 37.8207 20.4496 37.8207C27.7788 37.8207 33.7417 31.8579 33.7417 24.5287C33.7417 21.2479 32.5462 18.2415 30.5689 15.9206L31.4395 15.0517L36.343 16.1085C36.3449 16.1088 36.3467 16.109 36.3485 16.1094C37.7178 18.6919 38.4381 21.5845 38.4381 24.5287C38.4383 34.4477 30.3685 42.5173 20.4496 42.5173ZM36.2259 13.9254L33.2179 13.2771L35.728 10.7723C36.1402 10.3608 36.141 9.69309 35.7296 9.2808C35.3181 8.86842 34.6504 8.86771 34.238 9.27922L31.7381 11.7738L31.0963 8.79582L36.3495 3.5426L37.1157 7.09725C37.203 7.50233 37.5195 7.81874 37.9245 7.90601L41.4791 8.67216L36.2259 13.9254Z" fill="#CE8936"/>
</g>
<defs>
<clipPath id="clip0_47397_4533">
<rect width="45" height="45" fill="white"/>
</clipPath>
</defs>
</svg>
