<svg width="46" height="46" viewBox="0 0 46 46" fill="none" xmlns="http://www.w3.org/2000/svg">
<rect width="46" height="46" rx="23" fill="white"/>
<path d="M25.0497 17C26.0264 17.1906 26.924 17.6683 27.6277 18.3719C28.3314 19.0756 28.8091 19.9733 28.9997 20.95M25.0497 13C27.0789 13.2254 28.9713 14.1342 30.4159 15.577C31.8606 17.0198 32.7717 18.911 32.9997 20.94M21.2266 24.8631C20.0251 23.6615 19.0763 22.3028 18.3803 20.8532C18.3204 20.7285 18.2905 20.6662 18.2675 20.5873C18.1858 20.3069 18.2445 19.9627 18.4145 19.7253C18.4623 19.6584 18.5195 19.6013 18.6338 19.487C18.9834 19.1374 19.1582 18.9626 19.2725 18.7868C19.7035 18.1239 19.7035 17.2693 19.2725 16.6064C19.1582 16.4307 18.9834 16.2559 18.6338 15.9062L18.4389 15.7114C17.9075 15.1799 17.6417 14.9142 17.3564 14.7699C16.7888 14.4828 16.1185 14.4828 15.551 14.7699C15.2656 14.9142 14.9999 15.1799 14.4684 15.7114L14.3108 15.869C13.7812 16.3986 13.5164 16.6634 13.3141 17.0235C13.0897 17.423 12.9283 18.0435 12.9297 18.5017C12.9309 18.9146 13.011 19.1969 13.1712 19.7613C14.0322 22.7947 15.6567 25.6571 18.0447 28.045C20.4326 30.433 23.295 32.0575 26.3284 32.9185C26.8928 33.0787 27.1751 33.1588 27.588 33.16C28.0462 33.1614 28.6667 33 29.0662 32.7756C29.4263 32.5733 29.6911 32.3085 30.2207 31.7789L30.3783 31.6213C30.9098 31.0898 31.1755 30.8241 31.3198 30.5387C31.6069 29.9712 31.6069 29.3009 31.3198 28.7333C31.1755 28.448 30.9098 28.1822 30.3783 27.6508L30.1835 27.4559C29.8339 27.1063 29.6591 26.9315 29.4833 26.8172C28.8204 26.3862 27.9658 26.3862 27.3029 26.8172C27.1271 26.9315 26.9523 27.1063 26.6027 27.4559C26.4884 27.5702 26.4313 27.6274 26.3644 27.6752C26.127 27.8453 25.7828 27.904 25.5024 27.8222C25.4235 27.7992 25.3612 27.7693 25.2365 27.7094C23.7869 27.0134 22.4282 26.0646 21.2266 24.8631Z" stroke="#CE8936" stroke-width="2" stroke-linecap="round" stroke-linejoin="round"/>
</svg>
