<svg width="45" height="45" viewBox="0 0 45 45" fill="none" xmlns="http://www.w3.org/2000/svg">
<path d="M18.9844 42.5391C18.4018 42.5391 17.9297 42.0666 17.9297 41.4844V31.9922H8.78906V41.4844C8.78906 42.0666 8.31699 42.5391 7.73438 42.5391C7.15176 42.5391 6.67969 42.0666 6.67969 41.4844V30.9375C6.67969 30.3552 7.15176 29.8828 7.73438 29.8828H18.9844C19.567 29.8828 20.0391 30.3552 20.0391 30.9375V41.4844C20.0391 42.0666 19.567 42.5391 18.9844 42.5391Z" fill="white"/>
<path d="M18.9844 42.5391C18.4018 42.5391 17.9297 42.0666 17.9297 41.4844V25.3125C17.9297 24.7302 18.4018 24.2578 18.9844 24.2578C19.567 24.2578 20.0391 24.7302 20.0391 25.3125V41.4844C20.0391 42.0666 19.567 42.5391 18.9844 42.5391Z" fill="white"/>
<path d="M30.2343 42.5391C29.6517 42.5391 29.1796 42.0666 29.1796 41.4844V20.7422H22.0007C21.4181 20.7422 20.946 20.2698 20.946 19.6875C20.946 19.1052 21.4181 18.6328 22.0007 18.6328H30.2343C30.8169 18.6328 31.289 19.1052 31.289 19.6875V41.4844C31.289 42.0666 30.8169 42.5391 30.2343 42.5391Z" fill="white"/>
<path d="M41.4844 42.5391H3.51562C2.93301 42.5391 2.46094 42.0666 2.46094 41.4844C2.46094 40.9021 2.93301 40.4297 3.51562 40.4297H29.1797V14.0625C29.1797 13.4802 29.6518 13.0078 30.2344 13.0078H41.4844C42.067 13.0078 42.5391 13.4802 42.5391 14.0625V41.4844C42.5391 42.0666 42.067 42.5391 41.4844 42.5391ZM31.2891 40.4297H40.4297V15.1172H31.2891V40.4297Z" fill="white"/>
<path d="M35.8595 15.1172C35.2768 15.1172 34.8048 14.6448 34.8048 14.0625V9.49219H28.1251C27.7412 9.49219 27.3876 9.28344 27.2019 8.94768C27.0161 8.61192 27.0278 8.2013 27.2321 7.87651L28.4262 5.97656L27.2321 4.07661C27.0278 3.75183 27.0161 3.34121 27.2019 3.00544C27.3876 2.66967 27.7412 2.46094 28.1251 2.46094H35.8595C36.4421 2.46094 36.9141 2.93335 36.9141 3.51562V14.0625C36.9141 14.6448 36.4421 15.1172 35.8595 15.1172ZM30.034 7.38281H34.8048V4.57031H30.034L30.5651 5.41557C30.7807 5.75821 30.7807 6.19492 30.5651 6.53755L30.034 7.38281Z" fill="white"/>
<path d="M15.1173 22.8516C9.97876 22.8516 5.29549 19.886 2.58942 14.9188C2.41811 14.6043 2.41811 14.2239 2.58942 13.9094C5.29549 8.94219 9.97876 5.97656 15.1173 5.97656C20.2558 5.97656 24.939 8.94218 27.6451 13.9094C27.8164 14.2239 27.8164 14.6043 27.6451 14.9188C24.939 19.8859 20.2558 22.8516 15.1173 22.8516ZM4.72901 14.4141C7.0921 18.3877 10.9373 20.7422 15.1173 20.7422C19.2972 20.7422 23.1424 18.3877 25.5055 14.4141C23.1424 10.4405 19.2972 8.08594 15.1173 8.08594C10.9373 8.08594 7.0921 10.4405 4.72901 14.4141Z" fill="white"/>
<path d="M15.1172 20.0391C12.0156 20.0391 9.49219 17.5156 9.49219 14.4141C9.49219 11.3125 12.0156 8.78906 15.1172 8.78906C18.2188 8.78906 20.7422 11.3125 20.7422 14.4141C20.7422 17.5156 18.2188 20.0391 15.1172 20.0391ZM15.1172 10.8984C13.1788 10.8984 11.6016 12.4757 11.6016 14.4141C11.6016 16.3525 13.1788 17.9297 15.1172 17.9297C17.0556 17.9297 18.6328 16.3525 18.6328 14.4141C18.6328 12.4757 17.0556 10.8984 15.1172 10.8984Z" fill="white"/>
</svg>
