<svg width="81" height="80" viewBox="0 0 81 80" fill="none" xmlns="http://www.w3.org/2000/svg">
<rect x="0.5" width="80" height="80" rx="40" fill="#FFAE00" fill-opacity="0.13"/>
<rect x="1" y="0.5" width="79" height="79" rx="39.5" stroke="#FFAE00" stroke-opacity="0.5"/>
<path d="M55.5 25H25.5C24.125 25 23 26.125 23 27.5V52.5C23 53.875 24.125 55 25.5 55H39.25C39.9375 55 40.5 54.4375 40.5 53.75C40.5 53.0625 39.9375 52.5 39.25 52.5H25.5V27.5H55.5V30H39.25C38.5625 30 38 30.5625 38 31.25C38 31.9375 38.5625 32.5 39.25 32.5H55.5V37.5C55.5 38.1875 56.0625 38.75 56.75 38.75C57.4375 38.75 58 38.1875 58 37.5V27.5C58 26.125 56.875 25 55.5 25Z" fill="#FFAE00"/>
<path d="M29.2749 32.5C29.9624 32.5 30.5249 31.9375 30.5249 31.25C30.5249 30.5625 29.9624 30 29.2749 30C28.5874 30 28.0249 30.5625 28.0249 31.25C28.0249 31.9375 28.5874 32.5 29.2749 32.5Z" fill="#FFAE00"/>
<path d="M35.5249 31.25C35.5249 30.5625 34.9624 30 34.2749 30C33.5874 30 33.0249 30.5625 33.0249 31.25C33.0249 31.9375 33.5874 32.5 34.2749 32.5C34.9624 32.5 35.5249 31.9375 35.5249 31.25Z" fill="#FFAE00"/>
<path d="M54.1 40C53.075 40 52.0625 40.4125 51.3375 41.1375L44.6125 47.8626C44.45 48.0251 44.3375 48.225 44.2875 48.4375L43.0375 53.4375C42.925 53.8625 43.05 54.3125 43.3625 54.625C43.6 54.8625 43.925 54.9875 44.25 54.9875C44.35 54.9875 44.45 54.9875 44.55 54.95L49.55 53.7C49.775 53.65 49.975 53.5375 50.125 53.375L56.85 46.65C57.5875 45.9125 57.9875 44.9376 57.9875 43.8875C57.9875 41.7375 56.2375 39.9875 54.0875 39.9875L54.1 40ZM48.6125 51.375L45.975 52.0375L46.6375 49.4L51.1375 44.9L53.125 46.8875L48.625 51.3876L48.6125 51.375ZM55.0875 44.9L54.875 45.1125L52.8875 43.125L53.1 42.9125C53.3625 42.65 53.725 42.5 54.0875 42.5C54.8625 42.5 55.4875 43.1251 55.4875 43.9001C55.4875 44.2751 55.3375 44.625 55.075 44.8875L55.0875 44.9Z" fill="#FFAE00"/>
<path d="M29.25 38.75H51.75C52.4375 38.75 53 38.1875 53 37.5C53 36.8125 52.4375 36.25 51.75 36.25H29.25C28.5625 36.25 28 36.8125 28 37.5C28 38.1875 28.5625 38.75 29.25 38.75Z" fill="#FFAE00"/>
<path d="M29.25 43.75H45.5C46.1875 43.75 46.75 43.1875 46.75 42.5C46.75 41.8125 46.1875 41.25 45.5 41.25H29.25C28.5625 41.25 28 41.8125 28 42.5C28 43.1875 28.5625 43.75 29.25 43.75Z" fill="#FFAE00"/>
<path d="M40.5 46.25H29.25C28.5625 46.25 28 46.8125 28 47.5C28 48.1875 28.5625 48.75 29.25 48.75H40.5C41.1875 48.75 41.75 48.1875 41.75 47.5C41.75 46.8125 41.1875 46.25 40.5 46.25Z" fill="#FFAE00"/>
</svg>
