<svg width="81" height="80" viewBox="0 0 81 80" fill="none" xmlns="http://www.w3.org/2000/svg">
<rect x="0.5" width="80" height="80" rx="40" fill="#E947D9" fill-opacity="0.13"/>
<rect x="1" y="0.5" width="79" height="79" rx="39.5" stroke="#E947D9" stroke-opacity="0.5"/>
<path d="M45.5376 37.605C45.5376 36.9837 45.0338 36.48 44.4126 36.48H32.0376C31.4163 36.48 30.9126 36.9837 30.9126 37.605C30.9126 38.2262 31.4163 38.73 32.0376 38.73H44.4126C45.0338 38.73 45.5376 38.2262 45.5376 37.605Z" fill="#E947D9"/>
<path d="M32.0349 42.1611C31.4137 42.1611 30.9099 42.6649 30.9099 43.2861C30.9099 43.9074 31.4137 44.4111 32.0349 44.4111H38.5962C39.2174 44.4111 39.7212 43.9074 39.7212 43.2861C39.7212 42.6649 39.2174 42.1611 38.5962 42.1611H32.0349Z" fill="#E947D9"/>
<path d="M52.95 37.6675C52.3287 37.6675 51.825 38.1712 51.825 38.7925V47.8912C51.825 49.5937 50.44 50.9787 48.7375 50.9787H41.2125C40.9688 50.9787 40.7312 51.0575 40.5362 51.205L34.0387 56.0912C33.8737 56.215 33.7187 56.1637 33.6412 56.1212C33.5625 56.0812 33.4325 55.9825 33.4375 55.7812L33.5625 52.1437C33.5725 51.8387 33.4587 51.5424 33.2475 51.3237C33.0362 51.1037 32.7437 50.98 32.4387 50.98H27.2125C25.51 50.98 24.125 49.5962 24.125 47.8925V33.0175C24.125 31.3087 25.51 29.9187 27.2125 29.9187H41.075C41.6962 29.9187 42.2 29.415 42.2 28.7937C42.2 28.1725 41.6962 27.6687 41.075 27.6687H27.2125C24.27 27.6687 21.875 30.0687 21.875 33.0187V47.8925C21.875 50.8349 24.27 53.2312 27.2125 53.2312H31.2738L31.1887 55.7087C31.1587 56.7262 31.7 57.6512 32.6037 58.12C32.99 58.3212 33.4062 58.42 33.8187 58.42C34.3725 58.42 34.9212 58.2412 35.3888 57.8925L41.5875 53.2312H48.7362C51.6788 53.2312 54.0737 50.8362 54.0737 47.8925V38.7937C54.075 38.1712 53.5712 37.6675 52.95 37.6675Z" fill="#E947D9"/>
<path d="M59.0312 26.9512C58.8274 26.3262 58.3262 25.8587 57.6899 25.7012L54.8149 24.9849L53.2449 22.4724C52.5487 21.3549 50.7312 21.3574 50.0362 22.4724L48.4662 24.9849L45.5912 25.7012C44.9549 25.8587 44.4524 26.3262 44.2499 26.9512C44.0474 27.5762 44.1774 28.2499 44.5999 28.7537L46.5049 31.0212L46.2974 33.9762C46.2512 34.6312 46.5412 35.2524 47.0724 35.6387C47.4024 35.8787 47.7899 36.0024 48.1824 36.0024C48.4212 36.0024 48.6624 35.9562 48.8937 35.8624L51.6412 34.7524L54.3874 35.8624C54.9962 36.1099 55.6762 36.0249 56.2087 35.6399C56.7399 35.2537 57.0299 34.6324 56.9849 33.9762L56.7774 31.0212L58.6824 28.7524C59.1037 28.2499 59.2349 27.5762 59.0312 26.9512ZM54.7612 29.9224C54.5737 30.1462 54.4799 30.4337 54.5012 30.7262L54.7012 33.5637L52.0637 32.4974C51.9287 32.4424 51.7849 32.4149 51.6424 32.4149C51.4999 32.4149 51.3562 32.4424 51.2212 32.4974L48.5849 33.5637L48.7837 30.7262C48.8037 30.4349 48.7099 30.1462 48.5237 29.9224L46.6949 27.7449L49.4549 27.0562C49.7374 26.9849 49.9824 26.8087 50.1362 26.5612L51.6437 24.1499L53.1512 26.5612C53.3062 26.8087 53.5499 26.9862 53.8324 27.0562L56.5924 27.7449L54.7612 29.9224Z" fill="#E947D9"/>
</svg>
