<svg width="81" height="80" viewBox="0 0 81 80" fill="none" xmlns="http://www.w3.org/2000/svg">
<rect x="0.5" width="80" height="80" rx="40" fill="#2CC00E" fill-opacity="0.13"/>
<rect x="1" y="0.5" width="79" height="79" rx="39.5" stroke="#2CC00E" stroke-opacity="0.5"/>
<path d="M38.8334 35.0001H41.3334C41.7941 35.0001 42.1668 34.6274 42.1668 34.1667V30.8334C42.1668 30.3728 41.7941 30 41.3334 30H38.8334V27.5001C38.8334 27.0395 38.4607 26.6667 38.0001 26.6667H34.6667C34.2061 26.6667 33.8334 27.0395 33.8334 27.5001V30.0001H31.3334C30.8727 30.0001 30.5 30.3728 30.5 30.8335V34.1668C30.5 34.6275 30.8727 35.0002 31.3334 35.0002H33.8334V37.5002C33.8334 37.9608 34.2061 38.3335 34.6667 38.3335H38.0001C38.4607 38.3335 38.8334 37.9608 38.8334 37.5002V35.0001ZM38.0001 33.3335C37.5395 33.3335 37.1667 33.7062 37.1667 34.1668V36.6668H35.5001V34.1668C35.5001 33.7062 35.1273 33.3335 34.6667 33.3335H32.1667V31.6668H34.6667C35.1273 31.6668 35.5001 31.2941 35.5001 30.8335V28.3335H37.1667V30.8335C37.1667 31.2941 37.5395 31.6668 38.0001 31.6668H40.5001V33.3335H38.0001Z" fill="#2CC00E"/>
<path d="M55.2559 28.5775L46.9225 20.2441C46.7663 20.0879 46.5547 20 46.3333 20H28.8333C26.9958 20 25.5 21.4949 25.5 23.3334V56.6667C25.5 58.5051 26.9958 60 28.8334 60H52.1667C54.0042 60 55.5 58.5051 55.5 56.6666V29.1666C55.5 28.9453 55.4121 28.7338 55.2559 28.5775ZM47.1666 22.8451L52.6549 28.3334H48.8333C47.9137 28.3334 47.1666 27.5855 47.1666 26.6667V22.8451ZM53.8334 56.6666C53.8334 57.5854 53.0863 58.3333 52.1667 58.3333H28.8334C27.9137 58.3333 27.1667 57.5854 27.1667 56.6666V23.3334C27.1667 22.4146 27.9138 21.6667 28.8334 21.6667H45.5V26.6667C45.5 28.5051 46.9958 30 48.8334 30H53.8334V56.6666Z" fill="#2CC00E"/>
<path d="M33 41.6667C31.6214 41.6667 30.5 42.7882 30.5 44.1667C30.5 45.5453 31.6214 46.6667 33 46.6667C34.3786 46.6667 35.5 45.5453 35.5 44.1667C35.5 42.7882 34.3786 41.6667 33 41.6667ZM33 45.0001C32.541 45.0001 32.1666 44.6266 32.1666 44.1667C32.1666 43.707 32.541 43.3334 33 43.3334C33.459 43.3334 33.8334 43.7069 33.8334 44.1667C33.8334 44.6266 33.459 45.0001 33 45.0001Z" fill="#2CC00E"/>
<path d="M33 50C31.6214 50 30.5 51.1214 30.5 52.5C30.5 53.8786 31.6214 55 33 55C34.3786 55 35.5 53.8786 35.5 52.5C35.5 51.1214 34.3786 50 33 50ZM33 53.3334C32.541 53.3334 32.1666 52.9598 32.1666 52.5C32.1666 52.0402 32.541 51.6666 33 51.6666C33.459 51.6666 33.8334 52.0402 33.8334 52.5C33.8334 52.9598 33.459 53.3334 33 53.3334Z" fill="#2CC00E"/>
<path d="M38.8333 44.1666C38.8333 44.6272 39.206 45 39.6666 45H49.6666C50.1272 45 50.5 44.6272 50.5 44.1666C50.5 43.706 50.1272 43.3333 49.6666 43.3333H39.6666C39.206 43.3333 38.8333 43.7061 38.8333 44.1666Z" fill="#2CC00E"/>
<path d="M49.6666 51.6667H39.6666C39.206 51.6667 38.8333 52.0395 38.8333 52.5001C38.8333 52.9607 39.206 53.3335 39.6666 53.3335H49.6666C50.1272 53.3335 50.5 52.9607 50.5 52.5001C50.5 52.0395 50.1272 51.6667 49.6666 51.6667Z" fill="#2CC00E"/>
</svg>
