<svg width="81" height="80" viewBox="0 0 81 80" fill="none" xmlns="http://www.w3.org/2000/svg">
<rect x="0.5" width="80" height="80" rx="40" fill="#0AADFF" fill-opacity="0.13"/>
<rect x="1" y="0.5" width="79" height="79" rx="39.5" stroke="#0AADFF" stroke-opacity="0.5"/>
<g clip-path="url(#clip0_47204_3067)">
<path d="M59.2487 39.7334C57.9113 38.6312 55.7974 38.5367 54.41 40.0256L50.9657 43.7231C50.5204 42.2919 49.1838 41.2498 47.6081 41.2498H41.4616C40.9952 41.2498 40.8391 41.0717 40.0289 40.4475C36.94 37.7547 32.3005 37.7633 29.2209 40.4733L26.9617 42.4622C25.9462 41.9247 24.7603 41.9114 23.7392 42.4216L21.148 43.7168C20.5691 44.0067 20.3348 44.7105 20.6238 45.2894L27.6546 59.351C27.9445 59.9299 28.6483 60.1642 29.2272 59.8752L31.8184 58.5792C33.0957 57.941 33.8066 56.6379 33.7605 55.3115H47.608C50.1759 55.3115 52.6296 54.085 54.1702 52.0305L59.7956 44.5294C60.887 43.0755 60.7143 40.9435 59.2487 39.7334ZM30.77 56.4832L29.2271 57.255L23.2439 45.2894L24.7876 44.5176C25.3665 44.2285 26.0695 44.4621 26.3594 45.0418L31.2942 54.9115C31.5833 55.4903 31.3489 56.1934 30.77 56.4832ZM57.9207 43.1231L52.2953 50.6242C51.1946 52.0921 49.4423 52.9678 47.6081 52.9678H32.9426L28.5514 44.1848L30.7692 42.2326C32.9761 40.2913 36.3041 40.2913 38.5109 42.2326C39.8109 43.377 40.6194 43.5934 41.4616 43.5934H47.608C48.2541 43.5934 48.7798 44.1192 48.7798 44.7652C48.7798 45.4113 48.2541 45.937 47.608 45.937H41.6233C40.9764 45.937 40.4515 46.462 40.4515 47.1088C40.4515 47.7556 40.9765 48.2806 41.6233 48.2806H48.3932C49.3658 48.2806 50.3033 47.8728 50.9657 47.1612L56.1248 41.6232C56.5966 41.117 57.32 41.1592 57.7638 41.5474C58.2277 41.9536 58.2778 42.6481 57.9207 43.1231Z" fill="#0AADFF"/>
<path d="M45.1394 27.9974C45.9417 27.1561 46.4362 26.0186 46.4362 24.7663C46.4362 22.1868 44.352 20.001 41.749 20.001C39.1656 20.001 36.9837 22.1829 36.9837 24.7663C36.9837 25.9803 37.4595 27.1263 38.3235 28.0068C36.1807 29.2082 34.6401 31.5143 34.6401 34.2189V35.3907C34.6401 36.0375 35.1651 36.5625 35.8119 36.5625H47.6081C48.2549 36.5625 48.7799 36.0375 48.7799 35.3907V34.2189C48.7798 31.5675 47.3215 29.2254 45.1394 27.9974ZM41.749 22.3446C43.0193 22.3446 44.0926 23.4539 44.0926 24.7664C44.0926 26.0585 43.0412 27.11 41.749 27.11C40.4366 27.11 39.3273 26.0366 39.3273 24.7664C39.3273 23.4766 40.4593 22.3446 41.749 22.3446ZM36.9837 34.2189C36.9837 31.6354 39.1656 29.4536 41.749 29.4536C44.3333 29.4536 46.4362 31.5909 46.4362 34.2189H36.9837Z" fill="#0AADFF"/>
</g>
<defs>
<clipPath id="clip0_47204_3067">
<rect width="40" height="40" fill="white" transform="translate(20.5 20)"/>
</clipPath>
</defs>
</svg>
